<svg xmlns="http://www.w3.org/2000/svg" width="161" height="43" fill="none"><path d="M 148.207 0.578 C 146.023 0.578 143.233 0.82 142.199 0.82 C 141.594 0.82 139.349 0.759 138.618 0.759 L 138.618 1.303 C 139.833 1.545 140.499 1.968 140.499 3.061 L 140.499 19.056 C 140.499 20.21 139.833 20.694 138.557 20.875 L 138.557 21.419 C 139.223 21.419 141.347 21.359 141.957 21.359 C 142.986 21.359 145.599 21.54 147.783 21.54 C 155.366 21.54 160.041 17.057 160.041 10.996 C 160.037 4.638 155.547 0.578 148.207 0.578 Z M 34.93 0.578 C 34.93 0.578 34.627 1.912 34.324 2.578 L 27.711 18.512 C 27.226 19.666 26.495 20.512 25.224 20.815 L 25.224 21.359 L 28.195 21.298 C 28.619 21.298 30.44 21.359 31.106 21.359 L 31.106 20.815 C 29.951 20.512 29.649 20.028 29.649 19.48 C 29.649 19.117 29.83 18.573 30.012 18.145 L 31.409 14.689 L 39.113 14.689 L 40.631 18.145 C 40.873 18.629 40.994 19.113 40.994 19.54 C 40.994 20.024 40.691 20.568 39.658 20.815 L 39.658 21.359 C 40.445 21.359 42.69 21.298 43.178 21.298 C 43.723 21.298 46.089 21.359 46.82 21.359 L 46.82 20.815 C 45.423 20.452 44.878 19.661 44.394 18.573 L 37.356 2.578 C 37.054 1.912 36.751 0.578 36.751 0.578 Z M 100.637 0.578 C 100.637 0.578 100.334 1.912 100.031 2.578 L 93.418 18.512 C 92.933 19.666 92.202 20.512 90.931 20.815 L 90.931 21.359 L 93.902 21.298 C 94.326 21.298 96.147 21.359 96.813 21.359 L 96.813 20.815 C 95.658 20.512 95.355 20.028 95.355 19.48 C 95.355 19.117 95.537 18.573 95.719 18.145 L 97.116 14.689 L 104.819 14.689 L 106.338 18.145 C 106.519 18.629 106.701 19.113 106.701 19.54 C 106.701 20.024 106.398 20.568 105.364 20.815 L 105.364 21.359 C 106.152 21.359 108.396 21.298 108.885 21.298 C 109.43 21.298 111.796 21.359 112.527 21.359 L 112.527 20.815 C 111.13 20.452 110.585 19.661 110.101 18.573 L 103.063 2.578 C 102.821 1.912 102.458 0.578 102.458 0.578 Z M 58.59 0.578 C 57.435 0.578 54.584 0.759 53.555 0.759 C 52.949 0.759 50.765 0.699 50.034 0.699 L 50.034 1.243 C 51.31 1.485 51.855 2.089 51.855 3.061 L 51.855 18.936 C 51.855 20.024 51.189 20.633 50.034 20.815 L 50.034 21.359 C 50.7 21.359 52.945 21.298 53.494 21.298 C 54.16 21.298 56.405 21.359 57.076 21.359 L 57.076 20.815 C 55.86 20.573 55.134 19.968 55.134 18.936 L 55.134 11.847 C 55.497 11.908 55.8 11.908 56.103 11.968 C 57.681 12.21 58.59 12.936 59.256 13.847 C 60.411 15.303 62.348 18.21 63.503 19.545 C 64.84 21.121 66.172 21.726 67.811 21.726 C 68.599 21.726 69.632 21.605 70.238 21.484 L 70.238 21 C 68.901 20.94 67.63 19.605 66.657 18.456 C 65.688 17.242 63.257 13.851 62.409 12.819 C 61.682 11.972 60.951 11.545 60.951 11.545 C 64.105 10.759 66.168 8.94 66.168 6.154 C 66.297 2.638 63.503 0.578 58.59 0.578 Z M 123.877 0.578 C 122.722 0.578 119.872 0.759 118.842 0.759 C 118.237 0.759 116.052 0.699 115.321 0.699 L 115.321 1.243 C 116.597 1.485 117.142 2.089 117.142 3.061 L 117.142 18.936 C 117.142 20.024 116.476 20.633 115.321 20.815 L 115.321 21.359 C 115.987 21.359 118.232 21.298 118.782 21.298 C 119.448 21.298 121.693 21.359 122.363 21.359 L 122.363 20.815 C 121.148 20.573 120.421 19.968 120.421 18.936 L 120.421 11.847 C 120.784 11.908 121.087 11.908 121.39 11.968 C 122.969 12.21 123.816 12.936 124.543 13.847 C 125.698 15.303 127.636 18.21 128.791 19.545 C 130.067 21.121 131.459 21.726 133.159 21.726 C 133.946 21.726 134.98 21.605 135.586 21.484 L 135.586 21 C 134.249 20.94 132.978 19.605 132.004 18.456 C 131.035 17.242 128.605 13.851 127.757 12.819 C 127.03 11.972 126.299 11.545 126.299 11.545 C 129.452 10.759 131.516 8.94 131.516 6.154 C 131.58 2.638 128.851 0.578 123.877 0.578 Z M 0.041 0.699 L 0.041 1.243 C 1.071 1.485 1.681 1.968 1.681 3.001 L 1.681 19.056 C 1.681 20.145 1.015 20.573 0.041 20.815 L 0.041 21.359 C 0.526 21.359 2.771 21.298 3.255 21.298 C 3.861 21.298 6.166 21.359 6.655 21.359 L 6.655 20.815 C 5.625 20.573 4.955 20.149 4.955 19.056 L 4.955 11.484 L 16.906 11.484 L 16.906 19.056 C 16.906 20.145 16.24 20.573 15.267 20.815 L 15.267 21.359 C 15.751 21.359 18.057 21.298 18.666 21.298 C 19.211 21.298 21.456 21.359 21.941 21.359 L 21.941 20.815 C 20.911 20.573 20.241 20.089 20.241 19.056 L 20.241 3.001 C 20.241 1.912 20.968 1.485 21.941 1.243 L 21.941 0.699 C 21.456 0.699 19.211 0.759 18.666 0.759 C 18.061 0.759 15.816 0.699 15.267 0.699 L 15.267 1.243 C 16.296 1.485 16.906 1.908 16.906 3.001 L 16.906 9.726 L 5.016 9.726 L 5.016 3.001 C 5.016 1.912 5.742 1.485 6.715 1.243 L 6.715 0.699 C 6.231 0.699 3.926 0.759 3.316 0.759 C 2.771 0.763 0.586 0.699 0.041 0.699 Z M 69.632 0.699 L 69.632 1.303 C 70.787 1.545 71.514 2.271 71.938 3.303 L 80.13 21.48 L 81.83 21.48 L 89.231 3.968 C 89.957 2.331 90.688 1.606 91.96 1.243 L 91.96 0.699 C 91.233 0.699 89.291 0.759 88.807 0.759 C 88.262 0.759 86.683 0.699 86.017 0.699 L 86.017 1.243 C 86.865 1.424 87.475 1.848 87.475 2.517 C 87.475 3.122 87.172 3.852 86.808 4.819 L 81.774 17 L 76.428 4.88 C 75.883 3.606 75.58 2.94 75.58 2.457 C 75.58 1.791 76.367 1.368 77.037 1.243 L 77.037 0.699 C 76.311 0.699 73.945 0.759 73.395 0.759 C 72.85 0.824 70.363 0.763 69.632 0.699 Z M 147.295 1.912 C 153.06 1.912 156.456 5.67 156.456 11.061 C 156.456 16.27 153.242 19.968 147.052 19.968 C 145.962 19.968 144.565 19.907 143.839 19.726 L 143.839 2.094 C 144.626 2.033 146.083 1.912 147.295 1.912 Z M 57.621 1.912 C 61.021 1.912 62.898 3.61 62.898 6.456 C 62.898 8.396 61.682 10.638 57.802 10.638 C 56.834 10.638 55.86 10.577 55.194 10.517 L 55.194 2.154 C 55.86 2.033 56.89 1.912 57.621 1.912 Z M 122.904 1.912 C 126.303 1.912 128.181 3.61 128.181 6.456 C 128.181 8.396 126.965 10.638 123.085 10.638 C 122.116 10.638 121.143 10.577 120.477 10.517 L 120.477 2.154 C 121.204 2.033 122.177 1.912 122.904 1.912 Z M 35.051 5.428 L 38.325 13.121 L 31.954 13.121 Z M 100.758 5.428 L 104.032 13.121 L 97.665 13.121 Z M 100.818 30.875 C 98.573 30.875 97.176 32.028 97.176 33.842 C 97.176 35.782 99.24 36.689 100.269 37.177 C 101.666 37.903 102.817 38.451 102.817 39.661 C 102.817 40.814 101.908 41.479 100.451 41.479 C 99.785 41.479 98.993 41.298 98.509 40.935 C 98.024 40.632 97.661 40.028 97.479 39.419 L 97.176 39.419 L 97.237 41.721 C 98.024 41.842 98.937 42.265 100.511 42.265 C 103.059 42.265 104.517 40.991 104.517 39.177 C 104.517 37.298 102.877 36.451 101.363 35.782 C 100.027 35.177 98.816 34.568 98.816 33.358 C 98.816 32.512 99.361 31.661 100.818 31.661 C 102.155 31.661 103.305 32.145 103.729 33.419 L 104.032 33.419 L 104.032 31.177 C 103.003 31.238 102.276 30.875 100.818 30.875 Z M 81.527 30.935 C 81.345 31.056 80.922 31.056 80.74 31.056 L 73.945 31.056 L 73.945 31.358 C 74.611 31.479 74.914 31.782 74.914 32.326 L 74.914 40.689 C 74.914 41.293 74.55 41.596 73.945 41.717 L 73.945 42.019 C 74.308 42.019 75.524 41.959 75.826 41.959 L 79.226 41.959 C 80.441 41.959 81.047 41.959 82.076 42.079 L 82.379 39.838 L 82.076 39.777 C 81.713 40.624 81.35 41.172 79.892 41.172 L 76.678 41.172 L 76.678 36.689 L 78.984 36.689 C 79.287 36.689 79.71 36.749 79.892 36.749 C 80.377 36.87 80.558 37.173 80.74 37.656 L 81.043 37.656 L 81.043 34.926 L 80.74 34.926 C 80.619 35.35 80.437 35.652 79.892 35.773 C 79.71 35.833 79.347 35.833 78.984 35.833 L 76.678 35.833 L 76.678 32.015 L 79.65 32.015 C 80.986 32.015 81.229 32.559 81.471 33.289 L 81.774 33.289 L 81.834 31.108 Z M 112.531 30.996 L 112.531 33.237 L 112.834 33.237 C 113.137 32.27 113.682 32.024 114.413 32.024 L 116.779 32.024 L 116.779 40.689 C 116.779 41.293 116.476 41.535 115.81 41.717 L 115.81 42.019 C 116.173 42.019 117.449 41.959 117.692 41.959 C 118.055 41.959 119.21 42.019 119.573 42.019 L 119.573 41.717 C 118.907 41.596 118.604 41.293 118.604 40.689 L 118.604 32.024 L 120.91 32.024 C 121.636 32.024 122.186 32.266 122.488 33.237 L 122.791 33.237 L 122.791 30.996 C 122.004 31.056 121.455 31.117 117.696 31.117 C 113.864 31.117 113.258 31.056 112.531 30.996 Z M 89.594 30.996 C 88.988 30.996 87.47 31.056 86.925 31.056 C 86.622 31.056 85.468 30.996 85.104 30.996 L 85.104 31.298 C 85.77 31.419 86.073 31.721 86.073 32.266 L 86.073 40.628 C 86.073 41.233 85.71 41.535 85.104 41.656 L 85.104 41.959 C 85.468 41.959 86.622 41.898 86.925 41.898 C 87.289 41.898 88.443 41.959 88.807 41.959 L 88.807 41.717 C 88.141 41.596 87.777 41.293 87.777 40.689 L 87.777 36.931 C 87.959 36.931 88.141 36.991 88.262 36.991 C 89.11 37.112 89.538 37.535 89.962 37.959 C 90.567 38.745 91.54 40.201 92.146 40.926 C 92.812 41.773 93.543 42.079 94.451 42.079 C 94.875 42.079 95.42 42.019 95.727 41.959 L 95.727 41.717 C 95.001 41.656 94.33 40.991 93.846 40.382 C 93.301 39.777 92.085 37.959 91.601 37.414 C 91.238 36.991 90.814 36.749 90.814 36.749 C 92.514 36.326 93.543 35.354 93.543 33.903 C 93.72 32.088 92.263 30.996 89.594 30.996 Z M 27.04 31.056 L 27.04 31.358 C 27.646 31.479 27.949 31.842 27.949 32.326 L 27.949 38.326 C 27.949 40.749 29.527 42.144 32.56 42.144 C 35.834 42.144 37.352 40.628 37.352 38.084 L 37.352 32.326 C 37.352 31.842 37.655 31.54 38.321 31.419 L 38.321 31.117 C 38.079 31.117 37.045 31.177 36.803 31.177 C 36.5 31.177 35.527 31.117 35.285 31.117 L 35.285 31.419 C 35.951 31.54 36.253 31.903 36.253 32.326 L 36.253 38.447 C 36.253 40.386 34.796 41.233 32.914 41.233 C 30.73 41.233 29.7 40.144 29.7 38.265 L 29.7 32.326 C 29.7 31.842 30.003 31.479 30.609 31.358 L 30.609 31.056 C 30.245 31.056 29.151 31.117 28.848 31.117 C 28.498 31.117 27.404 31.056 27.04 31.056 Z M 40.933 31.056 L 40.933 31.358 C 41.539 31.54 41.963 31.842 41.963 32.512 L 41.963 40.693 C 41.963 41.116 41.66 41.479 40.994 41.6 L 40.994 41.902 C 41.236 41.902 42.209 41.842 42.512 41.842 C 42.815 41.842 43.728 41.902 44.03 41.902 L 44.03 41.721 C 43.364 41.6 43.062 41.237 43.062 40.814 L 43.062 33.605 L 49.433 40.995 C 50.22 41.842 50.709 42.149 51.012 42.209 L 51.436 42.209 L 51.436 32.335 C 51.436 31.851 51.738 31.549 52.465 31.428 L 52.465 31.125 C 52.223 31.125 51.25 31.186 50.947 31.186 C 50.644 31.186 49.731 31.125 49.429 31.125 L 49.429 31.428 C 50.095 31.549 50.397 31.911 50.397 32.335 L 50.397 39.483 L 43.239 31.06 C 42.936 31.121 42.512 31.121 42.209 31.121 C 41.907 31.121 41.297 31.117 40.933 31.056 Z M 60.713 31.056 L 60.713 31.358 C 61.319 31.479 61.682 31.903 61.929 32.387 L 66.237 41.959 L 67.145 41.959 L 71.09 32.749 C 71.453 31.903 71.877 31.536 72.548 31.354 L 72.548 31.052 C 72.184 31.052 71.151 31.112 70.908 31.112 C 70.666 31.112 69.753 31.052 69.39 31.052 L 69.39 31.354 C 69.814 31.415 70.117 31.657 70.117 32.019 C 70.117 32.322 69.935 32.745 69.753 33.233 L 67.085 39.656 L 64.295 33.233 C 63.992 32.568 63.81 32.205 63.81 31.959 C 63.81 31.596 64.234 31.415 64.537 31.354 L 64.537 31.052 C 64.113 31.052 62.958 31.112 62.716 31.112 C 62.413 31.117 61.077 31.056 60.713 31.056 Z M 123.514 31.056 L 123.514 31.358 C 124.059 31.54 124.422 31.963 124.911 32.814 L 127.701 37.298 L 127.701 40.753 C 127.701 41.116 127.398 41.6 126.732 41.721 L 126.732 42.023 C 127.156 42.023 128.25 41.963 128.492 41.963 C 128.855 41.963 130.01 42.023 130.313 42.023 L 130.313 41.721 C 129.708 41.6 129.405 41.116 129.405 40.753 L 129.405 37.298 L 131.831 33.177 C 132.316 32.391 132.8 31.661 133.592 31.358 L 133.592 31.056 C 133.228 31.056 132.376 31.117 132.195 31.117 C 131.952 31.117 131.226 31.056 130.858 31.056 L 130.858 31.358 C 131.221 31.419 131.343 31.6 131.343 31.782 C 131.343 32.024 131.221 32.387 130.979 32.749 L 128.916 36.265 C 128.916 36.265 126.913 32.996 126.792 32.749 C 126.611 32.447 126.429 32.145 126.429 31.903 C 126.429 31.6 126.611 31.419 126.974 31.358 L 126.974 31.056 C 126.55 31.056 125.395 31.117 125.092 31.117 C 124.967 31.117 123.877 31.056 123.514 31.056 Z M 55.558 31.117 L 55.558 31.419 C 56.224 31.54 56.526 31.842 56.526 32.447 L 56.526 40.749 C 56.526 41.354 56.224 41.596 55.558 41.777 L 55.558 42.079 C 55.921 42.079 57.136 42.019 57.439 42.019 C 57.802 42.019 58.957 42.079 59.321 42.079 L 59.321 41.717 C 58.655 41.596 58.352 41.293 58.352 40.689 L 58.352 32.387 C 58.352 31.782 58.715 31.54 59.321 31.358 L 59.321 31.056 C 58.957 31.056 57.742 31.117 57.439 31.117 Z M 107.129 31.117 L 107.129 31.419 C 107.795 31.54 108.098 31.842 108.098 32.447 L 108.098 40.749 C 108.098 41.354 107.795 41.596 107.129 41.777 L 107.129 42.079 C 107.492 42.079 108.708 42.019 109.011 42.019 C 109.374 42.019 110.529 42.079 110.892 42.079 L 110.892 41.717 C 110.226 41.596 109.923 41.293 109.923 40.689 L 109.923 32.387 C 109.923 31.782 110.287 31.54 110.892 31.358 L 110.892 31.056 C 110.529 31.056 109.313 31.117 109.011 31.117 Z M 89.11 31.726 C 90.931 31.726 91.899 32.633 91.899 34.088 C 91.899 35.116 91.233 36.33 89.231 36.33 C 88.746 36.33 88.201 36.33 87.834 36.27 L 87.834 31.847 C 88.201 31.786 88.746 31.726 89.11 31.726 Z" fill="currentColor"></path></svg>