<svg width="189" height="32" viewBox="0 0 189 32" fill="none" xmlns="http://www.w3.org/2000/svg">
<g clip-path="url(#clip0_724_244)">
<path d="M73.8105 2.85054C73.8136 2.28675 73.9837 1.73651 74.2996 1.26925C74.6147 0.801982 75.0619 0.43862 75.5833 0.225011C76.1048 0.0114023 76.6785 -0.0428834 77.2312 0.0690025C77.7834 0.180888 78.2905 0.453931 78.6881 0.853687C79.086 1.25344 79.3563 1.76199 79.4651 2.31517C79.5739 2.86836 79.5163 3.4414 79.2999 3.96199C79.0834 4.48257 78.7175 4.92737 78.2488 5.2403C77.7797 5.55318 77.2285 5.72018 76.6646 5.72018C75.906 5.71604 75.1805 5.41189 74.6452 4.87418C74.1106 4.33646 73.8105 3.60891 73.8105 2.85054Z" fill="currentColor"/>
<path d="M118.941 21.9339C118.945 21.3701 119.115 20.8199 119.43 20.3526C119.746 19.8853 120.193 19.522 120.715 19.3084C121.236 19.0947 121.809 19.0405 122.362 19.1523C122.915 19.2642 123.422 19.5373 123.819 19.9371C124.217 20.3368 124.487 20.8453 124.596 21.3986C124.705 21.9517 124.648 22.5248 124.431 23.0453C124.215 23.5659 123.849 24.0108 123.38 24.3236C122.911 24.6366 122.36 24.8035 121.796 24.8035C121.037 24.7994 120.312 24.4953 119.776 23.9575C119.242 23.4198 118.941 22.6923 118.941 21.9339Z" fill="currentColor"/>
<path d="M26.8773 20.7111C26.2876 20.6966 25.7073 20.5608 25.1724 20.3122C24.6376 20.0636 24.1596 19.7076 23.7683 19.2663C23.377 18.825 23.0808 18.3078 22.898 17.7471C22.7153 17.1863 22.65 16.5939 22.7061 16.0067C22.6437 15.4186 22.7057 14.8239 22.8881 14.2612C23.0705 13.6985 23.3691 13.1805 23.7647 12.7408C24.1603 12.3011 24.6439 11.9494 25.1842 11.7087C25.7244 11.468 26.3094 11.3436 26.9008 11.3436C27.4923 11.3436 28.0772 11.468 28.6175 11.7087C29.1577 11.9494 29.6413 12.3011 30.0369 12.7408C30.4325 13.1805 30.7311 13.6985 30.9135 14.2612C31.0959 14.8239 31.1579 15.4186 31.0955 16.0067C31.1568 16.5987 31.0936 17.1969 30.9098 17.7629C30.726 18.329 30.4258 18.8503 30.0286 19.2934C29.6312 19.7364 29.1457 20.0915 28.6029 20.3357C28.0602 20.5798 27.4724 20.7077 26.8773 20.7111ZM26.8773 7.00571C25.6896 6.96212 24.5056 7.16319 23.3989 7.59632C22.2922 8.02952 21.2863 8.68552 20.4437 9.5237C19.6011 10.3619 18.9398 11.3643 18.5008 12.4688C18.0619 13.5732 17.8547 14.7561 17.892 15.944C17.8547 17.1319 18.0619 18.3148 18.5008 19.4193C18.9398 20.5237 19.6011 21.5262 20.4437 22.3644C21.2863 23.2025 22.2922 23.8585 23.3989 24.2917C24.5056 24.7249 25.6896 24.9259 26.8773 24.8823C28.0683 24.9302 29.2563 24.7324 30.3676 24.3014C31.4789 23.8704 32.4895 23.2153 33.3368 22.3769C34.184 21.5385 34.8496 20.5347 35.2923 19.4281C35.7349 18.3214 35.9451 17.1354 35.9097 15.944C35.9451 14.7526 35.7349 13.5667 35.2923 12.46C34.8496 11.3533 34.184 10.3495 33.3368 9.51112C32.4895 8.67269 31.4789 8.01763 30.3676 7.58664C29.2563 7.15562 28.0683 6.9579 26.8773 7.00571Z" fill="currentColor"/>
<path d="M68.2751 16.3994C68.0903 16.0501 67.858 15.7282 67.585 15.4429L67.4284 15.2703L67.6005 15.1136C67.8651 14.8354 68.1057 14.5365 68.3222 14.2197L72.9166 7.36701H67.3339L63.8847 12.73C63.739 12.8879 63.5575 13.0088 63.3554 13.0824C63.1536 13.156 62.9371 13.1804 62.724 13.1534H61.9399V3.02334C61.9399 1.00046 60.6855 0.718201 59.3211 0.718201H56.9531V24.6321H61.8928V17.4658H62.363C62.9277 17.4658 63.3042 17.4658 63.4924 17.8421L66.2211 23.0012C66.4711 23.5504 66.8957 24.0018 67.4292 24.2852C67.9619 24.5687 68.5736 24.6686 69.1688 24.5693H72.9637L70.1413 19.865L68.2751 16.3053" fill="currentColor"/>
<path d="M92.2836 6.97477C91.3492 6.95233 90.4204 7.12479 89.5564 7.4812C88.6928 7.83753 87.9124 8.37004 87.2656 9.04475L86.9674 9.38968L86.8579 8.982C86.696 8.46729 86.3564 8.02689 85.899 7.73964C85.4427 7.45236 84.8987 7.33693 84.3645 7.41385H82.1377V24.6632H87.0461V16.6658C87.0375 15.9633 87.1429 15.2642 87.3593 14.5959C87.5913 13.7181 88.1123 12.944 88.837 12.3978C89.5625 11.8518 90.4505 11.5655 91.3578 11.5851C92.9266 11.5851 93.4913 12.4005 93.4913 14.4861V21.9347C93.4348 22.2914 93.4634 22.6564 93.5749 22.9999C93.6867 23.3434 93.8783 23.6555 94.1336 23.9109C94.3884 24.1663 94.7013 24.3577 95.0446 24.4694C95.388 24.581 95.7531 24.6098 96.1096 24.5535H98.446V13.5766C98.446 9.21722 96.3291 6.91205 92.299 6.91205" fill="currentColor"/>
<path d="M76.7278 7.36697H74.4072V24.6319H79.2995V9.98573C79.3548 9.63196 79.3262 9.27025 79.2163 8.92955C79.106 8.58888 78.9177 8.27874 78.6659 8.0241C78.4144 7.76945 78.1068 7.57734 77.7672 7.46319C77.428 7.34908 77.0666 7.31611 76.712 7.36697" fill="currentColor"/>
<path d="M46.1653 20.7111C45.5758 20.6966 44.9956 20.5608 44.4607 20.3122C43.9257 20.0636 43.4476 19.7076 43.0564 19.2663C42.6653 18.825 42.369 18.3078 42.186 17.7471C42.0035 17.1863 41.9383 16.5939 41.9944 16.0067C41.9124 15.4078 41.9594 14.7982 42.1326 14.219C42.3058 13.6397 42.6009 13.1043 42.9985 12.6487C43.3956 12.1931 43.8862 11.8279 44.4366 11.5777C44.987 11.3274 45.5844 11.198 46.1891 11.198C46.7937 11.198 47.3911 11.3274 47.9415 11.5777C48.4919 11.8279 48.9821 12.1931 49.3796 12.6487C49.7768 13.1043 50.0724 13.6397 50.2455 14.219C50.4187 14.7982 50.4658 15.4078 50.3837 16.0067C50.4451 16.5987 50.3818 17.1969 50.1981 17.7629C50.0144 18.329 49.714 18.8503 49.3168 19.2934C48.9196 19.7364 48.434 20.0915 47.8911 20.3357C47.3482 20.5798 46.7605 20.7077 46.1653 20.7111ZM46.1653 7.00571C44.9764 6.95993 43.7909 7.15939 42.6822 7.5915C41.5735 8.02369 40.5657 8.67939 39.7217 9.51783C38.8772 10.3562 38.2147 11.3594 37.7746 12.4649C37.3347 13.5705 37.127 14.7548 37.1645 15.944C37.127 17.1333 37.3347 18.3175 37.7746 19.4231C38.2147 20.5286 38.8772 21.5319 39.7217 22.3702C40.5657 23.2087 41.5735 23.8644 42.6822 24.2965C43.7909 24.7287 44.9764 24.9281 46.1653 24.8823C47.3565 24.9302 48.5446 24.7324 49.656 24.3014C50.7669 23.8704 51.7778 23.2153 52.6248 22.3769C53.4723 21.5385 54.1379 20.5347 54.5806 19.4281C55.0229 18.3214 55.2334 17.1354 55.198 15.944C55.2334 14.7526 55.0229 13.5667 54.5806 12.46C54.1379 11.3533 53.4723 10.3495 52.6248 9.51112C51.7778 8.67269 50.7669 8.01763 49.656 7.58664C48.5446 7.15562 47.3565 6.9579 46.1653 7.00571Z" fill="currentColor"/>
<path d="M151.48 20.7111C150.89 20.6966 150.31 20.5608 149.775 20.3122C149.24 20.0636 148.762 19.7076 148.37 19.2663C147.98 18.825 147.683 18.3078 147.501 17.7471C147.317 17.1863 147.252 16.5939 147.309 16.0067C147.226 15.4078 147.274 14.7982 147.447 14.219C147.62 13.6397 147.915 13.1043 148.312 12.6487C148.71 12.1931 149.2 11.8279 149.75 11.5777C150.301 11.3274 150.899 11.198 151.503 11.198C152.108 11.198 152.705 11.3274 153.256 11.5777C153.806 11.8279 154.296 12.1931 154.694 12.6487C155.091 13.1043 155.386 13.6397 155.56 14.219C155.733 14.7982 155.78 15.4078 155.698 16.0067C155.759 16.5987 155.696 17.1969 155.512 17.7629C155.328 18.329 155.028 18.8503 154.631 19.2934C154.233 19.7364 153.748 20.0915 153.205 20.3357C152.662 20.5798 152.074 20.7077 151.48 20.7111ZM151.48 7.00571C150.29 6.95993 149.105 7.15939 147.997 7.5915C146.888 8.02369 145.88 8.67939 145.035 9.51783C144.191 10.3562 143.529 11.3594 143.088 12.4649C142.649 13.5705 142.441 14.7548 142.479 15.944C142.479 18.3354 143.429 20.6288 145.12 22.3197C146.811 24.0107 149.104 24.9607 151.495 24.9607C153.887 24.9607 156.18 24.0107 157.871 22.3197C159.562 20.6288 160.512 18.3354 160.512 15.944C160.548 14.7526 160.338 13.5667 159.894 12.46C159.452 11.3533 158.787 10.3495 157.939 9.51112C157.092 8.67269 156.081 8.01763 154.97 7.58664C153.859 7.15562 152.67 6.9579 151.48 7.00571Z" fill="currentColor"/>
<path d="M108.796 19.9585C106.115 19.9585 105.159 17.6063 105.159 15.411C105.159 14.4387 105.409 11.2868 108.546 11.2868C110.114 11.2868 112.184 11.7416 112.184 15.5834C112.184 19.4253 110.349 19.9742 108.796 19.9742V19.9585ZM114.724 7.3194C114.325 7.2883 113.924 7.37037 113.569 7.55616C113.215 7.74203 112.919 8.02408 112.717 8.37009L112.576 8.63667L112.34 8.43281C111.08 7.37086 109.472 6.81237 107.824 6.8647C103.23 6.8647 100.141 10.3145 100.141 15.458C100.141 20.6014 103.277 24.1924 107.981 24.1924C109.33 24.2543 110.661 23.8623 111.76 23.079L112.136 22.7968V23.2829C112.136 25.5881 110.647 26.8582 107.95 26.8582C106.82 26.8445 105.701 26.6376 104.641 26.2466C104.443 26.1487 104.226 26.0969 104.005 26.0953C103.783 26.0938 103.565 26.1424 103.366 26.2375C103.167 26.3327 102.992 26.4719 102.854 26.6446C102.716 26.8173 102.62 27.019 102.571 27.2346L102.179 28.2068L101.63 29.6181L101.976 29.8063C103.835 30.7594 105.892 31.2642 107.981 31.2803C112.168 31.2803 117.045 29.132 117.045 23.0947V7.3194H114.724Z" fill="currentColor"/>
<path d="M8.57758 20.5231H4.5789V15.662C4.5789 14.6427 4.97095 14.0938 5.84907 13.9841H8.57758C9.00183 13.9629 9.42569 14.0322 9.82106 14.1873C10.2165 14.3424 10.5743 14.5798 10.8709 14.8839C11.1675 15.1879 11.3961 15.5516 11.5414 15.9506C11.6867 16.3497 11.7455 16.7752 11.7138 17.1987C11.7529 17.6253 11.6994 18.0554 11.5572 18.4595C11.4149 18.8636 11.1872 19.2323 10.8895 19.5403C10.5918 19.8484 10.2312 20.0887 9.83224 20.2448C9.43326 20.4009 9.00533 20.469 8.57758 20.4447V20.5231ZM4.5789 7.60181V6.34734C4.5789 5.24966 5.04934 4.77922 6.06863 4.65375H8.10718C8.48915 4.61023 8.87608 4.65235 9.23972 4.77708C9.60339 4.9018 9.93464 5.106 10.2095 5.37484C10.4843 5.64367 10.6958 5.97038 10.8285 6.33122C10.9613 6.69199 11.012 7.07784 10.9769 7.46067C11.0113 7.84223 10.963 8.22668 10.8355 8.5879C10.708 8.94912 10.504 9.27861 10.2376 9.55392C9.97128 9.82927 9.64864 10.0439 9.2919 10.1833C8.93504 10.3227 8.55239 10.3835 8.1699 10.3617H4.5789V7.60181ZM13.6897 12.3062L12.9684 11.8985L13.5956 11.3653C14.2241 10.8116 14.7248 10.128 15.0632 9.36181C15.4016 8.59558 15.5697 7.76505 15.5557 6.92755C15.5557 3.11701 12.639 0.733459 8.1385 0.733459H2.41491C1.76862 0.757704 1.15666 1.03057 0.706722 1.49512C0.256769 1.95968 0.00358758 2.58005 0 3.22677V24.5532H8.24832C13.2506 24.5532 16.481 21.8246 16.481 17.5907C16.5212 16.5513 16.2821 15.52 15.7884 14.6044C15.2948 13.6887 14.5646 12.9222 13.674 12.3846L13.6897 12.3062Z" fill="currentColor"/>
<path d="M182.45 7.03708C181.44 7.04419 180.443 7.27745 179.535 7.71969C178.625 8.16204 177.827 8.80208 177.197 9.59312L176.836 10.0479L176.554 9.5461C176.097 8.71772 175.409 8.03977 174.574 7.59444C173.739 7.14911 172.793 6.95549 171.85 7.03708C170.996 7.05025 170.153 7.23785 169.374 7.58845C168.594 7.93895 167.895 8.44508 167.318 9.07563L166.848 9.57742L166.675 8.91886C166.514 8.42795 166.186 8.00942 165.747 7.73697C165.308 7.46448 164.787 7.35549 164.276 7.42909H162.206V24.6784H166.91V17.0417C166.914 16.365 166.998 15.6911 167.162 15.0345C167.616 13.1998 168.839 11.224 170.909 11.4278C172.18 11.5533 172.807 12.5412 172.807 14.4386V24.6314H177.511V17.0417C177.495 16.3422 177.585 15.6443 177.778 14.9718C177.894 14.0542 178.319 13.2036 178.983 12.5596C179.648 11.9156 180.511 11.5165 181.431 11.4278C182.874 11.4278 183.407 12.2432 183.407 14.4543V22.1381C183.407 23.8787 184.175 24.647 185.916 24.647H188.175V13.6703C188.175 9.27948 186.245 7.05274 182.45 7.05274" fill="currentColor"/>
<path d="M139.767 18.6572C138.517 19.9277 136.841 20.6926 135.062 20.8055C134.414 20.8507 133.764 20.7578 133.154 20.5332C132.544 20.3086 131.99 19.9571 131.526 19.5022C131.062 19.0472 130.7 18.4991 130.463 17.8939C130.227 17.2887 130.122 16.6403 130.154 15.9913C130.108 15.3537 130.196 14.7132 130.413 14.112C130.631 13.5106 130.973 12.962 131.417 12.5018C131.86 12.0416 132.397 11.6801 132.99 11.4411C133.583 11.2021 134.22 11.0908 134.858 11.1145C135.737 11.1145 136.74 11.4281 136.897 11.9613V12.0554C136.998 12.4226 137.216 12.7463 137.52 12.976C137.823 13.2057 138.194 13.3287 138.575 13.3256H141.131V11.0832C141.131 8.11942 137.368 7.03744 134.858 7.03744C133.638 6.96381 132.416 7.14312 131.268 7.56405C130.121 7.98491 129.073 8.63842 128.189 9.48349C127.306 10.3286 126.606 11.347 126.135 12.475C125.664 13.603 125.43 14.8161 125.45 16.0384C125.42 17.2527 125.642 18.4601 126.1 19.585C126.559 20.7098 127.244 21.728 128.114 22.5758C128.984 23.4235 130.019 24.0827 131.156 24.512C132.292 24.9414 133.504 25.1316 134.718 25.0708C136.072 25.0794 137.414 24.8048 138.656 24.2647C139.898 23.7247 141.013 22.931 141.931 21.9345L142.072 21.7621L140.033 18.3749L139.767 18.6572Z" fill="currentColor"/>
</g>
<defs>
<clipPath id="clip0_724_244">
<rect width="188.235" height="32" fill="white"/>
</clipPath>
</defs>
</svg>
