<svg xmlns="http://www.w3.org/2000/svg" width="234.674" height="40.078" fill="none" overflow="visible"><g><path d="M 0.008 0.012 L 234.674 0.012 L 234.674 40.012 L 0.008 40.012 Z" fill="transparent"></path><path d="M 61.608 19.502 L 61.608 26.168 L 66.474 26.168 C 67.405 26.259 68.329 25.932 68.995 25.275 C 69.662 24.619 70.002 23.701 69.926 22.768 C 69.992 21.855 69.647 20.959 68.983 20.327 C 68.32 19.694 67.409 19.392 66.499 19.502 Z M 61.608 11.262 L 61.608 17.088 L 66.126 17.088 C 68.233 17.088 69.499 15.995 69.499 14.115 C 69.499 12.235 68.259 11.262 66.286 11.262 Z M 58.674 8.475 L 66.486 8.475 C 70.166 8.475 72.419 10.262 72.419 13.515 C 72.567 15.522 71.412 17.398 69.553 18.168 C 71.697 18.74 73.105 20.788 72.873 22.995 C 72.961 24.625 72.343 26.214 71.176 27.356 C 70.009 28.497 68.407 29.08 66.779 28.955 L 58.674 28.955 Z M 86.436 20.008 L 86.436 19.85 C 86.436 17.342 84.729 16.008 82.289 16.008 C 79.911 15.855 77.848 17.634 77.649 20.008 Z M 89.343 22.342 L 77.636 22.342 C 77.665 23.567 78.198 24.726 79.108 25.546 C 80.019 26.366 81.228 26.774 82.449 26.675 C 84.225 26.745 85.899 25.848 86.823 24.33 L 89.049 25.663 C 87.595 27.975 85.019 29.337 82.289 29.237 C 77.583 29.237 74.823 26.183 74.823 21.503 C 74.823 16.597 77.849 13.503 82.369 13.503 C 84.243 13.33 86.097 13.989 87.441 15.307 C 88.784 16.624 89.48 18.465 89.343 20.342 Z M 105.049 13.8 L 105.049 28.227 C 105.049 31.92 102.383 34.48 98.089 34.48 C 94.596 34.48 91.969 32.773 91.076 29.84 L 93.743 29 C 94.303 30.932 96.153 32.195 98.156 32.013 C 100.689 32.013 102.236 30.68 102.236 28.347 L 102.236 25 C 100.944 27.11 98.429 28.131 96.032 27.519 C 93.636 26.907 91.918 24.804 91.796 22.333 L 91.796 13.8 L 94.674 13.8 L 94.674 21.347 C 94.674 23.747 95.794 25.12 98.061 25.12 C 99.231 25.192 100.374 24.747 101.188 23.903 C 102.001 23.059 102.403 21.9 102.288 20.733 L 102.288 13.8 L 105.048 13.8 Z M 109.941 21.342 C 109.941 24.688 111.634 26.675 114.474 26.675 C 117.314 26.675 119.008 24.702 119.008 21.342 C 119.008 17.982 117.314 16.008 114.474 16.008 C 111.634 16.008 109.941 17.982 109.941 21.342 Z M 121.821 21.342 C 121.821 26.102 118.968 29.168 114.474 29.168 C 109.981 29.168 107.114 26.102 107.114 21.342 C 107.114 16.582 109.981 13.502 114.474 13.502 C 118.968 13.502 121.821 16.582 121.821 21.342 Z M 123.581 13.795 L 126.409 13.795 L 126.409 16.212 C 127.369 14.433 129.288 13.387 131.303 13.545 C 134.769 13.545 136.756 15.572 136.756 18.878 L 136.756 28.998 L 133.941 28.998 L 133.941 19.878 C 133.941 17.532 132.863 16.118 130.596 16.118 C 129.44 16.085 128.324 16.543 127.526 17.38 C 126.728 18.216 126.322 19.352 126.409 20.505 L 126.409 28.958 L 123.581 28.958 Z M 150.086 21.34 C 150.086 18.073 148.566 16.007 145.806 16.007 C 143.046 16.007 141.499 18.02 141.499 21.34 C 141.499 24.66 143.073 26.673 145.793 26.673 C 148.513 26.673 150.086 24.607 150.086 21.34 Z M 152.899 28.953 L 150.113 28.953 L 150.113 26.367 C 149.281 28.222 147.367 29.35 145.341 29.178 C 140.874 29.178 138.674 25.912 138.674 21.338 C 138.674 16.765 140.808 13.498 145.261 13.498 C 147.264 13.317 149.175 14.373 150.088 16.165 L 150.088 8.007 L 152.901 8.007 L 152.901 28.953 Z M 173.809 8.475 L 176.863 8.475 L 172.676 28.955 L 168.956 28.955 L 165.969 13.448 L 163.009 28.955 L 159.289 28.955 L 155.103 8.475 L 158.156 8.475 L 161.249 24.862 L 164.223 8.475 L 167.729 8.475 L 170.703 24.862 Z M 179.528 21.342 C 179.528 24.688 181.234 26.675 184.061 26.675 C 186.888 26.675 188.608 24.702 188.608 21.342 C 188.608 17.982 186.901 16.008 184.061 16.008 C 181.221 16.008 179.528 17.982 179.528 21.342 Z M 191.421 21.342 C 191.421 26.102 188.554 29.168 184.061 29.168 C 179.568 29.168 176.701 26.102 176.701 21.342 C 176.701 16.582 179.568 13.502 184.061 13.502 C 188.554 13.502 191.421 16.582 191.421 21.342 Z M 193.259 13.795 L 196.099 13.795 L 196.099 16.688 C 197.046 14.686 199.131 13.476 201.339 13.648 C 202.141 13.65 202.939 13.758 203.713 13.968 L 203.379 16.635 C 202.636 16.462 201.876 16.372 201.113 16.368 C 197.793 16.368 196.113 18.288 196.113 21.608 L 196.113 28.928 L 193.273 28.928 Z M 215.634 21.34 C 215.634 18.073 214.114 16.007 211.354 16.007 C 208.594 16.007 207.048 18.02 207.048 21.34 C 207.048 24.66 208.621 26.673 211.341 26.673 C 214.061 26.673 215.634 24.607 215.634 21.34 Z M 218.461 28.953 L 215.674 28.953 L 215.674 26.367 C 214.828 28.243 212.883 29.373 210.834 29.18 C 206.368 29.18 204.168 25.913 204.168 21.34 C 204.168 16.767 206.301 13.5 210.754 13.5 C 212.758 13.314 214.672 14.372 215.581 16.167 L 215.581 8.007 L 218.408 8.007 Z M 231.606 18.448 C 230.979 16.822 229.459 15.902 227.139 15.902 C 224.819 15.902 223.726 16.715 223.726 17.955 C 223.726 19.568 225.766 19.822 228.059 20.075 C 231.033 20.395 234.433 20.768 234.433 24.195 C 234.433 27.248 231.766 29.182 227.899 29.182 C 224.526 29.182 221.659 27.715 220.606 24.902 L 223.273 23.928 C 224.071 25.801 225.976 26.955 228.006 26.795 C 230.166 26.795 231.619 25.888 231.619 24.542 C 231.619 22.942 229.553 22.702 227.193 22.395 C 224.219 22.035 220.926 21.582 220.926 18.182 C 220.926 15.222 223.433 13.502 227.273 13.502 C 231.113 13.502 233.313 15.128 234.153 17.502 Z M 39.208 24.797 C 38.736 23.147 38.111 21.545 37.341 20.012 C 40.836 13.118 41.074 6.478 37.341 2.678 C 35.37 0.843 32.741 -0.119 30.051 0.012 C 28.289 0.034 26.538 0.303 24.851 0.812 C 23.182 1.283 21.561 1.908 20.008 2.678 C 16.961 1.048 13.582 0.136 10.129 0.012 L 10.049 0.012 C 7.345 -0.094 4.712 0.891 2.741 2.745 C 0.887 4.72 -0.097 7.356 0.008 10.063 C 0.121 13.54 1.034 16.944 2.674 20.012 C -0.766 26.905 -1.006 33.532 2.741 37.345 C 4.73 39.189 7.38 40.151 10.089 40.012 C 13.557 39.903 16.953 38.99 20.008 37.345 C 21.529 38.137 23.123 38.778 24.768 39.265 C 26.451 39.773 28.196 40.043 29.954 40.065 C 32.684 40.202 35.352 39.219 37.341 37.345 C 40.008 34.518 40.741 30.078 39.208 24.798 Z M 25.584 3.57 C 27.006 3.132 28.483 2.899 29.971 2.877 C 31.929 2.759 33.852 3.437 35.304 4.757 C 37.304 6.757 37.718 10.197 36.491 14.423 C 36.234 15.275 35.931 16.111 35.584 16.93 C 33.981 14.45 32.117 12.148 30.024 10.063 C 27.915 7.958 25.585 6.085 23.074 4.478 C 23.891 4.132 24.729 3.828 25.581 3.572 Z M 4.758 4.757 C 6.207 3.433 8.132 2.755 10.091 2.877 C 12.48 2.955 14.83 3.499 17.011 4.477 C 14.503 6.081 12.174 7.95 10.064 10.05 C 7.958 12.144 6.085 14.459 4.478 16.957 C 2.358 11.89 2.264 7.263 4.758 4.757 Z M 10.091 37.117 C 8.157 37.223 6.26 36.551 4.824 35.25 C 2.824 33.25 2.398 29.81 3.638 25.583 C 3.889 24.737 4.188 23.905 4.531 23.09 C 6.142 25.576 8.015 27.883 10.118 29.97 C 12.202 32.063 14.504 33.927 16.984 35.53 C 14.794 36.505 12.434 37.044 10.038 37.117 Z M 20.008 34.037 C 17.104 32.394 14.436 30.368 12.074 28.012 C 9.692 25.632 7.643 22.941 5.983 20.012 C 7.655 17.086 9.708 14.396 12.089 12.012 C 14.446 9.656 17.109 7.628 20.008 5.983 C 25.869 9.301 30.718 14.15 34.036 20.012 C 32.372 22.943 30.318 25.634 27.929 28.012 C 25.57 30.365 22.905 32.391 20.008 34.037 Z M 35.328 35.277 C 33.877 36.6 31.954 37.282 29.994 37.17 C 28.507 37.148 27.03 36.914 25.608 36.477 C 24.745 36.221 23.899 35.914 23.074 35.557 C 25.569 33.941 27.885 32.064 29.981 29.957 C 32.089 27.856 33.966 25.536 35.581 23.037 C 35.938 23.867 36.244 24.717 36.501 25.583 C 37.701 29.823 37.341 33.263 35.274 35.277 Z" fill="rgb(255, 255, 255)"></path></g></svg>