<svg width="53" height="56" viewBox="0 0 53 56" fill="none" xmlns="http://www.w3.org/2000/svg">
<g clip-path="url(#clip0_724_199)">
<path d="M13.9757 43.2859L5.62906 33.4834H2.03809V48.8179H5.53202V39.0155L13.8786 48.8179H17.4696V33.4834H13.9757V43.2859ZM47.071 33.4834L44.7418 43.2859L42.3154 33.4834H39.0155L36.5893 43.1888L34.357 33.4834H30.766L34.7452 48.8179H38.3361L40.6655 39.1125L43.0918 48.8179H46.5857V48.7209L50.565 33.4834H47.071Z" fill="currentColor"/>
<path d="M1.65039 53.5735C1.65039 52.2147 2.71797 51.1472 4.07674 51.1472C4.95021 51.1472 5.43549 51.3413 5.92075 51.8265L5.43549 52.4088C5.04727 52.1177 4.65906 51.9235 4.07674 51.9235C3.20325 51.9235 2.52388 52.7 2.52388 53.5735C2.52388 54.544 3.20325 55.3204 4.17378 55.3204C4.65906 55.3204 5.04727 55.2234 5.33843 54.9323V54.0587H4.07674V53.3794H6.11487V55.4175C5.62959 55.8057 4.95021 56.194 4.17378 56.194C2.71797 55.9998 1.65039 54.9323 1.65039 53.5735Z" fill="currentColor"/>
<path d="M6.69629 53.5735C6.69629 52.2147 7.76385 51.1472 9.21971 51.1472C10.6755 51.1472 11.7431 52.2147 11.7431 53.5735C11.7431 54.9323 10.6755 55.9998 9.21971 55.9998C7.66683 55.9998 6.69629 54.9323 6.69629 53.5735ZM10.7725 53.5735C10.7725 52.6029 10.0932 51.8265 9.12262 51.8265C8.15206 51.8265 7.47272 52.6029 7.47272 53.4764C7.47272 54.4469 8.15206 55.1264 9.12262 55.1264C10.0932 55.2234 10.7725 54.4469 10.7725 53.5735Z" fill="currentColor"/>
<path d="M11.5498 51.1472H12.5204L13.8792 54.8352L15.335 51.1472H16.3054L14.2673 55.9998H13.588L11.5498 51.1472Z" fill="currentColor"/>
<path d="M16.79 51.1472H20.3811V51.9235H17.6635V53.1852H20.0899V53.8646H17.6635V55.2234H20.3811V55.9028H16.79V51.1472Z" fill="currentColor"/>
<path d="M21.1585 51.1472H23.2937C23.8761 51.1472 24.3613 51.3413 24.6525 51.6323C24.9437 51.9235 25.0408 52.2147 25.0408 52.7C25.0408 53.4764 24.5554 53.9617 23.8761 54.1558L25.1378 55.9998H24.1672L23.0026 54.3499H21.935V55.9998H21.0615V51.1472H21.1585ZM23.2937 53.4764C23.8761 53.4764 24.2643 53.1852 24.2643 52.7C24.2643 52.2147 23.8761 51.9235 23.2937 51.9235H22.032V53.4764H23.2937Z" fill="currentColor"/>
<path d="M25.8164 51.1472H26.5928L29.1161 54.4469V51.1472H29.9896V55.9028H29.3102L26.5928 52.5059V55.9028H25.8164V51.1472Z" fill="currentColor"/>
<path d="M30.7656 51.1472H31.7362L33.192 53.3794L34.5507 51.1472H35.5213V55.9028H34.6478V52.5059L33.192 54.7381H33.0949L31.6391 52.5059V55.9028H30.7656V51.1472Z" fill="currentColor"/>
<path d="M36.2988 51.1472H39.7927V51.9235H37.1722V53.1852H39.5016V53.8646H37.1722V55.2234H39.8898V55.9028H36.2988V51.1472Z" fill="currentColor"/>
<path d="M40.666 51.1472H41.4424L43.9658 54.4469V51.1472H44.8392V55.9028H44.16L41.5395 52.5059V55.9028H40.666V51.1472Z" fill="currentColor"/>
<path d="M46.9734 51.9235H45.5176V51.1472H49.3027V51.9235H47.8468V55.9028H46.9734V51.9235Z" fill="currentColor"/>
<path d="M18.3438 46.6827L20.3819 44.2565C21.7407 45.421 23.2935 46.1975 25.0405 46.1975C26.3992 46.1975 27.2727 45.6151 27.2727 44.7418C27.2727 43.8682 26.6903 43.383 24.167 42.8006C21.0612 42.0242 19.0231 41.1507 19.0231 38.0449C19.0231 35.2304 21.2554 33.3864 24.4582 33.3864C26.6903 33.3864 28.6315 34.0658 30.2814 35.3275L28.5344 37.948C27.1756 36.9774 25.8169 36.3951 24.4582 36.3951C23.0994 36.3951 22.42 36.9774 22.42 37.7539C22.42 38.8214 23.0994 39.1126 25.817 39.7919C29.0197 40.5684 30.7666 41.7331 30.7666 44.4506C30.7666 47.5563 28.4374 49.3032 25.0405 49.3032C22.6141 49.2062 20.2848 48.3327 18.3438 46.6827Z" fill="currentColor"/>
<path d="M10.2879 4.27042C9.99681 4.27042 9.80269 4.46451 9.70561 4.85273C9.70561 4.85273 9.60858 5.43505 9.51149 6.4056C9.41448 7.27908 9.31738 8.63786 9.31738 10.2878C9.31738 13.9758 9.80269 19.2166 12.1319 23.2929C13.879 26.3986 16.4023 28.1456 19.2169 28.1456C18.1493 27.2721 16.7905 25.9133 16.1111 23.7783C15.4319 21.7401 15.1407 19.3137 15.1407 16.5963C15.1407 12.9082 15.723 9.60834 15.9171 8.73488C16.0142 8.24964 16.3052 7.76432 16.6935 7.57022C13.879 5.72621 11.4526 4.65862 10.9674 4.46451C10.6762 4.36746 10.5791 4.27042 10.482 4.27042C10.482 4.36746 10.385 4.27042 10.2879 4.27042Z" fill="currentColor"/>
<path d="M34.4541 8.63788C34.357 8.63788 34.2599 8.63788 34.2599 8.73497C34.2599 8.73497 34.1629 8.832 33.9688 8.92908C33.7747 9.0261 33.5806 9.22021 33.2894 9.51141C32.9012 9.89963 32.0278 10.6761 30.9602 11.8406C29.3103 13.5876 27.2721 16.4022 26.2045 19.702C25.6221 21.6431 25.3311 23.293 25.3311 24.5546C25.3311 25.5252 25.5252 26.3987 25.8162 27.0781C26.1074 27.7575 26.5927 28.2428 27.2721 28.5339C27.5632 28.631 27.8544 28.728 28.3397 28.728C30.2808 28.728 33.4835 27.0781 34.6482 23.4872C35.2305 21.5461 35.5217 19.2167 35.5217 16.6934C35.5217 13.4906 35.0364 10.6761 34.8423 9.60844C34.7453 9.22021 34.7452 9.0261 34.7452 9.0261C34.7452 8.83199 34.6482 8.63788 34.4541 8.63788Z" fill="currentColor"/>
<path d="M17.3732 8.63788C17.1792 8.63788 17.0822 8.83199 17.0822 9.0261C17.0822 9.0261 16.9851 9.22021 16.9851 9.60844C16.888 9.89964 16.791 10.482 16.6939 11.2583C16.4998 12.5201 16.3057 14.4611 16.3057 16.6934C16.3057 19.3138 16.5968 21.6431 17.1792 23.4872C18.3438 27.0781 21.6436 28.728 23.6818 28.728C24.07 28.728 24.4581 28.631 24.7493 28.5339C24.9434 28.4369 25.0404 28.3398 25.2346 28.2428C25.0404 28.0487 24.9434 27.8546 24.8463 27.5634C24.4581 26.787 24.264 25.8164 24.264 24.5546C24.264 23.0989 24.5552 21.2549 25.2346 19.3138C25.3316 19.1197 25.3316 18.9256 25.4287 18.7315C25.4287 18.6344 25.5257 18.6344 25.5257 18.5374C23.3906 13.2965 18.5379 9.3173 17.9555 8.83199C17.7614 8.83199 17.6643 8.73497 17.6643 8.73497C17.5673 8.63788 17.4702 8.63788 17.3732 8.63788Z" fill="currentColor"/>
<path d="M25.9129 0C25.8159 0 25.7188 0.0970536 25.5247 0.291162C25.5247 0.291162 25.4277 0.485269 25.2337 0.679376C24.9425 1.06759 24.7484 1.45581 24.5541 1.84402C24.069 2.81456 23.1955 4.27037 22.4191 6.11439C21.8367 7.37611 21.3514 8.73481 20.8662 10.0936C22.4191 11.6464 24.5541 14.1698 26.01 17.0815C27.0776 14.7522 28.7275 12.4229 30.9598 10.1907C29.504 5.72617 27.3687 2.03813 26.5923 0.679376C26.3982 0.388216 26.3012 0.291162 26.3012 0.291162C26.107 0 25.9129 0 25.9129 0V0Z" fill="currentColor"/>
<path d="M41.5393 4.27042C41.4422 4.27042 41.3452 4.27042 41.2481 4.36746C41.2481 4.36746 41.054 4.46451 40.8599 4.56157C40.5688 4.65862 40.1805 4.85273 39.7924 5.04683L39.5983 5.14389C38.2395 5.82327 36.7837 6.59969 35.522 7.37611C35.3279 7.4732 35.2308 7.57022 35.0367 7.66731C35.4249 7.86142 35.7161 8.24964 35.8131 8.83196V8.92899C36.0072 9.80244 36.5896 13.0052 36.5896 16.7904C36.5896 19.5078 36.2984 21.8371 35.619 23.9724C34.9397 26.1074 33.678 27.4662 32.6104 28.3397C35.3279 28.2427 37.8513 26.4957 39.5983 23.4871C41.9275 19.4108 42.4128 14.1699 42.4128 10.4819C42.4128 9.22012 42.3158 7.86142 42.2187 6.59969C42.1217 5.62916 42.0246 5.14389 42.0246 5.04683C42.0246 4.46451 41.8305 4.27042 41.5393 4.27042Z" fill="currentColor"/>
<path d="M33.8709 1.16486H33.7739C33.6768 1.16486 33.5798 1.16486 33.4827 1.26192C33.4827 1.26192 32.9003 1.65012 31.9298 2.3295C31.4446 2.71771 30.5712 3.30003 29.6006 4.17352C30.28 5.72638 30.9594 7.18222 31.5417 8.73504C32.7062 7.76448 34.065 6.89103 35.5208 6.01755C35.1327 3.88236 34.6474 2.3295 34.4532 1.74718C34.3562 1.35896 34.1621 1.16486 33.8709 1.16486Z" fill="currentColor"/>
<path d="M17.9555 1.16486C17.6643 1.16486 17.4702 1.35896 17.3732 1.65012C17.1792 2.23245 16.6939 3.78531 16.3057 5.92049C17.7614 6.89102 19.0231 7.76448 20.1878 8.73504C20.673 7.27924 21.3525 5.72638 22.1289 4.17352C21.3525 3.49414 20.576 2.91182 19.7996 2.3295C18.829 1.65012 18.2467 1.26192 18.2467 1.26192C18.1496 1.16486 18.0526 1.16486 17.9555 1.16486Z" fill="currentColor"/>
<path d="M4.46466 11.161C3.68823 11.161 3.20296 11.161 3.20296 11.161C2.9118 11.161 2.62064 11.3551 2.42653 11.6463C2.32948 11.8404 2.23242 12.0345 2.23242 12.2287C2.32948 12.811 2.62064 14.7521 5.04698 17.8578C6.30868 17.2754 7.47336 16.6932 8.63795 16.305C8.34682 14.7521 8.24972 13.1021 8.24972 11.3551C6.79395 11.2581 5.6293 11.161 4.94992 11.161C4.75583 11.161 4.65877 11.161 4.46466 11.161Z" fill="currentColor"/>
<path d="M47.3624 11.161C47.2654 11.161 47.0713 11.161 46.9742 11.161C46.2948 11.161 45.1302 11.2581 43.6744 11.3551C43.6744 13.0051 43.4802 14.655 43.2861 16.305C44.4508 16.7902 45.7125 17.2754 46.8772 17.8578C49.3036 14.8491 49.6917 12.811 49.6917 12.2287C49.6917 12.0345 49.5946 11.7433 49.4977 11.6463C49.3036 11.3551 49.0124 11.161 48.7212 11.161C48.6241 11.161 48.1389 11.161 47.3624 11.161Z" fill="currentColor"/>
<path d="M42.8974 17.3726C42.4121 19.8959 41.6356 22.0311 40.568 23.7781C39.5004 25.6221 38.1417 27.0779 36.5889 28.0484C48.0412 27.4661 51.244 23.7781 51.5352 23.2928C51.6321 23.0987 51.7293 22.9046 51.7293 22.7105C51.7293 22.4193 51.5352 22.0311 51.3411 21.837C51.3411 21.837 51.244 21.7399 50.9529 21.5458C50.7587 21.4488 50.4675 21.2547 50.1764 21.0606C50.0793 20.9635 49.9823 20.9635 49.8852 20.8664C49.1088 20.3812 47.75 19.5077 46.1001 18.7312C45.1295 18.246 43.965 17.7608 42.8974 17.3726Z" fill="currentColor"/>
<path d="M8.92892 17.3726C5.04679 18.8283 1.94107 20.8664 0.776433 21.6429C0.582323 21.837 0.388216 21.934 0.388216 21.934C0.194107 22.1281 0 22.4193 0 22.8076C0 23.0017 0.0970536 23.1958 0.194107 23.3899C0.194107 23.3899 0.194107 23.4869 0.291162 23.4869V23.584C0.388216 23.681 0.582323 23.8752 0.873481 24.0693C1.35875 24.4575 2.23224 25.1368 3.59099 25.7191C6.5026 26.9808 10.4818 27.8543 15.1404 28.1455C13.5875 27.1749 12.2288 25.7191 11.1611 23.8752C10.1907 22.0311 9.41423 19.8959 8.92892 17.3726Z" fill="currentColor"/>
<path d="M41.5394 28.9218C40.9571 28.9218 40.0836 29.0189 38.8219 29.213C38.6278 29.213 38.4337 29.3101 38.2396 29.3101C37.6572 29.407 36.9779 29.407 36.0073 29.407C35.4251 29.407 34.8427 29.407 34.2604 29.407H34.1633C33.581 29.407 32.9016 29.407 32.2222 29.407C30.8634 29.407 29.0194 29.5042 27.3696 29.8923C27.2725 29.8923 27.2725 29.9893 27.2725 30.0864C27.2725 30.1834 27.3696 30.1834 27.4666 30.1834H27.5637C28.2429 30.0864 28.8253 30.0864 29.4076 30.0864C31.4458 30.0864 32.9016 30.4746 34.2604 30.7658C35.522 31.057 36.7837 31.4451 38.4337 31.4451C40.2777 31.4451 41.6365 31.057 42.3159 30.3776C42.5099 30.1834 42.6069 29.8923 42.6069 29.6982C42.4128 29.116 42.3159 28.9218 41.5394 28.9218Z" fill="currentColor"/>
<path d="M10.2879 28.9218C9.51149 28.9218 9.31738 29.116 9.31738 29.6011C9.31738 29.8923 9.41448 30.0864 9.60858 30.2805C10.1909 30.9599 11.6467 31.3481 13.4907 31.3481C15.1407 31.3481 16.4023 31.057 17.664 30.6688C19.0228 30.2805 20.4786 29.9893 22.5168 29.9893C23.0991 29.9893 23.6813 29.9893 24.3607 30.0864H24.4578C24.5548 30.0864 24.6519 30.0864 24.6519 29.9893C24.6519 29.8923 24.5548 29.8923 24.5548 29.7952C23.0019 29.3101 21.158 29.3101 19.7022 29.3101C19.0228 29.3101 18.3434 29.3101 17.761 29.3101H17.664C17.0817 29.3101 16.4993 29.3101 15.9171 29.3101C14.9465 29.3101 14.2672 29.3101 13.6848 29.213C13.4907 29.213 13.2966 29.116 13.1025 29.116C11.7438 29.0189 10.8703 28.9218 10.2879 28.9218Z" fill="currentColor"/>
</g>
<defs>
<clipPath id="clip0_724_199">
<rect width="52.528" height="56" fill="white"/>
</clipPath>
</defs>
</svg>
