<svg xmlns="http://www.w3.org/2000/svg" width="57" height="15" viewBox="8 29 57 15" fill="none"><path d="M 48.779 33.061 L 45.03 33.061 L 45.03 34.736 L 48.779 34.733 L 48.779 36.997 L 45.03 36.997 L 45.03 38.856 L 48.779 38.856 L 48.779 41.976 L 41.136 41.976 L 41.136 30.029 L 48.779 30.029 Z" fill="currentColor"/><path d="M 56.914 29.045 C 54.497 33.317 49.741 41.976 49.741 41.976 L 53.816 41.976 L 54.478 40.676 L 59.345 40.676 L 59.989 41.976 L 64.094 41.976 Z M 55.422 38.702 C 55.422 38.71 56.914 35.637 56.914 35.637 C 56.914 35.637 58.378 38.71 58.378 38.702 Z" fill="currentColor"/><path d="M 33.665 35.383 L 36.339 30.029 L 40.496 30.029 C 40.511 30.029 33.665 42.865 33.665 42.865 L 26.844 30.029 L 31.004 30.029 C 31.004 30.029 33.454 35.01 33.665 35.383 Z M 26.204 41.978 L 22.307 41.978 L 22.307 30.029 C 22.307 30.029 26.206 30.043 26.206 30.029 L 26.206 41.976 Z M 14.884 34.651 L 14.884 30.027 L 18.782 30.027 L 18.782 42.865 L 12.451 37.348 L 12.451 41.976 L 8.547 41.976 L 8.547 29.123 Z" fill="currentColor"/></svg>
