<svg viewBox="0 0 156 48" fill="none" xmlns="http://www.w3.org/2000/svg">
<g clip-path="url(#clip0_724_400)">
<path fill-rule="evenodd" clip-rule="evenodd" d="M8.87702 28.472L20.7846 16.4244L23.2384 18.9064L11.3278 30.9519L8.87702 28.472ZM32.3792 20.0185L12.5917 0.00442505L8.59011 4.05209L16.0095 11.5569L0 27.7495L19.7865 47.7646L23.7881 43.7169L16.3687 36.2081L32.3792 20.0185Z" fill="currentColor"/>
<path fill-rule="evenodd" clip-rule="evenodd" d="M46.0191 5.81866V11.9505H52.6038V15.4919H46.0191V29.2878C46.0191 32.4608 46.9069 34.2578 49.4679 34.2578C50.7219 34.2578 51.4542 34.1513 52.1334 33.9412L52.342 37.4826C51.4542 37.7992 50.0428 38.1168 48.2661 38.1168C46.1234 38.1168 44.3989 37.375 43.3015 36.1604C42.0475 34.7337 41.5249 32.4608 41.5249 29.4461V15.4919H37.6045V11.9505H41.5249V7.19258L46.0191 5.81866Z" fill="currentColor"/>
<path fill-rule="evenodd" clip-rule="evenodd" d="M57.3269 24.7947C57.3269 30.3989 60.4618 34.6262 64.957 34.6262C69.3468 34.6262 72.6392 30.4507 72.6392 24.6892C72.6392 20.3543 70.4954 14.9104 65.0613 14.9104C59.6783 14.9104 57.3269 19.985 57.3269 24.7947ZM77.342 24.5309C77.342 33.992 70.8094 38.1168 64.7483 38.1168C57.9538 38.1168 52.624 33.0412 52.624 24.954C52.624 16.4437 58.2157 11.4219 65.1666 11.4219C72.4295 11.4219 77.342 16.7602 77.342 24.5309Z" fill="currentColor"/>
<path fill-rule="evenodd" clip-rule="evenodd" d="M84.1779 27.1214C84.1779 27.8094 84.23 28.4436 84.3875 29.024C85.2242 32.2487 87.9919 34.4679 91.2863 34.4679C96.1446 34.4679 98.9665 30.4507 98.9665 24.5836C98.9665 19.5091 96.3021 15.1215 91.4428 15.1215C88.3059 15.1215 85.3275 17.3427 84.4908 20.8302C84.3344 21.4117 84.1779 22.0996 84.1779 22.68V27.1214ZM79.6315 20.3026C79.6315 17.0251 79.5262 14.3818 79.4229 11.9505H83.4977L83.7605 16.3371H83.8639C85.6936 13.2189 88.7252 11.4219 92.8532 11.4219C99.0197 11.4219 103.618 16.6547 103.618 24.3715C103.618 33.5699 98.0256 38.1168 92.0698 38.1168C88.7252 38.1168 85.798 36.6363 84.2812 34.0995H84.1779V48H79.6315V20.3026Z" fill="currentColor"/>
<path fill-rule="evenodd" clip-rule="evenodd" d="M112.397 5.81866V11.9505H118.981V15.4919H112.397V29.2878C112.397 32.4608 113.285 34.2578 115.846 34.2578C117.1 34.2578 117.83 34.1513 118.51 33.9412L118.72 37.4826C117.83 37.7992 116.42 38.1168 114.643 38.1168C112.501 38.1168 110.777 37.375 109.679 36.1604C108.424 34.7337 107.903 32.4608 107.903 29.4461V15.4919H103.982V11.9505H107.903V7.19258L112.397 5.81866Z" fill="currentColor"/>
<path fill-rule="evenodd" clip-rule="evenodd" d="M135.473 24.4781C130.456 24.3716 124.761 25.2706 124.761 30.2406C124.761 33.305 126.745 34.6799 129.045 34.6799C132.39 34.6799 134.533 32.5653 135.264 30.3989C135.421 29.8702 135.473 29.3406 135.473 28.9184V24.4781ZM139.915 31.4024C139.915 33.6236 140.02 35.79 140.28 37.5343H136.152L135.787 34.3096H135.631C134.217 36.3187 131.502 38.1168 127.896 38.1168C122.773 38.1168 120.162 34.4679 120.162 30.7683C120.162 24.5836 125.597 21.2006 135.368 21.2534V20.7257C135.368 18.6628 134.794 14.8049 129.619 14.8577C127.215 14.8577 124.761 15.5446 122.983 16.7602L121.939 13.6421C124.027 12.3199 127.111 11.4219 130.299 11.4219C138.035 11.4219 139.915 16.7602 139.915 21.8348V31.4024Z" fill="currentColor"/>
<path fill-rule="evenodd" clip-rule="evenodd" d="M143.323 37.5343H147.922V0.00442505H143.323V37.5343Z" fill="currentColor"/>
<path fill-rule="evenodd" clip-rule="evenodd" d="M153.211 4.8C151.886 4.8 150.811 3.72453 150.811 2.4C150.811 1.06415 151.886 0 153.211 0C154.546 0 155.611 1.06415 155.611 2.4C155.611 3.72453 154.546 4.8 153.211 4.8ZM153.211 0.339623C152.067 0.339623 151.139 1.24528 151.139 2.4C151.139 3.53208 152.067 4.4717 153.211 4.4717C154.354 4.4717 155.271 3.53208 155.271 2.4C155.271 1.24528 154.354 0.339623 153.211 0.339623ZM153.867 3.78113L153.154 2.69434H152.656V3.78113H152.294V1.03019H153.414C153.89 1.03019 154.286 1.35849 154.286 1.86792C154.286 2.47925 153.743 2.68302 153.584 2.68302L154.32 3.78113H153.867ZM153.414 1.35849H152.656V2.35472H153.414C153.675 2.35472 153.912 2.15094 153.912 1.86792C153.912 1.56226 153.675 1.35849 153.414 1.35849Z" fill="currentColor"/>
</g>
<defs>
<clipPath id="clip0_724_400">
<rect width="155.676" height="48" fill="white"/>
</clipPath>
</defs>
</svg>
