<svg width="132" height="32" viewBox="0 0 132 32" fill="none" xmlns="http://www.w3.org/2000/svg">
<g clip-path="url(#clip0_724_335)">
<path fill-rule="evenodd" clip-rule="evenodd" d="M57.9891 3.51477C55.7387 1.2643 52.6864 -5.63636e-06 49.5038 0H32V32H44V12H47.8469C48.9086 11.9999 49.9269 12.4213 50.6781 13.1715L54.8229 17.3136C55.5746 18.0632 55.998 19.0805 56 20.1421V32H68V18.4852C67.9979 15.302 66.7317 12.2499 64.4798 10L57.9891 3.51477Z" fill="currentColor"/>
<path fill-rule="evenodd" clip-rule="evenodd" d="M120 0V11.8579C119.998 12.9194 119.575 13.9368 118.823 14.6863L114.675 18.8284C113.925 19.5786 112.908 20 111.847 20H106.083C107.331 18.0672 107.997 15.8157 108 13.5146V0H96V11.8579C95.998 12.9194 95.5746 13.9368 94.8229 14.6863L90.6752 18.8284C89.9251 19.5786 88.9077 20 87.8468 20H84V0H72V32H89.5038C92.6872 32 95.7404 30.7358 97.9918 28.4852L102 24.4788V32H113.504C116.687 32 119.74 30.7358 121.992 28.4852L128.48 21.9999C130.732 19.75 131.998 16.6979 132 13.5146V0H120Z" fill="currentColor"/>
<path fill-rule="evenodd" clip-rule="evenodd" d="M0 12H8V32H20V12H28V0H0V12Z" fill="currentColor"/>
</g>
<defs>
<clipPath id="clip0_724_335">
<rect width="132" height="32" fill="white"/>
</clipPath>
</defs>
</svg>
