<svg xmlns="http://www.w3.org/2000/svg" width="72" height="72" fill="none"><g transform="translate(0.205 0.205)"><path d="M 35.795 0 C 55.51 0 71.589 16.079 71.589 35.794 C 71.589 55.509 55.51 71.589 35.795 71.589 C 16.08 71.589 0 55.509 0 35.794 C 0 16.079 16.08 0 35.795 0 Z M 35.795 1.426 C 16.865 1.426 1.426 16.865 1.426 35.794 C 1.426 54.724 16.865 70.162 35.795 70.162 C 54.724 70.162 70.163 54.724 70.163 35.794 C 70.163 16.865 54.724 1.426 35.795 1.426 Z" fill="rgb(255, 255, 255)"></path><path d="M 23.223 51.05 C 20.982 49.199 19.152 46.864 17.896 44.208 C 16.688 41.651 16.012 38.798 16.012 35.794 C 16.012 24.898 24.899 16.011 35.795 16.011 C 46.691 16.011 55.579 24.898 55.579 35.794 C 55.579 38.798 54.902 41.652 53.694 44.208 C 52.438 46.864 50.609 49.199 48.367 51.05 L 47.914 50.501 C 50.076 48.715 51.84 46.464 53.051 43.905 C 54.214 41.442 54.866 38.692 54.866 35.794 C 54.866 25.29 46.299 16.723 35.796 16.723 C 25.292 16.723 16.725 25.29 16.725 35.794 C 16.725 38.692 17.377 41.442 18.541 43.905 C 19.75 46.463 21.515 48.715 23.677 50.501 Z" fill="rgb(255, 255, 255)"></path><g transform="translate(3.794 4.918)"><path d="M 32.12 49.145 L 28.069 42.963 C 29.313 42.323 29.159 40.326 28.093 40.159 C 26.906 39.974 25.962 39.916 25.129 38.051 L 27.059 38.051 L 26.467 36.433 C 24.259 36.627 23.808 36.014 22.761 34.289 L 25.519 34.194 L 24.962 32.786 C 21.956 32.926 21.163 32.189 20.412 30.476 L 23.915 30.353 L 23.156 28.678 C 19.57 28.778 18.811 28.677 17.495 26.251 L 21.951 26.23 L 21.322 24.634 C 17.261 24.809 16.247 24.412 15.098 22.381 L 24.226 22.15 C 25.556 22.116 27.075 23.023 27.635 24.229 L 28.732 26.598 L 29.887 22.612 C 30.483 20.558 34.971 21.302 36.416 22.669 L 33.701 23.651 L 35.029 26.886 C 35.992 24.633 37.172 22.149 39.709 22.149 L 48.664 22.149 C 47.975 24.127 46.312 25.114 42.696 24.474 L 42.061 26.149 L 46.527 26.135 C 45.458 28.627 44.272 28.94 40.95 28.562 L 40.257 30.237 L 43.812 30.353 C 43.128 31.932 41.89 32.876 39.145 32.547 L 38.568 34.178 L 41.398 34.165 C 40.587 36.149 40.063 36.592 37.483 36.476 L 36.892 38.093 L 38.931 38.101 C 38.074 39.828 37.82 40.033 35.99 40.195 C 34.903 40.292 34.418 42.033 35.866 43.065 Z M 1.35 42.824 L 0 39.202 L 0.738 38.946 L 6.924 39.889 L 5.977 37.349 L 6.715 37.093 L 7.95 40.409 L 7.213 40.666 L 1.027 39.724 L 2.087 42.568 Z M 3.705 47.762 L 3.332 47.039 L 6.242 45.542 L 5.319 43.747 L 2.409 45.244 L 2.036 44.521 L 8.257 41.321 L 8.629 42.045 L 6.009 43.392 L 6.933 45.187 L 9.553 43.839 L 9.924 44.564 Z M 6.655 51.703 L 4.445 48.617 L 10.279 44.994 L 12.381 47.929 L 11.733 48.332 L 10.129 46.092 L 8.32 47.215 L 9.794 49.273 L 9.146 49.676 L 7.672 47.617 L 5.591 48.911 L 7.303 51.301 Z M 11.612 56.554 L 10.872 55.929 L 15.166 50.654 L 15.907 51.279 Z M 14.939 58.878 L 15.818 57.008 L 14.752 56.236 L 13.165 57.781 L 12.44 57.221 L 17.473 52.247 L 18.483 52.863 L 15.802 59.364 Z M 16.224 56.093 L 17.274 53.683 L 17.177 53.603 L 15.362 55.45 Z M 19.983 61.317 L 19.074 60.894 L 19.604 56.041 L 17.616 60.121 L 16.709 59.704 L 19.864 53.456 L 20.683 53.836 L 20.302 58.447 L 22.353 54.64 L 23.116 54.957 Z M 24.681 62.718 L 24.095 62.527 L 24.149 61.977 C 24.012 62.095 23.83 62.17 23.604 62.204 C 23.377 62.239 23.15 62.218 22.92 62.143 C 22.435 61.986 22.077 61.605 21.845 61.002 C 21.613 60.399 21.659 59.569 21.984 58.513 C 22.34 57.359 22.778 56.555 23.298 56.103 C 23.817 55.652 24.607 55.4 25.306 55.623 C 26.058 55.863 26.546 56.788 26.33 58.068 L 25.432 57.994 C 25.587 57.446 25.508 56.591 24.972 56.417 C 24.539 56.276 24.052 56.409 23.743 56.755 C 23.433 57.101 23.132 57.752 22.837 58.711 C 22.557 59.619 22.479 60.282 22.603 60.702 C 22.727 61.121 22.94 61.379 23.238 61.476 C 23.538 61.574 23.81 61.535 24.055 61.357 C 24.299 61.18 24.498 60.845 24.649 60.355 L 24.774 59.95 L 23.703 59.6 L 23.919 58.901 L 25.681 59.476 Z M 33.986 61.177 C 33.966 61.806 33.797 62.3 33.482 62.656 C 33.167 63.013 32.68 63.178 32.022 63.153 C 31.366 63.128 30.891 62.927 30.599 62.548 C 30.308 62.168 30.171 61.663 30.191 61.034 L 30.346 56.268 L 31.185 56.299 L 31.031 61.065 C 31.016 61.511 31.104 61.843 31.292 62.061 C 31.48 62.278 31.732 62.393 32.047 62.406 C 32.363 62.417 32.622 62.321 32.824 62.119 C 33.025 61.916 33.133 61.592 33.148 61.145 L 33.302 56.38 L 34.141 56.411 Z M 38.762 62.449 L 38.013 62.562 L 35.653 58.014 L 36.014 62.897 L 35.124 63.024 L 34.602 56.178 L 35.626 56.083 L 37.572 59.273 L 37.211 55.839 L 37.954 55.712 Z M 41.32 61.732 L 40.442 61.998 L 38.617 55.517 L 39.495 55.251 Z M 43.687 53.519 L 44.797 60.674 L 43.931 61.101 L 40.141 55.028 L 40.975 54.677 L 43.61 58.818 L 42.879 53.871 Z M 50.726 57.575 L 47.527 59.304 L 44.045 53.325 L 47.087 51.681 L 47.474 52.345 L 45.153 53.599 L 46.233 55.453 L 48.365 54.301 L 48.752 54.965 L 46.619 56.117 L 47.861 58.25 L 50.339 56.912 Z M 54.37 55.02 L 53.666 55.621 L 51.188 53.568 L 50.547 54.148 L 52.222 56.426 L 51.518 57.163 L 47.416 51.404 L 48.724 50.467 C 49.142 50.167 49.692 49.953 50.187 50.012 C 51.464 50.164 52.01 51.025 51.951 52.025 C 51.933 52.341 51.915 52.649 51.791 52.962 Z M 49.949 50.963 C 49.428 50.821 49.018 51.224 48.643 51.517 L 50.007 53.317 C 50.423 53.017 50.617 52.952 50.933 52.408 C 51.069 51.755 50.777 51.189 49.949 50.963 Z" fill="rgb(255, 255, 255)"></path><path d="M 56.582 49.46 C 58.012 50.319 57.679 52.756 55.799 53.041 C 55.294 53.118 54.699 52.965 54.444 52.803 L 54.765 52.074 C 55.074 52.143 55.388 52.255 55.685 52.199 C 56.903 51.967 56.849 50.702 56.139 50.177 C 55.892 49.995 55.538 49.971 55.245 50.004 C 54.423 50.096 53.897 50.709 52.982 50.766 C 51.983 50.829 51.287 50.219 51.124 49.247 C 51.037 48.731 51.16 48.231 51.416 47.829 C 51.945 47.001 53.068 46.889 53.886 47.372 L 53.567 48.124 C 53.125 47.889 52.34 47.89 52.045 48.352 C 51.891 48.594 51.837 48.841 51.884 49.093 C 51.986 49.643 52.362 49.961 52.89 49.898 C 53.778 49.789 54.378 49.06 55.251 49.088 C 55.668 49.102 56.161 49.207 56.582 49.46 Z M 59.598 48.571 L 59.083 49.203 L 53.187 45.506 L 53.702 44.874 Z M 56.623 41.113 L 55.97 42.322 L 61.539 45.597 L 61.164 46.292 L 55.596 43.017 L 54.943 44.226 L 54.248 43.817 L 55.927 40.704 Z M 57.643 36.513 L 61.04 39.549 L 63.307 40.52 L 63.031 41.284 L 60.93 40.471 L 56.093 40.359 L 56.325 39.584 L 59.701 39.639 L 57.31 37.439 Z M 11.091 53.508 C 10.491 54.106 9.93 54.415 9.409 54.432 C 8.889 54.45 8.418 54.243 7.995 53.811 C 7.609 53.419 7.418 52.961 7.422 52.438 C 7.424 52.173 7.502 51.9 7.653 51.62 L 8.417 52.087 C 8.352 52.22 8.318 52.346 8.315 52.467 C 8.307 52.752 8.395 52.989 8.579 53.176 C 8.837 53.439 9.107 53.557 9.391 53.534 C 9.674 53.51 10.02 53.296 10.427 52.891 L 13.827 49.525 L 14.461 50.171 Z M 22.66 52.329 L 20.277 50.85 L 20.493 50.476 L 21.378 51.026 L 22.796 48.558 L 21.91 48.008 L 22.103 47.673 C 22.438 47.881 22.705 47.999 22.905 48.024 C 23.103 48.049 23.271 47.971 23.406 47.784 L 23.915 48.098 L 22.01 51.416 L 22.876 51.952 Z M 29.768 50.823 C 29.806 50.633 29.74 50.462 29.57 50.307 C 29.398 50.154 29.138 50.053 28.789 50.004 C 28.469 49.96 28.198 49.981 27.971 50.066 C 27.743 50.15 27.61 50.288 27.571 50.482 C 27.542 50.623 27.571 50.748 27.655 50.859 C 27.739 50.97 27.877 51.079 28.069 51.185 C 28.198 51.251 28.327 51.315 28.458 51.377 C 28.633 51.457 28.792 51.527 28.939 51.58 C 29.22 51.49 29.419 51.381 29.538 51.263 C 29.656 51.142 29.736 50.989 29.768 50.823 Z M 29.459 52.958 C 29.494 52.782 29.469 52.639 29.386 52.521 C 29.299 52.403 29.118 52.272 28.837 52.124 C 28.715 52.061 28.591 52.004 28.464 51.953 C 28.287 51.879 28.11 51.803 27.934 51.727 C 27.67 51.798 27.458 51.9 27.298 52.034 C 27.138 52.168 27.038 52.334 26.999 52.528 C 26.947 52.785 27.024 53.009 27.229 53.21 C 27.434 53.409 27.716 53.536 28.077 53.584 C 28.446 53.637 28.756 53.605 29.006 53.494 C 29.258 53.381 29.409 53.203 29.459 52.958 Z M 27.981 54.007 C 27.656 53.96 27.366 53.889 27.112 53.789 C 26.858 53.69 26.65 53.57 26.486 53.424 C 26.325 53.286 26.213 53.133 26.15 52.962 C 26.087 52.798 26.072 52.619 26.107 52.446 C 26.154 52.218 26.291 52.021 26.519 51.855 C 26.747 51.689 27.052 51.575 27.435 51.51 L 27.439 51.494 C 27.141 51.328 26.929 51.164 26.802 50.998 C 26.677 50.832 26.636 50.642 26.68 50.427 C 26.745 50.106 26.985 49.868 27.399 49.708 C 27.814 49.547 28.308 49.507 28.879 49.586 C 29.475 49.669 29.931 49.836 30.248 50.09 C 30.566 50.339 30.692 50.623 30.629 50.935 C 30.591 51.125 30.468 51.301 30.259 51.462 C 30.048 51.624 29.772 51.735 29.428 51.792 L 29.425 51.811 C 29.782 51.98 30.043 52.159 30.206 52.351 C 30.37 52.543 30.424 52.77 30.371 53.026 C 30.297 53.389 30.034 53.664 29.578 53.851 C 29.122 54.039 28.59 54.092 27.981 54.007 Z M 36.226 51.393 C 36.226 51.102 36.186 50.864 36.107 50.682 C 36.026 50.499 35.915 50.358 35.773 50.259 C 35.648 50.166 35.52 50.101 35.39 50.067 C 35.25 50.032 35.107 50.015 34.963 50.016 C 34.609 50.016 34.327 50.101 34.118 50.27 C 33.906 50.439 33.802 50.681 33.802 51.002 C 33.802 51.185 33.836 51.33 33.905 51.448 C 33.975 51.566 34.086 51.668 34.244 51.751 C 34.351 51.809 34.476 51.85 34.614 51.872 C 34.751 51.892 34.899 51.902 35.057 51.902 C 35.24 51.902 35.441 51.879 35.652 51.837 C 35.866 51.793 36.051 51.735 36.209 51.666 C 36.213 51.636 36.218 51.599 36.221 51.55 C 36.225 51.504 36.226 51.453 36.226 51.393 Z M 32.927 51.026 C 32.927 50.804 32.981 50.603 33.087 50.423 C 33.196 50.239 33.343 50.081 33.531 49.949 C 33.708 49.822 33.926 49.725 34.185 49.653 C 34.44 49.582 34.704 49.546 34.969 49.547 C 35.264 49.547 35.532 49.579 35.772 49.646 C 36.012 49.711 36.22 49.808 36.395 49.932 C 36.617 50.09 36.788 50.296 36.911 50.55 C 37.032 50.806 37.094 51.127 37.094 51.518 C 37.094 51.872 37.034 52.209 36.914 52.525 C 36.796 52.844 36.621 53.107 36.388 53.315 C 36.141 53.537 35.843 53.708 35.496 53.824 C 35.149 53.941 34.721 54 34.212 54 C 34.097 54 33.975 53.997 33.845 53.988 C 33.723 53.98 33.602 53.964 33.482 53.94 L 33.482 53.389 L 33.526 53.389 C 33.598 53.418 33.71 53.445 33.863 53.468 C 34.017 53.493 34.173 53.506 34.328 53.505 C 34.892 53.505 35.335 53.382 35.657 53.135 C 35.979 52.886 36.162 52.532 36.205 52.073 C 35.975 52.177 35.756 52.253 35.548 52.301 C 35.338 52.35 35.112 52.373 34.868 52.373 C 34.628 52.373 34.413 52.355 34.216 52.32 C 34.021 52.286 33.823 52.219 33.626 52.12 C 33.394 52.002 33.221 51.854 33.103 51.676 C 32.986 51.495 32.927 51.28 32.927 51.026 Z M 42.271 47.363 L 42.114 51.782 L 41.437 52.21 L 41.497 48.032 L 38.916 49.284 L 38.689 48.787 L 41.934 47.103 Z M 45.516 13.575 C 45.04 13.254 45.415 13.213 45.511 12.734 C 45.594 12.322 45.396 11.806 45.52 11.525 C 45.856 10.768 46.823 11.209 47.322 11.693 C 47.411 11.778 47.472 11.99 47.519 12.193 C 47.634 12.697 47.728 13.399 47.129 13.664 C 46.613 13.893 45.931 13.853 45.516 13.575 Z M 39.899 10.403 L 39.856 10.362 C 39.883 10.305 39.91 10.248 39.935 10.2 C 40.122 10.203 41.912 9.842 41.925 9.803 C 42.47 9.64 42.987 9.42 43.317 8.937 C 42.166 8.863 40.906 9.22 39.82 8.878 C 39.379 8.562 39.151 8.163 38.868 7.878 C 38.876 7.853 38.881 7.836 38.886 7.819 C 38.475 7.233 38.611 6.744 39.306 6.786 C 40.272 7.445 42.199 7.336 43.35 7.354 C 43.614 7.344 44.351 7.372 44.608 7.238 C 45.402 5.932 45.809 4.466 46.426 3.16 C 47.155 2.328 47.548 3.286 47.901 3.952 C 47.946 4.036 48.012 4.192 48.06 4.422 C 48.077 4.427 48.21 5.159 47.665 5.378 C 47.137 5.93 46.717 6.609 46.446 7.381 C 47.216 7.567 47.912 7.107 48.761 7.431 C 48.808 7.902 48.65 8.225 48.146 8.402 C 47.413 8.451 46.641 8.449 45.817 8.488 C 45.372 9.13 44.745 9.883 44.018 10.26 C 43.912 10.315 43.418 10.506 43.311 10.522 C 42.754 10.604 42.22 10.762 41.669 10.702 C 40.149 10.536 40.158 10.466 39.899 10.403 Z M 21.981 12.876 C 21.354 12.764 20.67 12.222 20.258 11.88 C 20.27 11.717 20.282 11.553 20.305 11.396 C 21.365 10.065 22.43 8.807 23.315 7.317 C 23.532 6.666 23.852 5.961 24.096 5.31 C 24.11 5.296 24.144 5.228 24.139 5.212 C 24.407 4.861 24.531 4.755 24.929 5.111 C 25.046 5.465 24.466 6.012 24.384 6.413 C 24.242 7.115 23.866 8.883 23.604 9.556 C 23.437 9.986 22.722 12.37 22.288 12.757 C 22.178 12.792 22.079 12.834 21.981 12.876 Z M 28.55 6.221 C 27.729 6.398 27.362 5.938 26.795 5.582 C 26.725 5.371 26.822 5.208 26.8 5.056 C 26.991 4.956 27.552 4.696 27.915 4.577 C 28.354 4.349 29.337 3.21 29.831 3.46 C 30.151 4.432 29.336 5.71 28.55 6.221 Z M 21.902 6.295 C 21.521 6.102 21.132 4.864 21.004 4.475 C 21.052 3.71 21.75 3.499 22.457 3.8 C 23.088 4.295 23.472 4.467 23.171 5.315 C 22.741 5.944 22.502 6.041 21.902 6.295 Z M 27.764 4.113 C 27.58 3.752 27.893 2.798 27.691 2.64 C 27.502 2.721 27.32 2.846 27.116 2.913 C 26.566 2.804 25.873 2.349 25.948 1.837 C 26.203 1.332 26.09 1.472 26.648 1.289 C 27.123 0.909 27.601 0.533 28.083 0.162 C 28.95 -0.246 29.5 0.144 29.789 1.023 C 29.778 1.644 29.512 2.2 29.253 2.753 C 28.839 3.142 28.477 3.551 28.113 3.952 C 27.99 4.001 27.877 4.057 27.764 4.113 Z M 22.101 2.831 C 21.865 2.713 21.922 2.601 21.979 2.404 C 21.856 2.032 21.551 1.786 21.434 1.431 C 21.383 0.737 21.193 0.528 21.659 0.066 C 22.134 0.144 23.819 0.516 23.683 1.44 C 23.411 2.063 22.673 2.606 22.101 2.831 Z M 10.637 27.856 C 9.917 28.395 8.485 28.052 8.262 27.08 C 8.104 26.394 7.233 24.46 6.86 23.417 C 6.673 23.091 6.455 22.841 6.576 22.471 C 6.818 22.4 7.102 22.657 7.318 22.856 C 7.427 22.825 7.595 22.555 7.582 22.372 C 7.528 21.611 7.499 20.778 7.363 20.025 C 7.166 19.867 6.968 19.709 6.783 19.547 C 6.654 19.933 6.219 21.194 5.765 20.542 C 5.863 20.027 5.901 19.178 5.597 18.678 C 5.213 18.286 4.673 18.032 4.493 17.6 C 4.543 16.989 5.472 16.807 6.03 17.03 C 6.475 17.05 6.432 16.217 6.989 17.574 C 7.008 17.797 7.231 17.928 7.481 18.045 C 7.519 17.994 7.557 17.944 7.594 17.893 C 7.56 17.307 7.523 16.669 7.549 16.046 C 6.979 15.512 6.501 15.069 6.151 14.413 C 6.126 13.771 6.84 13.371 7.465 13.155 C 7.656 12.804 7.647 12.505 7.616 12.062 C 7.652 11.92 7.652 11.92 7.796 11.695 C 8.015 11.702 8.199 11.773 8.448 11.909 C 8.975 12.54 7.999 14.571 8.998 14.689 C 9.185 14.346 8.895 14.006 8.73 13.733 C 8.767 13.237 9.507 12.587 10.035 12.379 C 10.831 12.276 10.799 12.725 10.83 13.41 C 10.87 13.503 10.91 13.595 10.955 13.681 C 11.993 14.378 11.993 14.378 13.433 15.265 C 13.88 15.651 13.929 16.289 13.974 16.482 C 14.003 16.604 14.212 17.513 13.744 17.592 C 12.564 16.857 11.388 16.024 10.243 15.358 C 10.231 15.38 10.225 15.404 10.224 15.429 C 10.741 15.873 11.456 17.124 11.502 17.838 C 11.247 18.307 10.746 18.52 10.28 18.408 C 10.193 18.289 10.221 18.183 10.198 18.039 C 9.837 17.457 8.829 16.927 8.316 16.607 C 8.138 17.006 8.579 18.148 8.717 18.618 C 8.747 18.898 8.777 19.177 8.811 19.449 C 9.166 19.856 9.531 20.227 9.926 20.635 C 10.073 20.867 10.227 21.103 10.382 21.34 C 10.369 21.363 10.361 21.379 10.352 21.394 C 10.535 21.747 10.943 22.78 10.258 22.811 C 10.188 22.773 10.125 22.739 10.067 22.697 C 9.831 22.163 9.394 21.591 8.931 21.288 C 8.797 21.832 9.009 22.409 8.764 22.857 C 8.614 23.131 8.319 23.269 8.109 23.356 C 7.887 23.449 7.746 23.497 7.731 23.58 C 7.933 23.822 8.165 24.05 8.358 24.306 C 9.125 25.323 9.777 26.326 10.654 27.3 C 10.718 27.576 10.708 27.651 10.637 27.856 Z M 5.597 23.447 C 5.306 23.46 5.147 23.12 4.918 22.965 C 4.113 22.769 3.51 22.632 3.215 21.854 C 3.246 21.779 3.283 21.709 3.322 21.639 C 3.73 21.466 4.498 21.338 5.017 21.297 C 6.013 21.476 5.726 22.727 5.597 23.447 Z M 3.427 21.189 C 3.262 21.322 3.228 21.293 3.148 21.29 C 3.036 21.107 2.989 20.97 2.804 20.9 C 1.924 20.916 0.988 20.294 1.116 19.392 C 1.27 19.202 1.445 19.308 1.784 19.392 C 2.518 19.215 3.605 18.708 3.699 19.896 C 3.636 20.331 3.521 20.775 3.426 21.189 Z M 53.664 18.982 C 53.287 18.278 54.271 17.484 54.719 17.213 C 55.365 17.351 55.368 18.391 54.937 18.887 C 54.329 19.302 54.259 19.382 53.664 18.982 Z" fill="rgb(255, 255, 255)"></path><path d="M 52.541 26.006 C 52.532 25.975 52.531 25.95 52.524 25.932 C 51.785 25.29 51.187 24.57 50.782 23.734 C 50.808 23.65 50.808 23.65 50.883 23.563 C 51.461 23.712 51.923 24.278 52.583 24.169 C 52.924 23.912 53.211 23.69 53.437 23.403 C 52.706 22.768 51.857 22.89 51.115 22.551 C 50.618 22.12 50.203 20.875 50.433 20.368 C 51.027 19.765 50.885 20.16 51.569 20.755 C 52.469 21.372 53.669 21.686 54.731 22.091 C 55.005 22.128 55.005 22.128 55.128 22.176 C 55.785 21.841 55.988 21.864 56.609 22.274 C 56.913 22.373 56.913 22.373 57.861 22.597 C 57.934 22.554 58.006 22.511 58.085 22.474 C 57.079 21.693 55.631 21.706 54.436 21.481 C 53.984 21.229 53.772 20.903 53.634 20.548 C 53.455 20.415 52.402 19.689 53.188 19.759 C 53.558 19.916 53.95 19.926 54.357 20.081 C 55.481 20.293 56.648 20.671 57.791 20.969 C 57.896 20.849 57.914 20.747 57.923 20.695 C 58.077 20.546 58.18 20.495 58.338 20.42 C 58.156 20.333 58.127 20.283 58 20.362 C 57.379 20.128 56.808 20.339 56.854 19.566 C 56.383 19.851 55.853 19.851 55.451 19.501 C 55.259 18.922 55.888 18.267 56.114 17.897 C 56.122 17.834 56.315 17.53 56.495 17.134 C 56.673 16.604 56.742 15.887 57.276 15.774 C 57.718 15.876 57.892 15.92 57.757 16.522 C 57.807 16.871 57.855 17.538 57.792 17.838 C 57.69 18.32 57.515 19.009 57.069 19.4 C 57.39 19.478 57.91 19.53 58.014 19.126 C 57.859 18.613 58.355 18.49 58.703 18.605 C 58.86 18.777 58.86 18.777 59.093 18.969 C 59.169 18.881 59.162 18.875 59.168 18.787 C 58.985 18.416 59.104 18.4 59.402 18.248 C 59.195 17.808 59.408 17.346 59.771 17.227 C 60.948 17.92 60.948 17.92 61.529 18.213 C 62.185 18.136 63.492 17.445 63.878 18.194 C 63.848 18.58 63.623 19.056 63.242 19.372 C 63.021 19.451 62.795 19.479 62.603 19.619 C 62.664 19.671 62.719 19.73 62.773 19.789 C 63.36 19.982 63.772 19.927 63.426 20.746 C 63.605 21.326 63.794 21.407 63.104 21.821 C 62.279 22.105 61.393 22.407 60.535 22.663 C 60.504 22.683 60.475 22.704 60.451 22.731 C 60.507 22.816 60.564 22.9 60.614 22.991 C 60.408 23.283 60.108 23.6 59.802 23.899 C 59.218 24.015 58.92 23.721 58.494 23.398 C 57.778 23.164 57.151 22.937 56.433 22.76 C 56.344 22.848 56.242 22.925 56.172 23.087 C 56.411 23.309 56.647 23.534 56.881 23.762 C 56.973 24.184 56.488 24.635 56.055 24.753 C 55.755 24.528 55.564 24.409 55.255 24.317 C 55.102 24.423 54.95 24.53 54.799 24.639 C 54.328 25.157 53.397 26.62 52.541 26.006 Z M 60.095 21.288 C 60.087 21.256 60.079 21.238 60.071 21.22 C 60.481 20.857 60.603 20.716 60.179 20.418 C 60.062 20.446 59.839 20.499 59.834 20.354 C 59.829 20.198 60.581 20.025 60.695 19.96 C 60.91 20.147 61.225 20.503 61.25 20.867 C 60.953 21.208 60.561 21.28 60.095 21.288 Z" fill="rgb(255, 255, 255)"></path></g></g></svg>