<svg width="171" height="56" viewBox="0 0 171 56" fill="none" xmlns="http://www.w3.org/2000/svg">
<g clip-path="url(#clip0_724_341)">
<path fill-rule="evenodd" clip-rule="evenodd" d="M73.3786 19.3357C73.1493 18.6063 72.3783 17.502 70.8364 17.502C69.8558 17.502 69.0014 18.0021 68.5847 18.7731C68.0846 19.7108 67.8554 20.9831 67.8554 22.7334C67.8554 25.2352 68.2722 26.7993 69.1473 27.4244C69.6058 27.7578 70.1904 27.9245 70.8767 27.9245C72.8994 27.9245 73.7536 26.3813 73.7536 22.6917C73.7536 21.2123 73.6299 20.1497 73.3786 19.3357ZM77.8612 32.385C77.8612 32.385 77.4431 32.6363 76.5679 32.6363C75.4428 32.6363 74.4426 31.9683 73.9007 31.614C73.2118 31.1556 72.0867 30.5097 70.9614 30.1554C68.7931 30.1554 67.3748 29.5498 66.2704 28.1121C65.1661 26.6951 64.6035 24.8602 64.6035 22.7334C64.6035 19.6066 65.7912 17.0853 67.8763 15.9588C68.7306 15.5003 69.7933 15.2502 70.8767 15.2502C74.7343 15.2502 77.111 18.0646 77.111 22.6084C77.111 25.7562 75.9845 28.1121 74.255 29.2581C74.6509 29.4039 75.2135 29.7803 75.5469 29.9874C76.0678 30.3013 76.693 30.593 77.3403 30.593C77.9653 30.593 78.6322 30.4887 78.6322 30.4887L77.8612 32.385Z" fill="currentColor"/>
<path fill-rule="evenodd" clip-rule="evenodd" d="M86.3177 30.2179C85.9635 29.9678 85.6717 29.6123 85.4842 29.1748C84.7953 29.8428 83.795 30.1971 82.6699 30.1971C81.1683 30.1971 79.8764 29.4886 79.5221 28.4664C79.3555 27.987 79.293 27.4244 79.293 26.3409V19.5024L82.0447 18.9814V25.8395C82.0447 26.7994 82.1281 27.2994 82.2726 27.5912C82.4198 27.8828 82.8365 28.0913 83.2533 28.0913C83.941 28.0913 84.7744 27.5912 84.9828 27.0702V19.5649L87.6513 19.0024V27.1536C87.6513 27.862 87.8805 28.5913 88.2972 29.0914L86.3177 30.2179Z" fill="currentColor"/>
<path fill-rule="evenodd" clip-rule="evenodd" d="M96.2369 23.2973C96.2369 22.5043 96.1523 22.0875 95.9035 21.6916C95.6326 21.2748 95.2354 21.0664 94.6727 21.0664C93.6101 21.0664 93.0058 21.8999 93.0058 23.3807V23.4211H96.2369V23.2973ZM92.9642 25.4644V25.5477C92.9642 27.1952 93.7767 28.1328 95.2146 28.1328C96.1743 28.1328 97.0703 27.7787 97.9247 27.0702L99.0083 28.7372C97.7788 29.7387 96.4869 30.2179 94.9853 30.2179C91.921 30.2179 89.9414 28.0495 89.9414 24.6934C89.9414 22.7751 90.3373 21.504 91.275 20.4608C92.1502 19.4828 93.2142 19.0231 94.6311 19.0231C95.8605 19.0231 97.0287 19.4398 97.7163 20.1496C98.6957 21.1498 99.1346 22.5876 99.1346 24.8184V25.4644H92.9642Z" fill="currentColor"/>
<path fill-rule="evenodd" clip-rule="evenodd" d="M106.779 23.2973C106.779 22.5043 106.695 22.0875 106.445 21.6916C106.173 21.2748 105.78 21.0664 105.215 21.0664C104.152 21.0664 103.549 21.8999 103.549 23.3807V23.4211H106.779V23.2973ZM103.506 25.4644V25.5477C103.506 27.1952 104.32 28.1328 105.757 28.1328C106.715 28.1328 107.614 27.7787 108.468 27.0702L109.551 28.7372C108.323 29.7387 107.029 30.2179 105.527 30.2179C102.464 30.2179 100.483 28.0495 100.483 24.6934C100.483 22.7751 100.879 21.504 101.818 20.4608C102.693 19.4828 103.757 19.0231 105.174 19.0231C106.405 19.0231 107.571 19.4398 108.26 20.1496C109.239 21.1498 109.677 22.5876 109.677 24.8184V25.4644H103.506Z" fill="currentColor"/>
<path fill-rule="evenodd" clip-rule="evenodd" d="M117.323 29.9262V22.9835C117.323 21.7749 117.114 21.4208 116.384 21.4208C115.823 21.4208 115.092 21.7958 114.447 22.3793V29.9262H111.653V22.1917C111.653 21.2748 111.529 20.3997 111.276 19.6899L113.76 18.9814C114.009 19.419 114.153 19.8774 114.153 20.3163C114.571 20.0246 114.927 19.7746 115.385 19.5233C115.946 19.2315 116.678 19.0649 117.303 19.0649C118.49 19.0649 119.534 19.6899 119.866 20.6081C120.011 21.004 120.075 21.4624 120.075 22.1292V29.9262H117.323Z" fill="currentColor"/>
<path fill-rule="evenodd" clip-rule="evenodd" d="M126.157 30.2596C124.843 30.2596 123.405 29.8429 121.843 29.029L122.842 26.9869C123.696 27.5078 125.177 28.1954 126.385 28.1954C127.178 28.1954 127.802 27.6745 127.802 26.9869C127.802 26.2575 127.283 25.8812 126.157 25.6729L124.905 25.4436C124.198 25.3186 123.322 24.8185 122.946 24.3601C122.57 23.9017 122.341 23.1294 122.341 22.4418C122.341 20.3567 123.99 18.9606 126.469 18.9606C128.179 18.9606 129.305 19.4829 130.285 19.9621L129.367 21.8374C128.304 21.2957 127.533 21.0665 126.742 21.0665C125.927 21.0665 125.385 21.4833 125.385 22.1084C125.385 22.6501 125.739 22.9419 126.719 23.1932L128.011 23.5266C129.327 23.86 129.763 24.2558 130.137 24.7351C130.534 25.2353 130.722 25.8395 130.722 26.548C130.722 28.758 128.889 30.2596 126.157 30.2596Z" fill="currentColor"/>
<path fill-rule="evenodd" clip-rule="evenodd" d="M135.425 30.1749C134.238 30.1749 133.279 29.6124 132.945 28.7164C132.737 28.1745 132.695 27.8412 132.695 26.32V18.3564C132.695 16.9602 132.653 16.1046 132.548 15.1461L135.406 14.5001C135.51 15.0836 135.551 15.7712 135.551 17.2728V25.5894C135.551 27.4244 135.571 27.6744 135.739 27.9662C135.843 28.1537 136.071 28.2579 136.3 28.2579C136.405 28.2579 136.468 28.2579 136.613 28.2162L137.095 29.8832C136.613 30.0708 136.031 30.1749 135.425 30.1749Z" fill="currentColor"/>
<path fill-rule="evenodd" clip-rule="evenodd" d="M143.299 25.256C141.362 25.256 140.695 25.6102 140.695 26.8827C140.695 27.7162 141.215 28.2788 141.925 28.2788C142.446 28.2788 142.967 28.0078 143.384 27.5494L143.425 25.256H143.299ZM145.675 30.4679C145.03 30.1971 144.447 29.7165 144.175 29.1748C143.967 29.3831 143.737 29.5915 143.529 29.7387C143.008 30.1136 142.257 30.3221 141.383 30.3221C139.006 30.3221 137.714 29.1135 137.714 26.9868C137.714 24.4851 139.443 23.3168 142.842 23.3168C143.051 23.3168 143.237 23.3168 143.465 23.3378V22.9014C143.465 21.7124 143.237 21.3165 142.216 21.3165C141.319 21.3165 140.279 21.7541 139.131 22.5251L137.943 20.5247C138.506 20.1692 138.922 19.9621 139.673 19.6483C140.717 19.2107 141.61 19.0231 142.59 19.0231C144.383 19.0231 145.615 19.6899 146.032 20.8789C146.177 21.3165 146.238 21.6499 146.217 22.7959L146.158 26.3812C146.134 27.5494 146.217 28.0495 147.157 28.758L145.675 30.4679Z" fill="currentColor"/>
<path fill-rule="evenodd" clip-rule="evenodd" d="M154.783 29.9262V22.9835C154.783 21.7749 154.574 21.4208 153.844 21.4208C153.279 21.4208 152.552 21.7958 151.906 22.3793V29.9262H149.11V22.1917C149.11 21.2748 148.985 20.3997 148.736 19.6899L151.216 18.9814C151.466 19.419 151.614 19.8774 151.614 20.3163C152.03 20.0246 152.384 19.7746 152.841 19.5233C153.407 19.2315 154.135 19.0649 154.76 19.0649C155.947 19.0649 156.991 19.6899 157.323 20.6081C157.471 21.004 157.532 21.4624 157.532 22.1292V29.9262H154.783Z" fill="currentColor"/>
<path fill-rule="evenodd" clip-rule="evenodd" d="M166.24 22.0666C165.719 21.6082 165.221 21.379 164.719 21.379C163.469 21.379 162.926 22.4208 162.926 24.7976C162.926 27.091 163.408 27.8412 164.865 27.8412C165.385 27.8412 165.97 27.4869 166.24 27.1535V22.0666ZM166.866 29.9262C166.782 29.7595 166.742 29.5915 166.701 29.301C166.013 29.904 165.198 30.197 164.239 30.197C161.529 30.197 159.821 28.0912 159.821 24.7768C159.821 21.4415 161.675 19.1481 164.386 19.1481C165.157 19.1481 165.762 19.3357 166.285 19.7537C166.24 19.5232 166.2 18.7939 166.2 18.1688V14.5001L168.973 14.9377V26.027C168.973 28.6538 169.181 29.5081 169.369 29.9262H166.866Z" fill="currentColor"/>
<path fill-rule="evenodd" clip-rule="evenodd" d="M71.1899 50.3389C69.3966 50.3389 67.8755 49.7164 66.7907 48.5481C65.5821 47.2341 65.0195 45.4629 65.0195 43.0041C65.0195 40.2719 65.7488 38.334 67.2295 36.9978C68.2506 36.0823 69.4799 35.6447 70.9607 35.6447C72.4819 35.6447 73.7959 36.1227 74.8795 37.0616L74.1084 38.1244C72.9403 37.3338 72.1068 37.0213 71.0024 37.0213C69.3341 37.0213 68.0214 37.7923 67.4379 39.4371C67.0615 40.5011 66.874 41.7109 66.874 43.064C66.874 44.942 67.2295 46.4631 67.8755 47.4021C68.5214 48.3398 69.98 48.9219 71.3358 48.9219C72.2318 48.9219 73.0028 48.7343 73.6084 48.3606V44.003H70.7315L70.3968 42.5861H75.2128V49.2553C74.1918 49.9221 72.6485 50.3389 71.1899 50.3389Z" fill="currentColor"/>
<path fill-rule="evenodd" clip-rule="evenodd" d="M84.6305 42.0848C84.1915 41.1666 83.2747 40.7524 82.4204 40.7524C81.5035 40.7524 80.648 41.19 80.2937 41.8763C79.9603 42.5224 79.7936 43.3571 79.7936 44.5852C79.7936 46.0451 80.0436 47.3384 80.4409 47.9843C80.816 48.6093 81.6495 49.0274 82.5455 49.0274C83.629 49.0274 84.4429 48.4649 84.7971 47.462C85.0264 46.8161 85.1097 46.2339 85.1097 45.2116C85.1097 43.7544 84.9639 42.7723 84.6305 42.0848ZM82.5037 50.3832C79.6477 50.3832 78.0225 48.276 78.0225 44.8573C78.0225 41.4804 79.7103 39.4176 82.4412 39.4176C84.1707 39.4176 85.2972 40.2081 86.0057 41.2304C86.6516 42.1693 86.9642 43.3975 86.9642 45.0866C86.9642 48.5482 85.1097 50.3832 82.5037 50.3832Z" fill="currentColor"/>
<path fill-rule="evenodd" clip-rule="evenodd" d="M93.4434 50.2152H91.8376L88.1064 39.8135L89.7733 39.4579L92.1918 46.6078C92.4835 47.462 92.6919 48.3802 92.6919 48.3802H92.7336C92.7336 48.3802 92.9016 47.5663 93.2337 46.6312L95.6104 39.7302H97.3412L93.4434 50.2152Z" fill="currentColor"/>
<path fill-rule="evenodd" clip-rule="evenodd" d="M104.838 41.6472C104.485 41.0859 103.755 40.729 102.963 40.729C101.482 40.729 100.648 41.8152 100.565 43.9627H105.319C105.296 42.8362 105.151 42.1486 104.838 41.6472ZM100.565 45.1908V45.4409C100.565 46.4228 100.69 47.173 101.044 47.7147C101.628 48.6095 102.586 48.9858 103.629 48.9858C104.63 48.9858 105.444 48.6732 106.173 48.0065L106.797 49.0471C105.881 49.8818 104.63 50.339 103.296 50.339C100.419 50.339 98.6885 48.2564 98.6885 44.817C98.6885 43.0641 99.0636 41.9402 99.9401 40.897C100.773 39.9177 101.795 39.4579 103.045 39.4579C104.171 39.4579 105.151 39.8552 105.86 40.5844C106.756 41.5026 107.048 42.4819 107.048 44.9616V45.1908H100.565Z" fill="currentColor"/>
<path fill-rule="evenodd" clip-rule="evenodd" d="M114.382 41.2942C114.278 41.2513 114.089 41.2108 113.922 41.2108C113.298 41.2108 112.673 41.4804 112.192 41.961C111.713 42.4389 111.59 42.7515 111.59 43.6058V50.1109H109.962V42.1056C109.962 40.5844 109.607 39.8981 109.607 39.8981L111.233 39.4579C111.233 39.4579 111.63 40.2719 111.566 41.147C112.317 40.083 113.423 39.4176 114.486 39.4176C114.755 39.4176 115.048 39.5218 115.048 39.5218L114.382 41.2942Z" fill="currentColor"/>
<path fill-rule="evenodd" clip-rule="evenodd" d="M122.591 50.1109V43.085C122.591 41.9805 122.509 41.7109 122.217 41.3555C121.987 41.0859 121.551 40.9179 121.07 40.9179C120.235 40.9179 118.943 41.5846 118.193 42.3778V50.1109H116.608V42.1055C116.608 40.6248 116.214 39.9176 116.214 39.9176L117.795 39.48C117.795 39.48 118.172 40.251 118.172 41.1067C119.256 40.0231 120.339 39.501 121.447 39.501C122.57 39.501 123.573 40.1039 123.987 41.022C124.155 41.3983 124.239 41.8151 124.239 42.2306V50.1109H122.591Z" fill="currentColor"/>
<path fill-rule="evenodd" clip-rule="evenodd" d="M138.762 50.1111V42.4391C138.762 41.4388 138.304 40.9179 137.43 40.9179C136.491 40.9179 135.761 41.5235 134.678 42.5224V50.1111H133.029V42.732C133.029 42.1056 132.969 41.6889 132.739 41.3985C132.487 41.1067 132.154 40.9817 131.675 40.9817C130.882 40.9817 130.112 41.3763 129.027 42.357V50.1111H127.464V42.0652C127.464 40.565 127.09 39.8552 127.09 39.8552L128.675 39.4801C128.675 39.4801 129.049 40.2928 129.049 41.022C129.738 40.2511 131.01 39.4579 132.07 39.4579C133.093 39.4579 134.114 40.0831 134.49 41.19C135.491 40.1274 136.761 39.4579 137.824 39.4579C139.368 39.4579 140.431 40.6249 140.431 42.2736V50.1111H138.762Z" fill="currentColor"/>
<path fill-rule="evenodd" clip-rule="evenodd" d="M149.181 41.6472C148.824 41.0859 148.095 40.729 147.303 40.729C145.824 40.729 144.989 41.8152 144.909 43.9627H149.658C149.638 42.8362 149.494 42.1486 149.181 41.6472ZM144.909 45.1908V45.4409C144.909 46.4228 145.032 47.173 145.386 47.7147C145.97 48.6095 146.927 48.9858 147.969 48.9858C148.973 48.9858 149.784 48.6732 150.513 48.0065L151.139 49.0471C150.222 49.8818 148.973 50.339 147.637 50.339C144.76 50.339 143.03 48.2564 143.03 44.817C143.03 43.0641 143.404 41.9402 144.281 40.897C145.117 39.9177 146.136 39.4579 147.387 39.4579C148.512 39.4579 149.494 39.8552 150.201 40.5844C151.098 41.5026 151.389 42.4819 151.389 44.9616V45.1908H144.909Z" fill="currentColor"/>
<path fill-rule="evenodd" clip-rule="evenodd" d="M160.287 50.1109V43.085C160.287 41.9805 160.203 41.7109 159.91 41.3555C159.681 41.0859 159.243 40.9179 158.766 40.9179C157.931 40.9179 156.639 41.5846 155.889 42.3778V50.1109H154.304V42.1055C154.304 40.6248 153.907 39.9176 153.907 39.9176L155.493 39.48C155.493 39.48 155.866 40.251 155.866 41.1067C156.953 40.0231 158.036 39.501 159.139 39.501C160.267 39.501 161.266 40.1039 161.682 41.022C161.85 41.3983 161.933 41.8151 161.933 42.2306V50.1109H160.287Z" fill="currentColor"/>
<path fill-rule="evenodd" clip-rule="evenodd" d="M168.933 40.9608H166.766V47.6508C166.766 48.7982 167.079 49.1941 168.098 49.1941C168.559 49.1941 168.829 49.1316 169.12 48.9858L169.35 50.0263C168.829 50.2985 168.246 50.443 167.515 50.443C166.974 50.443 166.558 50.3388 166.16 50.1539C165.43 49.7971 165.16 49.1316 165.16 48.0884V40.9608H163.804V39.7301H165.16C165.16 38.7299 165.326 37.102 165.326 37.102L167.035 36.7283C167.035 36.7283 166.827 38.3535 166.827 39.7301H169.434L168.933 40.9608Z" fill="currentColor"/>
<path fill-rule="evenodd" clip-rule="evenodd" d="M12.9161 5.82795C14.1311 6.4179 14.5205 5.32525 16.7892 6.79428C15.2837 7.26963 14.1311 9.12413 12.4394 8.64878C13.6545 8.04711 13.5282 7.15892 14.2314 6.71744C13.7807 6.65363 12.903 6.45437 12.9161 5.82795ZM17.2775 17.8992C16.5495 17.5983 15.4348 17.4121 14.8083 18.2899C14.4684 17.6999 14.9724 16.8078 15.2837 16.5448C13.6923 16.5721 12.791 16.0851 12.5514 15.6059C13.1413 15.2803 14.6325 14.7411 15.8489 15.6279C16.6889 16.2478 17.1148 16.5448 18.1045 16.8743C18.4653 16.5109 18.3311 16.6737 18.4418 16.5721C17.6292 16.0056 17.2645 11.6702 15.6717 11.5087C15.8983 10.9552 16.7267 11.0073 17.3908 11.1818C17.4378 10.209 17.0392 8.60842 16.4323 7.68377C17.3635 7.19539 17.9978 7.72022 18.3167 8.87539C18.658 10.0983 18.2556 13.1614 19.0565 15.9183L19.5579 15.4548C19.3078 13.8489 21.0751 13.2616 21.4645 12.4593C21.613 13.5377 21.3902 14.0287 21.0868 14.4142C21.7276 14.4897 22.0154 15.1161 21.9164 15.555C20.3757 15.3284 19.4811 16.8782 19.8236 18.0984C18.6867 18.3511 17.9053 18.1583 17.2775 17.8992ZM24.8115 18.79C23.4818 18.8643 22.1795 20.5964 22.7317 22.5603C22.5285 22.6383 21.9516 22.6267 21.7641 22.2243C21.6273 22.8637 20.3237 23.6047 19.3717 23.5044C19.8965 22.9392 20.2494 21.659 21.2757 20.9844C22.3045 20.3046 22.7668 19.8409 23.1315 18.6884C22.6548 18.915 20.1739 19.5544 19.4707 18.79C21.1012 18.5517 23.0312 17.6388 23.9832 17.0371L23.6082 16.6334C22.5806 17.2155 21.2157 17.683 20.5217 17.9044C20.2755 15.8623 22.2198 15.9419 22.3658 16.4953C23.1693 15.542 22.6041 14.1758 22.0154 14.0287C22.6171 12.3968 22.0154 11.3953 21.5022 10.7937C21.3773 12.5219 19.4459 12.798 19.2219 14.1277C19.1451 13.0728 19.0761 10.2246 18.994 8.83372C18.8443 6.25381 15.5845 5.3513 15.0831 5.3513C12.9525 5.45157 12.7533 5.17678 12.8028 4.18442C11.7244 5.41381 12.0891 6.50386 13.002 7.0339C12.877 7.77102 11.6983 8.34665 10.9717 8.50944C12.7025 10.1165 14.7068 9.16321 15.6717 8.24767C15.7434 8.18125 15.8111 8.12004 15.8788 8.06404C16.2253 8.67353 16.4753 9.79092 16.4753 10.4317C14.8578 10.3392 14.57 11.5934 14.57 12.0465C16.6251 11.1935 16.8503 15.1278 17.3908 15.7686C16.8634 15.7309 15.9348 14.5158 14.57 14.4272C12.9238 14.3204 12.3391 15.2021 11.6737 15.1656C11.8013 16.3339 13.2156 16.9849 14.1311 17.1217C13.6662 18.3147 14.0751 19.1195 15.0467 19.4139C15.0467 18.3263 16.4245 17.9878 17.9039 18.8512C19.6738 19.8865 20.5854 19.9804 22.0154 19.5428C21.7757 20.0545 21.1363 20.1079 20.3484 20.8815C19.2428 21.9703 19.2076 23.3872 17.9795 23.9055C19.4212 24.5932 21.6026 23.6269 21.9164 23.0785C22.5181 23.4524 23.2942 23.2284 23.5066 22.8507C22.5285 20.6836 24.1837 19.3917 24.8363 19.4139C24.8363 19.4139 25.1267 18.7718 24.8115 18.79Z" fill="currentColor"/>
<path fill-rule="evenodd" clip-rule="evenodd" d="M39.8151 7.00521C40.5419 6.48168 41.008 6.25377 41.3819 6.02716C42.0095 6.05451 43.0879 5.98028 43.7404 5.6508C43.0619 6.48168 42.9863 6.78251 41.8832 6.90624C43.3132 7.03386 43.9135 8.31014 44.6195 8.5094C42.2335 9.2387 41.9952 6.86716 39.8151 7.00521ZM42.7623 14.1393C43.476 14.7267 43.2403 15.555 43.0735 15.7413C42.4459 14.6655 40.4415 15.0418 38.4751 17.2598C38.3371 17.4264 38.1534 17.6178 37.9307 17.8119C38.0856 15.1552 35.9108 15.1109 35.2675 15.3805C35.3416 14.616 35.8157 14.0886 36.0684 14.0143C35.4289 13.272 35.2909 12.3357 35.218 11.6584C36.282 12.1207 37.8591 13.3618 38.1235 15.5042L38.8136 15.0418C38.6079 11.2951 38.6495 11.3081 38.6236 8.76075C38.6222 8.40651 38.6391 7.57172 39.7735 7.66419C39.8204 8.60837 39.9649 11.1219 39.9155 14.616H40.3179C40.6812 13.6367 41.9744 12.4958 43.476 12.5961C44.5009 12.6651 44.8539 12.6456 45.4451 12.3851C44.9671 13.5494 43.2129 14.0625 42.7623 14.1393ZM40.5926 12.8358C40.5926 10.4199 40.508 8.43125 40.4767 7.80484C40.5692 7.83089 40.6669 7.85954 40.7697 7.89601C42.5057 8.50158 42.8991 10.5931 46.4831 8.22289C44.5673 8.44819 44.4671 6.81637 43.588 6.78251C44.9176 6.02716 45.0049 4.29898 45.0049 4.29898C43.8888 5.20019 41.3063 5.25098 40.8049 5.55312C40.1381 5.95293 39.2942 6.4439 38.7238 6.75516C37.2352 7.57042 38.2732 11.9827 38.1235 13.6015C37.3212 11.1935 35.6933 11.5555 34.8403 10.1764C34.1996 11.3303 34.8781 13.2616 35.1385 13.8112C34.2112 14.5665 34.4639 15.9574 34.6879 16.3337C35.4797 15.7621 36.7039 15.9053 37.0776 16.8638C36.0384 17.4954 34.2972 17.6087 33.1082 16.4575L32.6823 16.9342C33.5223 18.0424 35.6243 18.4748 37.1871 17.5801C37.178 17.8341 37.1232 18.1179 37.0216 18.4318C36.2103 18.8577 35.1606 19.0921 33.9625 18.6792C34.1253 19.8943 35.5162 20.7955 36.8446 21.1576C36.394 21.5105 35.8417 21.6472 35.4406 21.5965C35.6933 22.2998 35.8301 23.2413 35.3039 23.9798C34.6411 23.5395 34.2894 23.1019 34.0381 21.3985C33.7854 19.6937 32.5586 17.9642 31.6066 17.6087C31.5558 18.213 31.5558 17.95 31.6574 18.3393C34.1878 20.1938 32.7579 23.5395 35.3911 24.7442C36.3575 23.6411 36.3679 23.2518 36.2195 22.2125C37.1715 21.9598 37.8864 21.1576 38.1365 20.5442C37.2352 20.9713 35.8053 20.2173 35.4042 19.6273C36.9695 19.5792 38.4216 18.3967 39.9051 16.8456C41.232 15.4547 43.002 15.6709 42.8626 16.7583C43.7768 16.6229 44.1428 15.3662 43.8393 14.5665C45.1807 14.1393 46.2343 13.147 46.3867 11.5933C44.5804 12.4958 42.2987 11.0073 40.5926 12.8358Z" fill="currentColor"/>
<path fill-rule="evenodd" clip-rule="evenodd" d="M30.8412 21.0703C30.7149 21.0703 30.6055 21.1316 30.5339 21.2228C30.3997 21.1967 30.2591 21.1772 30.1119 21.1576L30.1172 20.3866C30.2565 20.3268 30.3516 20.1887 30.3516 20.0297C30.3516 19.8162 30.1771 19.6417 29.9635 19.6417C29.7486 19.6417 29.5741 19.8162 29.5741 20.0297C29.5741 20.1783 29.6562 20.3032 29.7772 20.3684L29.7707 21.1159C29.6391 21.1016 29.5051 21.0886 29.3631 21.0756C29.3019 20.9388 29.1665 20.8463 29.0102 20.8463C28.7953 20.8463 28.6221 21.0183 28.6221 21.2332C28.6221 21.4506 28.7953 21.6213 29.0102 21.6213C29.1469 21.6213 29.2681 21.5522 29.3357 21.4415C29.4868 21.4584 29.6301 21.4728 29.7668 21.4884L29.7578 22.6214C29.6326 22.6865 29.5493 22.8142 29.5493 22.9639C29.5493 23.1775 29.7226 23.3533 29.9387 23.3533C30.1523 23.3533 30.3282 23.1775 30.3282 22.9639C30.3282 22.8063 30.2331 22.6722 30.0989 22.6097L30.1093 21.5288C30.2357 21.5457 30.3581 21.5653 30.4753 21.5861C30.5274 21.7384 30.6719 21.8492 30.8412 21.8492C31.0548 21.8492 31.2307 21.6773 31.2307 21.4598C31.2307 21.2462 31.0548 21.0703 30.8412 21.0703Z" fill="currentColor"/>
<path fill-rule="evenodd" clip-rule="evenodd" d="M27.4819 20.8463C27.3243 20.8463 27.1889 20.9388 27.1276 21.0756C26.9895 21.0886 26.8515 21.1016 26.7226 21.1159L26.7161 20.3684C26.8346 20.3032 26.9179 20.1783 26.9179 20.0297C26.9179 19.8162 26.7447 19.6417 26.5299 19.6417C26.3137 19.6417 26.1404 19.8162 26.1404 20.0297C26.1404 20.1887 26.2369 20.3268 26.3735 20.3866L26.3814 21.1576C26.2342 21.1772 26.0909 21.1967 25.9569 21.2228C25.8852 21.1316 25.7758 21.0703 25.6508 21.0703C25.4372 21.0703 25.2627 21.2462 25.2627 21.4598C25.2627 21.6773 25.4372 21.8492 25.6508 21.8492C25.8214 21.8492 25.9646 21.7384 26.018 21.5861C26.1339 21.5653 26.255 21.5457 26.3839 21.5288L26.3931 22.6097C26.2589 22.6722 26.1665 22.8063 26.1665 22.9639C26.1665 23.1775 26.341 23.3533 26.5546 23.3533C26.7682 23.3533 26.9427 23.1775 26.9427 22.9639C26.9427 22.8142 26.858 22.6865 26.733 22.6214L26.7252 21.4884C26.8619 21.4728 27.0052 21.4584 27.1549 21.4415C27.2239 21.5522 27.3438 21.6213 27.4819 21.6213C27.6967 21.6213 27.8699 21.4506 27.8699 21.2332C27.8699 21.0183 27.6967 20.8463 27.4819 20.8463Z" fill="currentColor"/>
<path fill-rule="evenodd" clip-rule="evenodd" d="M28.2445 24.1283C27.6701 25.2326 26.597 25.1974 25.6645 24.5814C25.2882 24.3328 24.9014 24.1699 24.5485 24.1139C24.71 23.0278 24.9795 20.9793 25.171 19.2498C26.3835 18.7028 27.8798 18.5713 28.2445 19.9699C28.6117 18.5713 30.108 18.7028 31.3192 19.2498C31.5133 20.9793 31.7803 23.0278 31.943 24.1139C31.5915 24.1699 31.2046 24.3328 30.827 24.5814C29.8919 25.1974 28.8214 25.2326 28.2445 24.1283ZM32.6254 24.166C32.3897 22.6059 31.8285 18.2314 31.7633 16.7689L31.0965 16.7988C31.107 17.0501 31.133 17.3796 31.1669 17.7599C30.366 17.5268 29.315 17.3613 28.2445 17.3613C27.1752 17.3613 26.1255 17.5268 25.326 17.7599C25.3598 17.3796 25.3845 17.0501 25.395 16.7988L24.7269 16.7689C24.663 18.2314 24.1005 22.6059 23.8635 24.166C23.4688 24.3236 23.207 24.7195 23.207 25.4332C23.207 25.4332 26.8405 25.4853 28.2445 25.4853C29.6496 25.4853 33.2845 25.4332 33.2845 25.4332C33.2845 24.7195 33.0214 24.3236 32.6254 24.166Z" fill="currentColor"/>
<path fill-rule="evenodd" clip-rule="evenodd" d="M26.566 31.1242C26.1896 31.0018 25.0149 31.3248 24.886 31.6518C24.787 31.9031 25.0084 32.48 25.4512 32.7561C25.7143 32.9189 26.7796 32.592 26.9555 32.3381C27.1026 32.1297 26.9423 31.248 26.566 31.1242ZM22.7567 27.7682C22.2293 28.5938 21.7135 29.0067 20.7263 29.568C20.7263 29.568 20.7263 31.7507 20.7263 32.9541C22.0275 34.1079 23.7334 33.1038 24.4094 32.7027C24.2088 32.3798 24.1346 32.1531 24.0447 31.7638C22.3934 31.9383 21.7644 31.1008 21.427 29.8702C21.427 29.8702 21.7279 29.6722 22.0275 29.5224C22.6044 31.4017 23.6592 31.1373 24.485 31.1008C25.024 30.6112 25.7755 30.4471 26.441 30.4992C26.2639 29.7464 25.7638 28.7931 25.2623 27.9662C25.7143 27.6783 26.2522 27.341 26.6168 26.7615C24.3989 27.5533 23.4456 27.2746 21.5651 26.7497C21.9023 27.229 22.366 27.5768 22.7567 27.7682ZM20.5375 25.9097C22.6303 26.6625 24.9863 27.1378 27.4933 25.8838C27.1677 27.0011 26.678 27.664 26.0646 28.1432C26.4149 29.021 26.9671 30.1085 27.1938 30.9863C27.8579 31.4251 27.7316 32.1778 27.6196 32.6818C27.5155 33.1468 25.9891 33.6977 25.4877 33.5466C25.0149 33.4021 25.0124 33.1846 24.774 33.2067C24.1099 33.2666 22.0418 35.3022 20.0479 33.3565C20.0479 31.5007 20.0479 29.1682 20.0479 29.1682C20.8254 28.741 21.4765 28.3556 21.853 27.8047C21.4127 27.5143 20.7876 26.725 20.5375 25.9097Z" fill="currentColor"/>
<path fill-rule="evenodd" clip-rule="evenodd" d="M34.6131 28.3152C34.2797 28.2358 32.8472 28.1564 32.3705 29.2269C32.097 29.2359 31.7987 29.1253 31.6307 28.9547C31.4432 29.1968 31.1542 29.3558 30.7543 29.4703C31.0994 30.1788 31.8105 30.059 32.239 29.7191C32.2259 29.8142 32.2207 29.9144 32.2207 30.0225C32.2207 31.7638 34.0752 32.2 35.2174 31.5502C35.0272 32.1167 35.1145 32.8317 35.1927 33.307C35.1927 33.307 31.3039 33.307 30.7035 33.307C30.7791 32.8317 31.3794 32.2782 31.8808 31.9278L31.4798 31.3014C30.9927 31.5124 30.5342 31.7103 30.0081 31.8484C28.7643 32.1714 28.8373 31.2819 30.1266 30.9238V30.5734L29.2997 30.5591C29.4989 29.6839 31.2037 28.5704 31.9694 28.3022C31.9264 27.3541 33.1832 27.0403 34.1872 27.0155C35.4361 26.979 35.7305 28.3204 35.7305 28.7333C35.7305 29.288 35.5859 30.5057 34.8944 30.8872C33.8929 31.4395 33.0386 30.6776 33.0386 29.9861C33.0386 29.2333 33.5595 28.7932 34.4633 28.896C35.3646 28.9924 35.2982 28.4871 34.6131 28.3152ZM36.5691 28.6916C36.5691 27.414 35.6432 26.2497 34.2106 26.2497C32.8953 26.2497 31.2544 26.8904 31.1542 28.0404C29.2241 29.1683 28.3098 30.1853 28.5963 31.1517C27.9453 31.851 28.4453 33.1559 30.3767 32.3277C29.8635 32.8317 29.676 33.4581 29.676 33.9829C31.5045 33.9829 35.6927 33.9829 36.1667 33.9829C35.4909 30.4223 36.5691 31.0488 36.5691 28.6916Z" fill="currentColor"/>
<path fill-rule="evenodd" clip-rule="evenodd" d="M30.9091 40.7407V40.0309H33.8783V40.7927C33.4511 40.6807 32.9563 40.6196 32.382 40.6196C31.8102 40.6196 31.331 40.6638 30.9091 40.7407ZM32.382 36.5133C32.8795 37.1775 33.1399 38.1295 33.1725 39.4175H31.5915C31.624 38.1295 31.8831 37.1775 32.382 36.5133ZM34.4957 40.9908V39.4175H33.7885C33.7494 37.7844 33.3613 36.6057 32.6021 35.8244L32.382 35.5965L32.1606 35.8244C31.4039 36.6057 31.0145 37.7844 30.9741 39.4175H30.2943V40.8969C29.4205 41.1704 28.8136 41.6315 28.0843 42.1902L28.0596 42.211L28.4347 42.6993L28.4593 42.6798C29.5963 41.8099 30.3464 41.2342 32.382 41.2342C34.4865 41.2342 35.3317 42.1159 35.9321 43.0732L36.4517 42.7462C36.0324 42.0742 35.4685 41.3957 34.4957 40.9908Z" fill="currentColor"/>
<path fill-rule="evenodd" clip-rule="evenodd" d="M34.0013 43.8403C34.1446 43.3167 34.017 42.8258 33.7553 42.5301C33.4908 42.2228 33.0246 42.0287 32.4868 42.1016L33.0794 42.7763L32.0427 43.6501L31.5829 43.1174C31.5829 43.1174 31.7523 42.9703 31.9958 42.7593C31.635 42.3426 31.1271 41.9844 30.4044 42.1472C30.1438 42.84 30.4252 43.3884 30.7859 43.809C31.0333 43.5954 31.2027 43.4483 31.2027 43.4483L31.6572 43.9718L30.39 45.0383L30.7924 45.4994L32.027 44.3976L32.436 44.8652C32.436 44.8652 32.1769 45.2558 32.5545 45.6948C32.841 45.4474 33.3307 45.0202 33.6146 44.7714C33.2369 44.3378 32.8149 44.537 32.8149 44.537L32.4009 44.0616L33.4101 43.1579L34.0013 43.8403Z" fill="currentColor"/>
<path fill-rule="evenodd" clip-rule="evenodd" d="M26.5907 37.968C26.1934 38.9109 25.8067 39.8838 25.6894 40.182C25.4836 40.1547 25.2571 40.1325 25.0239 40.1221C25.2962 39.2964 25.6191 38.1165 25.8886 37.3768C26.0775 36.8663 26.9618 37.0916 26.5907 37.968ZM26.1661 43.0094C25.9525 43.0836 25.6751 43.1825 25.4133 43.2099C25.4628 43.4222 25.5136 43.6344 25.5501 43.7855C25.1997 43.8598 24.6358 43.8989 24.2581 43.8989C23.8831 43.8989 23.3179 43.8598 22.9689 43.7855C23.0053 43.6344 23.0562 43.4222 23.1069 43.2099C22.8426 43.1825 22.5677 43.0836 22.3541 43.0094C22.4649 42.6291 22.6367 42.2527 22.7774 41.7279C23.2554 41.8373 23.7217 41.8789 24.2581 41.8789C24.7973 41.8789 25.2636 41.8373 25.7402 41.7279C25.8835 42.2527 26.0527 42.6291 26.1661 43.0094ZM21.927 37.968C21.5558 37.0916 22.4414 36.8663 22.6302 37.3768C22.9012 38.1165 23.2228 39.2964 23.4937 40.1221C23.2619 40.1325 23.0353 40.1547 22.8295 40.182C22.7123 39.8838 22.3268 38.9109 21.927 37.968ZM25.8796 40.7251C25.9082 40.8657 25.9134 41.0559 25.8886 41.2004C25.4876 41.3176 24.7869 41.3775 24.2581 41.3775C23.7333 41.3775 23.0314 41.3176 22.6302 41.2004C22.6055 41.0559 22.6094 40.8657 22.6406 40.7251C22.9037 40.6208 23.9469 40.574 24.2581 40.574C24.5707 40.574 25.6126 40.6208 25.8796 40.7251ZM24.2581 36.5902C24.322 36.1565 25.5566 36.0693 25.3261 37.0291C25.0917 38.0019 24.7987 39.1232 24.5747 40.1052C24.4705 40.1013 24.365 40.1013 24.2581 40.1013C24.154 40.1013 24.0498 40.1013 23.9456 40.1052C23.719 39.1232 23.4273 38.0019 23.1941 37.0291C22.9637 36.0693 24.1957 36.1565 24.2581 36.5902ZM25.9057 36.4886C25.7442 35.5665 24.7101 35.4637 24.253 35.8752C23.7946 35.4637 22.7735 35.5665 22.6133 36.4886C20.9698 36.2424 21.1508 37.7935 21.3566 38.222C21.5428 38.6023 21.9908 39.6441 22.2956 40.2862C22.2461 40.2992 22.1966 40.3122 22.1537 40.3227C22.0794 40.686 22.0663 41.1757 22.1289 41.5534C22.2031 41.5768 22.2773 41.5989 22.3502 41.6237C22.1836 42.1251 21.8723 42.9221 21.703 43.2854C21.927 43.4222 22.1653 43.5355 22.5052 43.6097C22.5052 43.6097 22.4414 43.8989 22.3541 44.1867C22.8047 44.3377 23.6838 44.4406 24.2581 44.4406C24.8364 44.4406 25.7141 44.3377 26.1661 44.1867C26.0775 43.8989 26.0137 43.6097 26.0137 43.6097C26.3537 43.5355 26.5907 43.4222 26.8172 43.2854C26.6467 42.9221 26.3366 42.1251 26.1674 41.6237C26.2403 41.5989 26.3158 41.5768 26.3901 41.5534C26.4526 41.1757 26.4409 40.686 26.3653 40.3227C26.3223 40.3122 26.2741 40.2992 26.2246 40.2862C26.5294 39.6441 26.9748 38.6023 27.1611 38.222C27.3668 37.7935 27.5505 36.2424 25.9057 36.4886Z" fill="currentColor"/>
<path fill-rule="evenodd" clip-rule="evenodd" d="M22.8936 28.7932C23.3689 28.9183 23.6294 28.8232 24.0852 28.7932C24.2714 28.7815 24.6595 28.904 24.5606 29.3962C24.5111 29.6424 24.5983 29.7726 24.6712 29.9471C24.2714 29.8976 23.8833 30.0708 23.5695 29.921C23.1358 29.7127 23.2191 29.1175 22.8936 28.7932Z" fill="currentColor"/>
<path fill-rule="evenodd" clip-rule="evenodd" d="M49.5051 23.6542C49.38 25.1585 48.2132 27.4388 46.8613 28.5939L47.7378 28.5809C48.6651 27.6889 50.22 26.0596 50.4467 23.0786C50.4467 23.0786 49.8437 23.4419 49.5051 23.6542Z" fill="currentColor"/>
<path fill-rule="evenodd" clip-rule="evenodd" d="M44.441 20.4465C44.5673 20.2681 44.5269 19.966 44.9541 19.854C45.3421 19.755 45.3695 20.0415 45.5323 20.0806C45.7563 20.1313 45.6964 20.1079 45.5687 20.2942C45.4451 20.4804 45.4828 20.7709 45.0947 20.8073C44.6662 20.8503 44.7144 20.6237 44.4982 20.6237C44.2586 20.6237 44.2781 20.5598 44.441 20.4465Z" fill="currentColor"/>
<path fill-rule="evenodd" clip-rule="evenodd" d="M57.1891 24.2311C56.8258 24.6296 55.6706 25.1088 54.2915 25.1701C54.5676 25.4592 55.0195 25.6727 55.3216 25.8225C54.9348 25.9097 54.3813 25.9241 53.8916 25.9476C54.117 26.3369 54.4556 26.837 54.5805 27.0493C54.1925 27.0493 53.8291 27.0258 53.3772 27.0012C53.6051 27.4257 53.6546 27.6145 53.8565 27.9662C53.5544 27.9662 52.9774 27.9766 52.6636 27.9284C52.7651 28.2175 52.9384 28.6043 53.0295 28.8309C52.8524 28.8309 52.5633 28.8309 52.3875 28.8439C51.059 30.6868 49.1915 32.6285 45.6805 32.4397C45.782 32.7431 45.8563 33.0569 45.8824 33.0569C46.4059 33.083 47.453 32.9893 48.2252 32.8603C48.7592 33.4528 49.7268 34.875 50.2321 37.0407C50.6215 37.2804 51.2362 38.3431 51.5357 39.6988C50.9093 40.0622 50.3454 40.2367 49.5315 40.3226C49.2293 38.597 48.3398 38.5372 47.9153 37.1046C47.311 37.1814 46.4476 36.7177 46.2079 35.8752H45.4187C45.2651 37.533 45.6297 39.0567 45.9306 40.3538C46.0699 40.9686 46.1975 41.5286 46.2444 42.0287C46.3446 43.0367 45.9345 46.9319 45.9188 48.539C46.6598 48.5117 47.2237 48.6979 47.1977 49.3139C46.0308 48.9505 44.0148 49.1745 43.0615 50.7568C42.8362 50.6293 42.6865 49.9754 43.0732 49.7801C42.6213 49.2917 42.2332 48.9505 41.4089 49.1849C41.7592 48.6015 42.5861 48.2225 45.067 48.8516C45.3185 47.9985 45.5437 42.5588 45.4942 41.3866C45.4995 41.1912 45.3822 40.8293 45.1973 40.3538H45.1947C44.597 38.8418 43.2816 36.2437 42.973 34.4843C42.547 34.4843 41.9206 34.5716 41.707 34.3592C41.1731 33.8253 40.0036 32.1023 39.7771 30.4223C39.3772 29.7464 38.7078 27.1692 40.7173 25.7236C42.1095 24.7182 45.3132 23.4927 45.2924 22.3232C45.2806 21.6213 44.0904 21.0977 43.6906 20.8072C43.2868 20.582 43.4353 20.3788 43.7765 20.0415C45.6557 18.2013 47.8879 20.0037 46.5843 22.2373C45.6232 23.8794 40.755 25.3094 41.8712 28.3933C42.9352 28.478 43.4522 28.8687 43.8494 29.3961C44.8171 29.0575 48.5651 27.4009 48.9285 22.6383C49.8675 22.0497 50.8338 21.4077 51.7493 20.6575C51.9251 21.8608 51.7245 29.5576 44.7793 31.3248C44.9668 31.9786 46.458 32.1674 47.3357 30.9862C48.19 31.1868 49.2176 30.4862 49.2436 29.822C50.0068 29.822 50.8208 28.9793 50.6957 28.1914C51.6347 27.8776 52.0749 26.6365 51.675 25.6975C52.4891 25.3328 52.7651 24.3692 52.4005 23.4276C53.0516 22.9873 53.2535 21.8608 52.7013 21.1472C53.0295 20.5441 52.9514 20.0415 52.7013 19.6417C53.9568 18.4748 55.5599 16.9953 56.5627 15.1929C56.6382 16.4341 55.9845 17.4629 55.2331 18.5881C56.5627 17.7364 56.8661 17.5345 57.6892 16.8833C57.4509 18.3003 55.823 19.6026 55.259 20.2433C56.034 19.9321 57.2152 19.3656 58.1046 18.8877C57.3389 20.4465 56.0106 21.3334 55.2213 21.8205C56.314 21.6213 57.0876 21.4597 57.8012 21.2084C57.1644 21.9233 55.9728 22.7243 54.621 23.1254C55.711 23.102 56.5731 22.9743 57.5147 22.6996C56.814 23.4276 55.7866 24.1191 54.5805 24.2676C55.8113 24.2676 56.034 24.3561 57.1891 24.2311ZM41.5235 40.3538C41.3724 40.7589 41.2448 41.1757 41.1445 41.6406C41.0559 42.0521 40.1417 41.9518 40.0166 41.6406C39.915 41.3866 39.7315 40.9204 39.514 40.3538C38.9905 38.9825 38.2755 37.0368 38.0984 36.2151C37.735 36.8024 37.3469 37.1163 36.9315 36.7413C38.4252 36.0744 37.8978 32.0502 37.3209 31.851C38.0358 31.2116 38.8368 33.6443 38.3731 35.4637C38.8186 36.7256 39.6963 39.3029 40.0479 40.3538C40.1235 40.5792 40.1755 40.7302 40.1925 40.7927C40.294 41.1157 40.7069 41.0884 40.8045 40.7927C40.8371 40.6821 40.8841 40.5349 40.9426 40.3538C41.2865 39.2326 42.0001 36.8337 41.8829 35.336C42.5861 35.4637 42.7881 36.1121 43.0368 36.9417C42.4572 38.3378 41.9168 39.2964 41.5235 40.3538ZM51.1594 14.7007C51.5357 15.3284 51.8236 16.4575 51.8236 17.4121C52.3028 16.9342 52.6154 16.1553 52.7756 15.5914C52.9891 16.0186 52.9644 17.1478 52.9149 17.6504C53.4515 17.1985 53.7926 16.5721 54.117 15.9313C54.182 16.3937 54.1925 16.7988 54.117 17.2506C52.9644 18.4748 51.0721 20.1079 49.0796 21.771C50.1592 19.5428 50.8338 17.6869 51.1594 14.7007ZM59.0945 21.6733C58.8965 21.7254 58.4302 21.8608 58.1294 21.8973C58.7051 21.3334 59.058 20.6445 59.058 20.0676C58.7819 20.1561 58.2792 20.3449 57.8285 20.4465C58.731 19.6794 59.2195 18.79 59.0085 17.6087C58.731 17.7508 58.3404 17.9748 57.9549 18.1375C58.7428 16.9212 58.731 15.8558 58.4055 15.2294C58.0552 15.555 57.6281 15.9417 57.1774 16.2205C57.4639 14.8166 57.4509 13.9141 56.8661 13.2889C56.2632 14.4142 55.7488 15.2528 54.9088 16.2557C54.9713 15.3284 54.871 14.1758 54.2667 13.5754C54.2667 13.5754 54.0935 14.8661 53.6416 15.2801C53.5309 14.0143 53.1415 13.3228 52.5633 12.6456C52.5633 12.6456 52.5242 13.9636 52.1648 14.7788C51.8613 13.6744 51.2974 12.8228 50.5707 12.0048C50.6215 14.4401 49.9456 19.027 47.9895 22.1109C47.7629 23.9393 47.5624 26.686 44.5801 28.3152C44.1529 28.0157 43.3988 27.6276 42.3348 27.6887C42.0587 26.3122 43.8651 25.0593 45.4187 24.0527C46.9919 23.0407 47.6717 22.1734 47.6379 20.819C47.6014 19.3422 46.5973 18.734 45.5568 18.6884C44.0904 18.6285 42.8987 19.9556 42.6213 20.5077C42.1968 20.707 40.9426 21.0977 40.4295 21.2332C39.8604 21.3855 39.2131 21.6213 38.8133 21.9598C39.0504 22.1109 39.7405 22.1604 40.0036 22.1278C40.4998 22.0523 42.0848 21.7618 43.6006 21.5717C44.1529 21.8712 45.0423 22.374 44.102 23.0277C42.8128 23.8548 42.2619 24.067 40.4412 25.019C37.5709 26.5232 38.4995 30.3077 39.2041 30.5864C39.2041 31.8628 40.3422 34.173 41.1171 34.9752C41.47 36.5784 41.0077 38.9721 40.5168 39.9645C40.1182 38.9877 39.4267 36.7269 38.9748 35.4102C39.4385 32.9189 38.6883 31.8276 38.1596 31.4017C37.6347 30.9745 36.8077 31.0878 36.2673 31.9538C37.0969 31.8628 37.373 32.9228 37.3547 34.0207C37.3339 35.336 36.9992 36.3935 36.0811 36.4013C36.154 37.5278 37.3704 37.8456 37.9733 37.3064C38.0684 37.5552 38.5541 39.0373 39.0178 40.3538C39.29 41.1327 39.5556 41.8581 39.7276 42.2293C39.9216 42.6498 41.319 42.7111 41.483 42.2293C41.7019 41.5858 41.879 41.1001 42.2293 40.3538C42.495 39.7822 42.8622 39.0528 43.4261 37.9823C43.8026 38.6335 44.304 39.6558 44.5917 40.3538C44.7285 40.6807 44.8196 40.936 44.83 41.0519C44.942 42.1342 44.8782 45.9396 44.5917 48.2225C41.4571 47.3669 40.5689 48.901 40.8424 50.0418C41.2942 49.5366 41.8829 49.6017 42.2462 49.8661C42.159 50.7047 42.3856 51.3064 43.2399 51.5565C44.1425 49.1745 47.3748 49.7032 47.6743 49.9013C47.6886 49.4389 48.125 48.2837 46.458 48.0468C46.5205 45.989 46.734 43.4703 46.8109 42.9441C46.8877 42.4207 46.9476 42.0912 46.6963 41.2668C46.622 41.0181 46.5322 40.7146 46.4371 40.3538C46.221 39.5204 45.9996 38.429 45.9839 37.2569C46.2705 37.5434 46.9606 37.7713 47.4373 37.6658C47.8006 39.2222 48.3255 38.7728 48.6042 39.4228C48.7449 39.7574 48.7761 40.0738 48.8152 40.3538C48.8516 40.6208 48.8946 40.8617 49.043 41.0662C50.154 41.1001 51.1008 40.8293 51.7805 40.3538C51.9876 40.208 52.1686 40.0453 52.3236 39.8603C52.0489 38.2063 51.5852 37.3924 50.7205 36.3921C50.4952 35.0338 49.8622 33.7953 48.9936 32.7001C50.0875 32.3381 51.1946 31.4537 51.774 30.8365C52.3028 30.7974 52.9032 30.3624 52.9514 29.5081C53.2535 29.4703 53.5165 29.4573 53.7536 29.4053C53.7301 29.1681 53.6676 28.8178 53.6285 28.6043C54.031 28.6043 54.4204 28.5938 54.7941 28.5561C54.6821 28.2409 54.5454 27.9153 54.4321 27.6783C54.8346 27.6783 55.3333 27.651 55.7345 27.6276C55.5221 27.229 55.3606 26.8761 55.2331 26.5232C55.6966 26.4724 56.4142 26.3617 57.0003 26.2223C56.814 26.0217 56.6005 25.8225 56.2736 25.5087C57.8012 25.0593 58.4681 23.9927 58.5435 23.5292C58.3182 23.5292 57.8533 23.6268 57.5798 23.6047C58.4302 23.102 59.0085 22.4104 59.0945 21.6733Z" fill="currentColor"/>
<mask id="mask0_724_341" style="mask-type:alpha" maskUnits="userSpaceOnUse" x="7" y="37" width="44" height="19">
<path d="M7.20703 37.5483H50.6085V55.9218H7.20703V37.5483Z" fill="white"/>
</mask>
<g mask="url(#mask0_724_341)">
<path fill-rule="evenodd" clip-rule="evenodd" d="M50.6087 38.5437C50.5592 38.3691 50.3326 38.1413 50.0591 37.7179C49.7439 37.7935 49.4183 37.8157 49.0029 37.7935C49.2543 38.3431 49.2543 38.6673 49.2543 38.6465C49.6319 38.7221 50.106 38.6673 50.6087 38.5437Z" fill="currentColor"/>
<path fill-rule="evenodd" clip-rule="evenodd" d="M47.8502 55.3632H8.64107C8.46525 54.1129 8.22823 53.3133 8.01334 52.6374H48.4779C48.263 53.3133 48.0247 54.1129 47.8502 55.3632ZM21.2763 46.9657C21.6396 47.5063 21.9834 47.8918 22.1475 48.3267C22.3207 48.7695 22.21 49.0377 21.8792 49.4988C21.1342 50.5458 19.8462 51.4418 18.8305 51.9953H14.9001C17.3679 51.2934 20.7071 49.1784 21.2763 46.9657ZM18.893 46.2417C19.2186 45.6413 19.9948 45.4564 20.5247 46.1674C20.7514 46.467 20.6498 47.2705 19.7226 48.2707C19.0506 47.6599 18.5517 46.8785 18.893 46.2417ZM34.5638 49.4988C34.2343 49.0377 34.1211 48.7695 34.2942 48.3267C34.4583 47.8918 34.8047 47.5063 35.1668 46.9657C35.7347 49.1784 39.0725 51.2934 41.5418 51.9953H37.6113C36.5955 51.4418 35.3101 50.5458 34.5638 49.4988ZM35.917 46.1674C36.4483 45.4564 37.2245 45.6413 37.5475 46.2417C37.8874 46.8785 37.3899 47.6599 36.7192 48.2707C35.7919 47.2705 35.693 46.467 35.917 46.1674ZM48.6277 51.7948C48.207 51.9185 47.7018 51.9953 46.9359 51.9953H45.9839C42.7243 51.9303 39.3682 50.9587 37.3157 48.8607C40.156 45.989 36.8207 43.6344 35.0145 46.0646C34.4506 46.8251 34.0012 47.363 33.6106 48.0988C33.2941 48.6913 33.5338 49.2918 34.237 50.2047C34.6251 50.7087 35.5862 51.4848 36.3715 51.9953H20.0702C20.8569 51.4848 21.8154 50.7087 22.2035 50.2047C22.9068 49.2918 23.1477 48.6913 22.8312 48.0988C22.4418 47.363 21.9912 46.8251 21.4273 46.0646C19.6222 43.6344 16.2883 45.989 19.1287 48.8607C17.0723 50.9587 13.7202 51.9303 10.4565 51.9953H9.5566C8.79213 51.9953 8.28423 51.9185 7.86357 51.7948C7.18637 51.632 7.0353 51.9211 7.39995 53.0841C7.6513 53.8629 7.85186 55.1313 7.93781 56H48.5534C48.6407 55.1313 48.8412 53.8629 49.09 53.0841C49.4547 51.9211 49.3036 51.632 48.6277 51.7948Z" fill="currentColor"/>
</g>
<path fill-rule="evenodd" clip-rule="evenodd" d="M13.3262 54.3552C13.3184 54.3552 13.3158 54.35 13.3184 54.3396L13.6102 53.5621C13.6115 53.5582 13.6154 53.5464 13.6231 53.5464C13.6296 53.5464 13.6323 53.5582 13.6336 53.5621L13.9214 54.3448C13.924 54.35 13.9214 54.3552 13.9096 54.3552H13.3262ZM13.954 54.4697C13.9656 54.4697 13.9722 54.475 13.9761 54.4867L14.0855 54.7784C14.0972 54.8071 14.0816 54.8279 14.0646 54.8332C14.0412 54.8332 14.0321 54.8397 14.0321 54.8552C14.0321 54.8696 14.0595 54.8696 14.1012 54.8749C14.2874 54.8774 14.458 54.8774 14.5413 54.8774C14.6272 54.8774 14.6468 54.8748 14.6468 54.8552C14.6468 54.8358 14.6351 54.8332 14.6168 54.8332C14.5908 54.8332 14.5543 54.8332 14.5205 54.8227C14.4696 54.8122 14.4046 54.7823 14.3147 54.5713C14.1662 54.2184 13.7951 53.2703 13.7391 53.1466C13.7157 53.088 13.7027 53.0685 13.6791 53.0685C13.6583 53.0685 13.644 53.0933 13.6154 53.1609L13.0319 54.6169C12.9863 54.7354 12.9434 54.8162 12.834 54.8279C12.8171 54.8331 12.7845 54.8332 12.7637 54.8332C12.7454 54.8332 12.7363 54.8397 12.7363 54.8552C12.7363 54.8748 12.7507 54.8774 12.7792 54.8774C12.8991 54.8774 13.028 54.8696 13.0527 54.8696C13.1256 54.8696 13.226 54.8774 13.3002 54.8774C13.3262 54.8774 13.3392 54.8748 13.3392 54.8552C13.3392 54.8397 13.3341 54.8332 13.3054 54.8332H13.2702C13.1987 54.8332 13.1778 54.8018 13.1778 54.7629C13.1778 54.7354 13.1882 54.6756 13.2117 54.6169L13.2585 54.4958C13.2651 54.475 13.2702 54.4697 13.2794 54.4697H13.954Z" fill="currentColor"/>
<path fill-rule="evenodd" clip-rule="evenodd" d="M15.1143 54.1325C15.1143 54.4699 15.2029 54.643 15.3214 54.7499C15.4907 54.9022 15.7147 54.9087 15.8371 54.9087C15.9881 54.9087 16.1549 54.8839 16.3203 54.7407C16.5156 54.5727 16.5416 54.3005 16.5416 54.0414V53.7926C16.5416 53.4397 16.5416 53.3746 16.5455 53.299C16.5481 53.221 16.5664 53.1779 16.6316 53.1675C16.6589 53.1623 16.6719 53.161 16.6992 53.161C16.7267 53.161 16.7396 53.1558 16.7396 53.1414C16.7396 53.1232 16.724 53.1219 16.6901 53.1219C16.6029 53.1219 16.4544 53.1259 16.4271 53.1259C16.4245 53.1259 16.2773 53.1219 16.1588 53.1219C16.1249 53.1219 16.1105 53.1232 16.1105 53.1414C16.1105 53.1558 16.1236 53.161 16.151 53.161C16.1757 53.161 16.216 53.1623 16.2331 53.1675C16.3099 53.1858 16.328 53.221 16.3333 53.299C16.3372 53.3746 16.3372 53.4397 16.3372 53.7926V54.0844C16.3372 54.3239 16.332 54.5349 16.2031 54.6599C16.1107 54.7511 15.9855 54.7837 15.884 54.7837C15.8032 54.7837 15.6977 54.7785 15.5935 54.686C15.4776 54.5962 15.4126 54.4555 15.4126 54.1182V53.7926C15.4126 53.4397 15.4126 53.3746 15.4139 53.299C15.4204 53.221 15.4399 53.1779 15.5011 53.1675C15.5297 53.1623 15.5454 53.161 15.5701 53.161C15.5935 53.161 15.6065 53.1558 15.6065 53.1414C15.6065 53.1232 15.591 53.1219 15.5545 53.1219C15.4725 53.1219 15.3253 53.1259 15.2705 53.1259C15.2003 53.1259 15.0531 53.1219 14.9307 53.1219C14.8968 53.1219 14.8799 53.1232 14.8799 53.1414C14.8799 53.1558 14.8942 53.161 14.9176 53.161C14.9528 53.161 14.9905 53.1623 15.0101 53.1675C15.087 53.1858 15.1052 53.221 15.1091 53.299C15.1143 53.3746 15.1143 53.4397 15.1143 53.7926V54.1325Z" fill="currentColor"/>
<path fill-rule="evenodd" clip-rule="evenodd" d="M17.8162 53.7574C17.8162 53.5751 17.8162 53.3707 17.8174 53.2939C17.8174 53.2652 17.8253 53.2548 17.8475 53.243C17.8656 53.2326 17.9516 53.2261 17.9972 53.2261C18.1782 53.2261 18.4426 53.2548 18.6549 53.4619C18.7551 53.5582 18.8789 53.7444 18.8789 54.0414C18.8789 54.2797 18.8319 54.4959 18.6848 54.617C18.5454 54.7407 18.3879 54.7876 18.1509 54.7876C17.966 54.7876 17.8761 54.7355 17.8475 54.6978C17.8279 54.6703 17.8227 54.5766 17.8201 54.5141C17.8174 54.475 17.8162 54.294 17.8162 54.0505V53.7574ZM17.527 54.2003C17.527 54.4151 17.527 54.6001 17.5127 54.6978C17.5036 54.7629 17.4946 54.8163 17.4463 54.8228C17.4254 54.8279 17.3968 54.8332 17.363 54.8332C17.3356 54.8332 17.3239 54.8397 17.3239 54.8554C17.3239 54.8696 17.3421 54.8774 17.3721 54.8774C17.4645 54.8774 17.6117 54.8697 17.6638 54.8697C17.7823 54.8697 17.9894 54.897 18.1587 54.897C18.5885 54.897 18.8307 54.7303 18.9388 54.621C19.0677 54.4868 19.1915 54.2693 19.1915 53.9698C19.1915 53.6975 19.0807 53.5035 18.9661 53.389C18.7134 53.1219 18.3241 53.1219 18.035 53.1219C17.8943 53.1219 17.7485 53.1259 17.6768 53.1259C17.6117 53.1259 17.4645 53.1219 17.3421 53.1219C17.307 53.1219 17.29 53.1232 17.29 53.1414C17.29 53.1558 17.3056 53.161 17.3304 53.161C17.363 53.161 17.4034 53.1623 17.4215 53.1675C17.4971 53.1858 17.5166 53.221 17.5205 53.299C17.527 53.3746 17.527 53.4397 17.527 53.7926V54.2003Z" fill="currentColor"/>
<path fill-rule="evenodd" clip-rule="evenodd" d="M20.0912 54.3552C20.0821 54.3552 20.0795 54.35 20.0821 54.3396L20.3738 53.5621C20.3764 53.5582 20.3803 53.5464 20.3868 53.5464C20.3933 53.5464 20.396 53.5582 20.3986 53.5621L20.6864 54.3448C20.689 54.35 20.6864 54.3552 20.6747 54.3552H20.0912ZM20.7189 54.4697C20.7293 54.4697 20.7359 54.475 20.7424 54.4867L20.8505 54.7784C20.8609 54.8071 20.8452 54.8279 20.8283 54.8332C20.8049 54.8332 20.7957 54.8397 20.7957 54.8552C20.7957 54.8696 20.8244 54.8696 20.8661 54.8749C21.0523 54.8774 21.2217 54.8774 21.305 54.8774C21.3909 54.8774 21.4117 54.8748 21.4117 54.8552C21.4117 54.8358 21.4001 54.8332 21.3818 54.8332C21.3532 54.8332 21.3193 54.8332 21.2842 54.8227C21.2347 54.8122 21.1682 54.7823 21.0796 54.5713C20.9312 54.2184 20.5601 53.2703 20.5041 53.1466C20.4806 53.088 20.4663 53.0685 20.4454 53.0685C20.4233 53.0685 20.4076 53.0933 20.3803 53.1609L19.7969 54.6169C19.7513 54.7354 19.707 54.8162 19.6002 54.8279C19.582 54.8331 19.5494 54.8332 19.5273 54.8332C19.5091 54.8332 19.5 54.8397 19.5 54.8552C19.5 54.8748 19.513 54.8774 19.5429 54.8774C19.6653 54.8774 19.793 54.8696 19.8177 54.8696C19.8893 54.8696 19.9909 54.8774 20.0652 54.8774C20.0899 54.8774 20.1029 54.8748 20.1029 54.8552C20.1029 54.8397 20.0977 54.8332 20.0691 54.8332H20.0339C19.9623 54.8332 19.9427 54.8018 19.9427 54.7629C19.9427 54.7354 19.9532 54.6756 19.9753 54.6169L20.0235 54.4958C20.0288 54.475 20.0339 54.4697 20.0443 54.4697H20.7189Z" fill="currentColor"/>
<path fill-rule="evenodd" clip-rule="evenodd" d="M22.9882 53.3577C23.0585 53.2548 23.1041 53.1897 23.1574 53.1779C23.1914 53.1662 23.2187 53.161 23.2408 53.161C23.2655 53.161 23.2799 53.1558 23.2799 53.1414C23.2799 53.1259 23.2629 53.1219 23.2382 53.1219C23.1523 53.1219 23.0559 53.1259 23.0103 53.1259C22.966 53.1259 22.8684 53.1219 22.7772 53.1219C22.7446 53.1219 22.729 53.1259 22.729 53.1414C22.729 53.1558 22.742 53.161 22.7564 53.161C22.7746 53.161 22.8071 53.161 22.8319 53.1675C22.8527 53.1779 22.8697 53.1949 22.8697 53.2118C22.8697 53.2261 22.8644 53.2652 22.8462 53.2978C22.8098 53.3629 22.5962 53.6884 22.5284 53.7875C22.4399 53.6338 22.3343 53.4619 22.2328 53.2756C22.2198 53.2495 22.2119 53.221 22.2119 53.2118C22.2119 53.1949 22.2185 53.1779 22.238 53.1715C22.2575 53.1623 22.2875 53.161 22.3019 53.161C22.3214 53.161 22.337 53.1558 22.337 53.1414C22.337 53.1232 22.3214 53.1219 22.2888 53.1219C22.2029 53.1219 22.0752 53.1259 22.0414 53.1259C21.9307 53.1259 21.7444 53.1219 21.6884 53.1219C21.6559 53.1219 21.6415 53.1232 21.6415 53.1363C21.6415 53.1558 21.6507 53.161 21.6637 53.161C21.6884 53.161 21.725 53.1662 21.7614 53.1779C21.8447 53.2053 21.8981 53.2561 21.9555 53.3524L22.3552 54.0127L21.9124 54.6495C21.8317 54.7589 21.7887 54.8019 21.721 54.8214C21.6845 54.8332 21.6507 54.8332 21.635 54.8332C21.6155 54.8332 21.6025 54.8397 21.6025 54.8593C21.6025 54.8697 21.613 54.8774 21.6389 54.8774H21.6767C21.7132 54.8774 21.8291 54.8697 21.8721 54.8697C21.9294 54.8697 22.0765 54.8774 22.0883 54.8774H22.1325C22.1625 54.8774 22.1795 54.8749 22.1795 54.8593C22.1795 54.8397 22.1638 54.8332 22.1508 54.8332C22.1325 54.8332 22.1117 54.8332 22.0961 54.8279C22.0765 54.8228 22.0543 54.8124 22.0531 54.7876C22.0492 54.7629 22.0622 54.729 22.0857 54.6925L22.4282 54.1378C22.5349 54.3123 22.6678 54.5441 22.7967 54.7681C22.8136 54.7967 22.8032 54.8214 22.7928 54.8214C22.7719 54.8279 22.7603 54.8332 22.7603 54.8501C22.7603 54.8644 22.7772 54.8697 22.8383 54.8749C23.0168 54.8774 23.2004 54.8774 23.2564 54.8774H23.3254C23.3502 54.8774 23.3698 54.8697 23.3698 54.8554C23.3698 54.8397 23.3555 54.8332 23.3411 54.8332C23.3177 54.8332 23.2903 54.8332 23.2512 54.8214C23.1914 54.8006 23.1549 54.7746 23.1171 54.7199C23.0585 54.6495 22.6821 54.0179 22.6079 53.9046L22.9882 53.3577Z" fill="currentColor"/>
<path fill-rule="evenodd" clip-rule="evenodd" d="M26.1573 54.3552C26.1469 54.3552 26.1469 54.35 26.1469 54.3396L26.4386 53.5621C26.4412 53.5582 26.4451 53.5464 26.4516 53.5464C26.4595 53.5464 26.4608 53.5582 26.4647 53.5621L26.7603 54.3448C26.7642 54.35 26.7603 54.3565 26.7485 54.3565L26.1573 54.3552ZM26.7864 54.4697C26.7981 54.4697 26.8072 54.475 26.8085 54.4867L26.914 54.7784C26.9257 54.8071 26.9101 54.8279 26.8931 54.8332C26.8697 54.8332 26.8605 54.8397 26.8605 54.8552C26.8605 54.8696 26.8906 54.8696 26.9309 54.8749C27.1171 54.8774 27.2865 54.8774 27.3698 54.8774C27.4557 54.8774 27.4765 54.8748 27.4765 54.8552C27.4765 54.8358 27.4649 54.8332 27.4466 54.8332C27.418 54.8332 27.3841 54.8332 27.349 54.8227C27.2981 54.8122 27.2317 54.7823 27.1445 54.5713C26.9947 54.2184 26.6236 53.2703 26.5689 53.1466C26.5454 53.088 26.5312 53.0685 26.509 53.0685C26.4881 53.0685 26.4738 53.0933 26.4451 53.1609L25.863 54.6169C25.8161 54.7354 25.7718 54.8162 25.6651 54.8279C25.6468 54.8331 25.613 54.8332 25.5921 54.8332C25.5739 54.8332 25.5635 54.8397 25.5635 54.8552C25.5635 54.8748 25.5792 54.8774 25.6104 54.8774C25.7301 54.8774 25.8578 54.8696 25.8838 54.8696C25.9541 54.8696 26.0545 54.8774 26.1287 54.8774C26.1561 54.8774 26.1704 54.8748 26.1704 54.8552C26.1704 54.8397 26.1612 54.8332 26.1339 54.8332H26.0987C26.0258 54.8332 26.0063 54.8018 26.0063 54.7629C26.0063 54.7354 26.0193 54.6756 26.0401 54.6169L26.0909 54.4958C26.0961 54.475 26.0987 54.4697 26.1117 54.4697H26.7864Z" fill="currentColor"/>
<path fill-rule="evenodd" clip-rule="evenodd" d="M28.212 54.2003C28.212 54.4152 28.212 54.6001 28.2016 54.6978C28.1951 54.7629 28.1807 54.8163 28.1352 54.8228C28.113 54.828 28.0856 54.8332 28.0505 54.8332C28.0232 54.8332 28.0127 54.8397 28.0127 54.8554C28.0127 54.8697 28.0296 54.8775 28.0597 54.8775C28.1521 54.8775 28.2992 54.8697 28.3527 54.8697C28.4165 54.8697 28.5649 54.8775 28.7173 54.8775C28.7421 54.8775 28.7602 54.8697 28.7602 54.8554C28.7602 54.8397 28.7498 54.8332 28.7238 54.8332C28.6887 54.8332 28.6366 54.828 28.6053 54.8228C28.535 54.8163 28.5207 54.7629 28.5154 54.6978C28.5037 54.6001 28.5037 54.4152 28.5037 54.2003V53.2496L28.7954 53.2548C29.0038 53.26 29.0663 53.3239 29.0702 53.389L29.0728 53.4124C29.0754 53.4489 29.0807 53.4605 29.0976 53.4605C29.1132 53.4605 29.1158 53.4449 29.1197 53.4215C29.1197 53.3616 29.1275 53.2015 29.1275 53.1559C29.1275 53.118 29.1249 53.1064 29.108 53.1064C29.0885 53.1064 29.0337 53.1259 28.8853 53.1259H27.9658C27.889 53.1259 27.8005 53.1219 27.7327 53.1129C27.6742 53.1076 27.652 53.0842 27.6337 53.0842C27.6194 53.0842 27.6117 53.1025 27.6051 53.135C27.6025 53.152 27.5557 53.3616 27.5557 53.3968C27.5557 53.4255 27.5622 53.4345 27.5765 53.4345C27.5921 53.4345 27.5986 53.4255 27.6025 53.4072C27.6077 53.3903 27.6194 53.3616 27.6416 53.3239C27.6767 53.2756 27.7327 53.264 27.8681 53.2561L28.212 53.2496V54.2003Z" fill="currentColor"/>
<path fill-rule="evenodd" clip-rule="evenodd" d="M32.2549 54.0127C32.2549 54.0022 32.2602 53.9932 32.2719 53.9932C32.3097 53.9932 32.5558 53.9932 32.6157 54.0022C32.6886 54.0087 32.7212 54.0504 32.733 54.0843C32.7434 54.1078 32.746 54.1416 32.746 54.1547C32.746 54.1728 32.7525 54.1872 32.7681 54.1872C32.7902 54.1872 32.7902 54.1663 32.7902 54.1416C32.7902 54.1312 32.7928 54.0192 32.8006 53.9697C32.8059 53.9046 32.8175 53.8447 32.8175 53.8303C32.8175 53.8187 32.8124 53.8069 32.8045 53.8069C32.7902 53.8069 32.785 53.8199 32.7733 53.8342C32.7511 53.8629 32.7186 53.872 32.6717 53.8773C32.6391 53.8773 32.6092 53.8773 32.5688 53.8773L32.2719 53.8824C32.2575 53.8824 32.2549 53.872 32.2549 53.859V53.2795C32.2549 53.2508 32.2628 53.243 32.2771 53.243L32.6352 53.2508C32.7212 53.2548 32.7719 53.2886 32.789 53.3224C32.802 53.3563 32.802 53.3941 32.802 53.411C32.8045 53.4344 32.8071 53.4487 32.8241 53.4487C32.841 53.4487 32.8462 53.4332 32.8475 53.4123C32.8527 53.3888 32.8554 53.2495 32.8566 53.2261C32.8658 53.1662 32.8788 53.1363 32.8788 53.1219C32.8788 53.1076 32.8697 53.1023 32.8605 53.1023C32.8515 53.1023 32.8384 53.1076 32.8241 53.1127C32.802 53.1219 32.7733 53.1219 32.7277 53.1232C32.6756 53.1258 32.2042 53.1258 32.1156 53.1258C32.0492 53.1258 31.902 53.1219 31.781 53.1219C31.747 53.1219 31.7275 53.1232 31.7275 53.1467C31.7275 53.1557 31.7445 53.161 31.7679 53.161C31.7991 53.161 31.8382 53.1622 31.859 53.1675C31.9359 53.1857 31.9555 53.2208 31.958 53.299C31.9645 53.3745 31.9645 53.4397 31.9645 53.7926V54.2003C31.9645 54.4255 31.9645 54.6 31.9502 54.6977C31.9411 54.7628 31.9319 54.8163 31.8838 54.8228C31.8616 54.8279 31.837 54.8332 31.7991 54.8332C31.7744 54.8332 31.7653 54.8397 31.7653 54.8552C31.7653 54.8748 31.781 54.8774 31.8122 54.8774C31.902 54.8774 32.0492 54.8696 32.1065 54.8696C32.1703 54.8696 32.3174 54.8774 32.4607 54.8774C32.4972 54.8774 32.5128 54.8696 32.5128 54.8552C32.5128 54.8397 32.5037 54.8332 32.4738 54.8332C32.4412 54.8332 32.3904 54.8279 32.3579 54.8228C32.2875 54.8163 32.2732 54.7628 32.2667 54.6977C32.2549 54.6 32.2549 54.4255 32.2549 54.2003V54.0127Z" fill="currentColor"/>
<path fill-rule="evenodd" clip-rule="evenodd" d="M33.7422 54.2003C33.7422 54.4308 33.7422 54.6157 33.7318 54.7094C33.7253 54.7785 33.7098 54.8163 33.6628 54.8228C33.6433 54.8279 33.6133 54.8332 33.5808 54.8332C33.5508 54.8332 33.543 54.8397 33.543 54.8554C33.543 54.8697 33.56 54.8774 33.5886 54.8774C33.6811 54.8774 33.8282 54.8697 33.8829 54.8697C33.9428 54.8697 34.0926 54.8774 34.2437 54.8774C34.2697 54.8774 34.2892 54.8697 34.2892 54.8554C34.2892 54.8397 34.2775 54.8332 34.2502 54.8332C34.215 54.8332 34.1642 54.8279 34.133 54.8228C34.0627 54.8163 34.047 54.7746 34.0405 54.7134C34.0301 54.6157 34.0301 54.4308 34.0301 54.2003V53.7926C34.0301 53.4397 34.0301 53.3746 34.0353 53.299C34.0405 53.221 34.0574 53.1779 34.1212 53.1675C34.1499 53.1623 34.1668 53.161 34.1929 53.161C34.2137 53.161 34.2267 53.1558 34.2267 53.1363C34.2267 53.1232 34.2098 53.1219 34.1786 53.1219C34.0926 53.1219 33.9546 53.1259 33.8947 53.1259C33.8282 53.1259 33.6811 53.1219 33.5938 53.1219C33.5561 53.1219 33.5391 53.1232 33.5391 53.1363C33.5391 53.1558 33.5508 53.161 33.5756 53.161C33.6029 53.161 33.6342 53.1623 33.6589 53.1715C33.7098 53.1831 33.7318 53.221 33.7371 53.299C33.7422 53.3746 33.7422 53.4397 33.7422 53.7926V54.2003Z" fill="currentColor"/>
<path fill-rule="evenodd" clip-rule="evenodd" d="M35.4219 53.7574C35.4219 53.5751 35.4219 53.3707 35.4219 53.2939C35.4219 53.2652 35.4311 53.2548 35.4506 53.243C35.4689 53.2326 35.5561 53.2261 35.6029 53.2261C35.7827 53.2261 36.0497 53.2548 36.2619 53.4619C36.3596 53.5582 36.4846 53.7444 36.4846 54.0414C36.4846 54.2797 36.4378 54.4959 36.2893 54.617C36.1499 54.7407 35.9924 54.7876 35.7554 54.7876C35.5704 54.7876 35.4805 54.7355 35.4506 54.6978C35.4324 54.6703 35.4272 54.5766 35.4272 54.5141C35.4219 54.475 35.4219 54.294 35.4219 54.0505V53.7574ZM35.1303 54.2003C35.1303 54.4151 35.1303 54.6001 35.1172 54.6978C35.1093 54.7629 35.0964 54.8163 35.0508 54.8228C35.0299 54.8279 35.0013 54.8332 34.9674 54.8332C34.9401 54.8332 34.9284 54.8397 34.9284 54.8554C34.9284 54.8696 34.9466 54.8774 34.9765 54.8774C35.0704 54.8774 35.2175 54.8697 35.2683 54.8697C35.3855 54.8697 35.5964 54.897 35.7644 54.897C36.1929 54.897 36.4364 54.7303 36.5445 54.621C36.6722 54.4868 36.796 54.2693 36.796 53.9698C36.796 53.6975 36.6878 53.5035 36.5693 53.389C36.3166 53.1219 35.9299 53.1219 35.6394 53.1219C35.5001 53.1219 35.3529 53.1259 35.2813 53.1259C35.2175 53.1259 35.0704 53.1219 34.9466 53.1219C34.9114 53.1219 34.8945 53.1232 34.8945 53.1414C34.8945 53.1558 34.9114 53.161 34.9348 53.161C34.9674 53.161 35.0065 53.1623 35.0274 53.1675C35.1028 53.1858 35.1211 53.221 35.1276 53.299C35.1302 53.3746 35.1303 53.4397 35.1303 53.7926V54.2003Z" fill="currentColor"/>
<path fill-rule="evenodd" clip-rule="evenodd" d="M37.611 54.2003C37.611 54.4151 37.611 54.6 37.5992 54.6977C37.5902 54.7628 37.5784 54.8163 37.5328 54.8228C37.5108 54.8279 37.4847 54.8332 37.4495 54.8332C37.4208 54.8332 37.4118 54.8397 37.4118 54.8552C37.4118 54.8696 37.4287 54.8774 37.4587 54.8774C37.5524 54.8774 37.6983 54.8696 37.7517 54.8696C37.8871 54.8696 38.0421 54.8839 38.3937 54.8839C38.4822 54.8839 38.5044 54.8839 38.5188 54.8214C38.5318 54.7784 38.55 54.617 38.55 54.5662C38.55 54.544 38.55 54.5192 38.5318 54.5192C38.5148 54.5192 38.5109 54.5349 38.5057 54.5571C38.4887 54.6495 38.4614 54.7029 38.4015 54.729C38.3403 54.7537 38.2427 54.7537 38.1828 54.7537C37.9457 54.7537 37.9093 54.7198 37.9053 54.5622C37.9014 54.4958 37.9053 54.2797 37.9053 54.2003V54.0179C37.9053 54.0075 37.9053 53.9971 37.9183 53.9971C37.9743 53.9971 38.2036 54.0022 38.2492 54.0075C38.3351 54.0127 38.3677 54.0466 38.3781 54.0934C38.3846 54.1272 38.3846 54.1533 38.3885 54.1728C38.3885 54.1872 38.3924 54.1963 38.4093 54.1963C38.4302 54.1963 38.4302 54.1728 38.4302 54.1533C38.4302 54.1377 38.4341 54.0413 38.438 54.0022C38.4445 53.8824 38.4563 53.8407 38.4563 53.8303C38.4563 53.816 38.4497 53.8069 38.4392 53.8069C38.4302 53.8069 38.4211 53.8238 38.4041 53.8395C38.3832 53.8629 38.3481 53.8668 38.2921 53.8773C38.2374 53.8824 37.9704 53.8824 37.9209 53.8824C37.9053 53.8824 37.9053 53.8668 37.9053 53.8551V53.2652C37.9053 53.2495 37.9093 53.243 37.9209 53.243C37.9653 53.243 38.2101 53.2495 38.2504 53.2508C38.3677 53.2652 38.3885 53.2938 38.4041 53.3355C38.4172 53.3628 38.4211 53.4019 38.4211 53.4214C38.4211 53.4397 38.4249 53.454 38.4392 53.454C38.4563 53.454 38.4614 53.4344 38.4628 53.4253C38.4693 53.3967 38.4718 53.2938 38.4744 53.2742C38.4823 53.1662 38.4952 53.1363 38.4952 53.1219C38.4952 53.1076 38.4901 53.1023 38.4783 53.1023C38.4693 53.1023 38.4536 53.1062 38.4419 53.1076C38.4249 53.1127 38.3885 53.1219 38.3416 53.1232C38.2999 53.1258 37.8363 53.1258 37.7607 53.1258C37.6982 53.1258 37.5524 53.1219 37.4287 53.1219C37.3923 53.1219 37.3779 53.1232 37.3779 53.1414C37.3779 53.1557 37.3896 53.161 37.417 53.161C37.4495 53.161 37.4872 53.1622 37.5055 53.1675C37.5837 53.1857 37.6019 53.2208 37.6071 53.299C37.611 53.3745 37.611 53.4397 37.611 53.7926V54.2003Z" fill="currentColor"/>
<path fill-rule="evenodd" clip-rule="evenodd" d="M39.7068 53.7926C39.7068 53.4397 39.7068 53.3746 39.7095 53.299C39.7133 53.221 39.7342 53.1779 39.794 53.1675C39.8253 53.1623 39.8618 53.161 39.8865 53.161C39.9126 53.161 39.9269 53.1558 39.9269 53.1414C39.9269 53.1232 39.9113 53.1219 39.8787 53.1219C39.7889 53.1219 39.6195 53.1259 39.5635 53.1259C39.4998 53.1259 39.3539 53.1219 39.2444 53.1219C39.2093 53.1219 39.1963 53.1232 39.1963 53.1414C39.1963 53.1558 39.208 53.161 39.2328 53.161C39.2653 53.161 39.2914 53.1623 39.3096 53.1675C39.3878 53.1858 39.406 53.221 39.4112 53.299C39.4164 53.3746 39.4164 53.4397 39.4164 53.7926V54.2003C39.4164 54.4151 39.4164 54.6001 39.402 54.6978C39.3955 54.7629 39.3839 54.8163 39.3356 54.8228C39.3148 54.8279 39.2875 54.8332 39.2523 54.8332C39.2236 54.8332 39.2132 54.8397 39.2132 54.8554C39.2132 54.8697 39.2302 54.8774 39.2615 54.8774C39.3539 54.8774 39.4998 54.8697 39.5545 54.8697C39.7407 54.8697 39.8944 54.8839 40.2304 54.8839C40.3515 54.8839 40.3619 54.8749 40.3776 54.8214C40.3945 54.7511 40.41 54.5819 40.41 54.5532C40.41 54.5245 40.4088 54.5141 40.3919 54.5141C40.3749 54.5141 40.3697 54.5245 40.3684 54.5519C40.3619 54.5909 40.3359 54.6561 40.3072 54.686C40.2499 54.7499 40.1575 54.7511 40.0351 54.7511C39.854 54.7511 39.7928 54.7355 39.7537 54.7029C39.7068 54.6599 39.7068 54.5011 39.7068 54.2003V53.7926Z" fill="currentColor"/>
<path fill-rule="evenodd" clip-rule="evenodd" d="M41.1536 54.2003C41.1536 54.4308 41.1536 54.6157 41.1445 54.7094C41.1355 54.7785 41.1211 54.8163 41.0756 54.8228C41.0547 54.8279 41.0274 54.8332 40.9922 54.8332C40.9648 54.8332 40.9557 54.8397 40.9557 54.8554C40.9557 54.8697 40.9726 54.8774 41.0013 54.8774C41.0976 54.8774 41.2409 54.8697 41.2943 54.8697C41.3556 54.8697 41.504 54.8774 41.659 54.8774C41.6798 54.8774 41.702 54.8697 41.702 54.8554C41.702 54.8397 41.6902 54.8332 41.6615 54.8332C41.6277 54.8332 41.5808 54.8279 41.5444 54.8228C41.4754 54.8163 41.4584 54.7746 41.4519 54.7134C41.4428 54.6157 41.4428 54.4308 41.4428 54.2003V53.7926C41.4428 53.4397 41.4428 53.3746 41.4467 53.299C41.4519 53.221 41.4727 53.1779 41.5326 53.1675C41.5639 53.1623 41.5808 53.161 41.603 53.161C41.6277 53.161 41.6421 53.1558 41.6421 53.1363C41.6421 53.1232 41.6238 53.1219 41.5925 53.1219C41.504 53.1219 41.3672 53.1259 41.31 53.1259C41.2409 53.1259 41.0976 53.1219 41.0078 53.1219C40.9687 53.1219 40.9492 53.1232 40.9492 53.1363C40.9492 53.1558 40.9648 53.161 40.9883 53.161C41.0169 53.161 41.0469 53.1623 41.0716 53.1715C41.1211 53.1831 41.1471 53.221 41.1498 53.299C41.1536 53.3746 41.1536 53.4397 41.1536 53.7926V54.2003Z" fill="currentColor"/>
<path fill-rule="evenodd" clip-rule="evenodd" d="M42.755 54.9088C42.8774 54.9088 43.0077 54.8892 43.1222 54.8124C43.2915 54.7082 43.3437 54.5455 43.3437 54.4099C43.3437 54.1873 43.2394 54.0349 42.9607 53.8187L42.8969 53.768C42.7055 53.6234 42.6508 53.5413 42.6508 53.4332C42.6508 53.2939 42.755 53.1949 42.9242 53.1949C43.0767 53.1949 43.1431 53.264 43.1769 53.3082C43.2277 53.3681 43.2394 53.4397 43.2394 53.4619C43.2394 53.4905 43.2472 53.4996 43.2629 53.4996C43.2824 53.4996 43.2889 53.4853 43.2889 53.4332C43.2889 53.2509 43.2981 53.1858 43.2981 53.1559C43.2981 53.1363 43.2863 53.135 43.2655 53.1259C43.2069 53.1076 43.1079 53.0842 42.9568 53.0842C42.6326 53.0842 42.419 53.2705 42.419 53.5296C42.419 53.7106 42.5062 53.8773 42.7641 54.0739L42.8696 54.16C43.0637 54.3084 43.0975 54.4152 43.0975 54.535C43.0975 54.6561 42.9946 54.7954 42.7875 54.7954C42.6442 54.7954 42.5049 54.7355 42.4567 54.5624C42.4424 54.5194 42.4333 54.4751 42.4333 54.4425C42.4333 54.4256 42.4306 54.4034 42.4112 54.4034C42.3929 54.4034 42.3851 54.4321 42.3825 54.4647C42.3799 54.5011 42.3721 54.6431 42.3721 54.7681C42.3721 54.8215 42.3786 54.8332 42.4137 54.8501C42.5153 54.8892 42.6196 54.9088 42.755 54.9088Z" fill="currentColor"/>
<path fill-rule="evenodd" clip-rule="evenodd" d="M28.2447 14.3438C27.031 14.3438 25.6609 14.6317 24.6047 15.0914C24.6216 14.8596 24.7063 14.6539 24.8548 14.4741C25.4669 13.7357 27.0636 13.4739 28.2447 13.4739C29.4286 13.4739 31.0252 13.7357 31.636 14.4741C31.7857 14.6539 31.8692 14.8583 31.8847 15.0901C30.8311 14.6264 29.4806 14.3438 28.2447 14.3438ZM30.3154 16.0578L29.9391 15.1878C30.5069 15.305 31.0565 15.4678 31.5383 15.6709L31.7584 16.563C31.4016 16.4146 30.9093 16.2205 30.3154 16.0578ZM26.7549 15.9236L26.105 15.288C26.6364 15.1552 27.1951 15.0654 27.7382 15.0315L28.1262 15.7739C27.6352 15.7843 27.1756 15.8403 26.7549 15.9236ZM24.6503 16.597L24.4615 16.6764C24.2037 16.7754 24.0252 16.6933 23.9627 16.5669C23.8963 16.438 23.9341 16.2114 24.257 16.016C24.2987 15.9926 24.3443 15.9678 24.3886 15.9405L25.0046 16.451C24.8743 16.5031 24.7532 16.5526 24.6503 16.597ZM28.2447 12.0284L29.1212 12.6638C28.7487 12.63 28.4349 12.6222 28.2447 12.6222C28.0572 12.6222 27.7433 12.63 27.3696 12.6638L28.2447 12.0284ZM27.2485 9.7128C26.8903 8.93662 26.7926 7.9221 27.8944 8.41048L27.983 9.7128H27.2485ZM28.0871 6.89848L28.2447 7.01439L28.4037 6.89848L29.0379 6.43616L28.6745 7.66555C28.6628 7.66946 28.6497 7.67336 28.6367 7.67857C28.5729 7.5249 28.4206 7.42201 28.2447 7.42201C28.0702 7.42201 27.9205 7.5249 27.8541 7.67857C27.8437 7.67336 27.8306 7.66946 27.8176 7.66555L27.4529 6.43616L28.0871 6.89848ZM29.0287 11.928L28.4037 11.4762L28.2447 11.3603L28.0871 11.4762L27.4646 11.928L27.8684 10.6166H28.6224L29.0287 11.928ZM29.2423 9.7128H28.5078L28.5964 8.41048C29.7007 7.9221 29.5991 8.93662 29.2423 9.7128ZM25.5554 10.0202L26.0073 9.39504L26.1232 9.23875L26.0073 9.07987L25.5554 8.45606L26.4827 8.74127C26.5348 9.14108 26.6221 9.41066 26.7262 9.6594L25.5554 10.0202ZM30.012 8.74127L30.9366 8.45606L30.4847 9.07987L30.3688 9.23875L30.4847 9.39504L30.9366 10.0202L29.7659 9.6594C29.8687 9.41066 29.956 9.14108 30.012 8.74127ZM35.7787 7.14462C35.7969 6.7969 35.1523 6.53252 34.9908 6.5182C34.7199 6.49996 34.3748 7.06778 34.0231 7.42201C33.7106 5.75243 33.8734 5.03746 34.0492 4.29904C34.7525 5.57662 35.7045 5.85531 36.2046 5.7902C34.5142 4.43448 34.8046 3.20899 34.2888 3.14518C33.9945 3.11131 33.7848 3.13216 33.6364 3.13216C33.0399 3.13216 32.9579 4.28731 32.8837 4.81475C32.4968 4.09718 32.1191 3.4981 31.4667 2.67113C30.8416 1.06536 30.0758 1.46518 29.2997 0.739782C29.9 1.65401 29.4129 2.21792 30.8168 2.88341C31.1789 3.23113 31.6061 3.7716 31.8926 4.21048C31.6568 4.52304 31.498 4.70536 31.2791 4.91243C31.1046 5.17681 31.0174 6.16527 30.4769 6.91801C31.2791 6.56899 31.5917 6.08192 31.8808 5.60136C34.4112 7.51187 32.3523 12.3917 31.7714 13.4648C31.2127 13.0871 30.5016 12.8762 29.8479 12.7615L29.7828 12.5428L29.1889 10.6166H29.4624C29.7815 10.6166 29.8532 10.403 29.8023 10.2363L31.5513 10.7755L32.3237 11.0125L31.8483 10.3562L31.0369 9.23875L31.8483 8.12006L32.3237 7.46239L31.5513 7.70201L29.9794 8.18648C29.8674 7.83095 29.5744 7.65774 29.2527 7.61346L29.7841 5.83057L30.012 5.0661L29.3661 5.53364L28.2447 6.3463L27.1261 5.53364L26.4827 5.0661L26.708 5.83057L27.2381 7.61346C26.9176 7.65774 26.6246 7.83095 26.5113 8.18648L24.9407 7.70201L24.1671 7.46239L24.6438 8.12006L25.4539 9.23875L24.1671 11.0125L24.9407 10.7755L26.695 10.2363C26.6429 10.403 26.7106 10.6166 27.031 10.6166H27.3031L26.7106 12.5428L26.6429 12.7615C25.9735 12.8827 25.2416 13.0975 24.679 13.4948C22.9729 10.1855 23.4548 6.83857 24.8861 5.72769C24.86 6.43095 25.476 7.38164 25.7638 7.5822C25.575 6.8542 25.9031 5.5623 25.5255 5.23801C25.2624 5.01531 24.86 4.8981 24.4342 4.91243C24.7232 4.43448 25.1231 3.83671 25.8016 2.94462C26.8056 2.46927 27.0935 1.30108 27.3436 0.716339C26.2521 1.11225 25.4512 1.68136 25.2755 2.5969C24.8861 3.1074 24.4601 3.71039 23.9836 4.42406C24.0083 3.55671 23.5329 3.25978 22.9039 3.2103C21.0624 3.59578 21.2017 4.92546 19.6221 5.84099C20.7004 6.21736 22.3934 3.85104 22.969 4.1089C23.0563 5.5623 22.732 6.70443 22.732 7.49755C22.4546 7.1954 22.314 6.98313 22.0796 6.94145C21.8529 6.9063 21.2382 6.95708 20.8124 7.42201C20.6965 8.15392 20.7264 9.53699 20.0361 11.1935C21.0624 10.2533 21.5508 8.41048 21.7136 7.87262C21.978 8.23596 22.2657 9.02908 22.3309 9.7128C22.452 11.0334 23.2646 13.2343 23.9561 14.2931C23.7673 14.6643 23.7087 15.0783 23.7777 15.5368C23.2386 15.934 23.1774 16.4914 23.3637 16.8678C23.5641 17.2676 24.089 17.5411 24.7089 17.2963L24.9069 17.2155C25.5567 16.9434 26.7744 16.4419 28.2447 16.4419C29.7176 16.4419 30.9327 16.9434 31.5865 17.2155L31.7806 17.2963C32.4017 17.5411 32.9265 17.2676 33.1271 16.8678C33.316 16.4914 33.2535 15.934 32.7143 15.5368C32.7899 15.0419 32.7104 14.5991 32.4852 14.2098L32.5072 14.2279C33.7666 12.4373 33.85 9.01086 34.8892 8.0341C34.9765 9.23875 35.6172 10.2285 36.2437 10.364C35.7397 9.53699 35.7397 7.89606 35.7787 7.14462Z" fill="currentColor"/>
<path fill-rule="evenodd" clip-rule="evenodd" d="M19.0071 37.8964C18.8926 37.8964 18.7949 37.8573 18.7311 37.718C18.9537 36.9144 19.0189 36.4886 18.9694 36.3245C18.7806 36.3923 18.6438 36.3831 18.5566 36.3388C18.7753 35.0339 18.6334 34.2238 18.4941 33.7186C18.343 33.1794 17.6358 32.4279 17.3936 32.3004C17.0016 32.0907 16.6747 31.8628 15.9116 31.7742C14.3318 30.4471 13.9007 31.248 12.7768 31.1126C12.6231 30.912 12.3262 30.6359 12.3262 30.6359L11.8248 30.9863C11.8248 30.9863 12.3015 31.5879 12.4005 31.9903C12.4005 31.9903 13.4293 31.8042 14.2068 32.0008C13.9046 32.9944 12.5229 34.3346 11.1854 35.8244C9.75543 37.4172 9.74892 37.7714 9.78148 39.0216C9.81925 40.5011 7.7759 42.7215 6.2105 43.7634C6.07636 44.1372 5.89794 47.419 6.10761 47.9218C6.21701 48.1079 6.65981 48.6237 6.9359 49.0365C7.05961 49.2228 7.02576 49.672 7.08696 50.1057C6.87338 50.1304 6.72361 50.1057 6.55822 50.0237C6.46055 49.5639 6.08287 48.9506 5.39394 48.5117C5.56064 46.678 5.74557 45.7064 5.10482 43.8871C5.04882 43.7256 5.90705 43.2477 5.90705 43.2477C5.90705 43.2477 6.19747 41.9023 6.97366 41.2525C6.42147 39.8368 6.34594 37.9186 6.34594 37.9186C6.34594 37.9186 6.01385 38.3588 5.46296 38.7103C6.91637 34.0975 7.21069 35.4103 8.92194 32.0412C10.1071 26.6626 6.98538 25.5712 7.45031 23.7037C8.54037 24.7325 9.10557 24.4069 9.99506 24.1556C10.7973 24.8302 11.9629 26.3487 13.0516 26.7251C14.8085 27.3254 14.7954 28.9703 14.5206 29.7348C15.2461 29.7348 15.8373 29.9979 16.1108 30.4223C17.3428 32.3263 18.1424 31.7508 18.7949 32.5543C19.1061 32.9372 18.7949 34.0063 19.1712 34.9623C19.4187 35.5874 19.5216 36.3388 19.5216 36.5524C19.4838 36.8663 19.0696 37.4563 19.0071 37.8964ZM13.3342 37.1541C14.0062 37.9954 13.0516 41.4791 12.7025 42.1068C12.3887 42.6682 12.9683 43.0367 13.2652 43.1083C14.6574 43.4599 16.0366 44.7909 16.4871 45.7924L15.9988 45.9891C14.9582 44.5773 14.6834 45.0383 14.4191 45.304C14.156 44.8404 12.9031 43.4365 12.1009 43.3571C11.3652 43.2919 11.3742 42.8453 11.4224 42.4676C11.5227 41.7174 11.4797 40.6196 11.3976 40.0257C11.2974 39.536 10.8715 38.9591 10.5642 38.9357C10.7205 38.558 10.5199 37.3651 11.5357 36.8663C12.2897 36.4939 13.1753 36.9588 13.3342 37.1541ZM5.68826 21.6095C5.4877 21.3764 5.38613 21.1016 5.28064 21.0235C6.08287 20.5207 7.07394 20.9363 7.67561 20.3567C8.0624 20.5716 8.63022 20.3541 8.87896 20.3203C9.71376 20.1979 10.7517 21.0652 11.5123 21.6095C11.8366 21.8439 12.1126 22.0211 12.3015 22.0354C12.0892 22.6866 12.1504 22.8142 12.7025 22.9392C12.6791 23.1293 12.5151 23.2608 11.8873 23.1944C11.2479 23.1254 10.4965 23.1398 10.1448 23.1763C8.24864 24.1607 7.63134 22.5876 7.63785 21.6095C7.63785 21.6069 7.63785 21.6043 7.63785 21.5965C7.62873 21.6043 7.62222 21.6069 7.61311 21.6095C6.51525 22.2243 5.98781 21.9651 5.68826 21.6095ZM19.5711 33.6444C19.7351 32.2404 19.5099 32.1349 19.1061 31.8042C18.7558 31.5124 18.1776 31.4226 17.6046 31.0253C17.1892 30.7375 17.0772 30.3247 16.5496 29.7725C16.6747 28.3308 18.231 26.5623 18.7558 26.8253L18.7688 26.1103C18.0929 25.8838 16.887 26.5375 15.8607 28.9703C15.7474 28.8439 15.6471 28.7932 15.5351 28.7164C15.612 28.1538 15.4245 27.6875 15.0728 27.2616C15.4296 27.0259 16.4859 26.5324 17.0888 26.0987C17.7647 25.6116 17.8911 25.4084 18.7206 25.609C18.7206 25.609 18.8692 25.4332 18.9199 25.2326C18.3169 24.4578 17.4405 24.6804 16.84 25.385C16.3661 25.7666 15.2877 26.4893 14.5467 26.742C13.536 25.8916 11.9655 25.1402 10.822 23.9927C10.822 23.9927 12.3392 23.9798 13.0412 23.6919C13.2287 23.5773 13.7158 22.8012 13.5166 22.0602C13.2821 21.9755 12.9409 21.8023 12.6062 21.6095C12.1934 21.3764 11.7871 21.1198 11.6034 20.9805C10.9379 20.4791 10.671 20.0415 9.53143 19.755C9.60566 19.2315 9.71766 19.3526 10.2204 19.0152C10.8624 18.5829 11.2166 18.062 11.4719 17.5476C11.6737 17.1478 11.4485 16.3207 10.9353 17.3718C10.7543 17.7416 10.2568 18.2379 9.69291 18.3876C9.7372 18.0607 9.75543 17.8758 9.75543 17.6999C11.4224 16.5213 11.2596 15.4807 11.1359 14.5014C11.0617 13.9363 10.4965 13.7019 10.5199 14.2892C10.5368 14.6786 10.8832 15.779 9.7437 16.4341C9.71766 15.9419 9.58222 15.723 9.48064 15.4678C10.4965 14.1277 10.068 12.8358 9.64343 12.2459C9.37125 11.8694 8.69925 11.7392 9.00399 12.3357C9.25273 12.8228 9.65646 14.1538 8.9037 14.6916C8.64064 14.366 8.33981 14.2423 8.23952 13.7995C8.31376 12.3474 8.22259 11.4566 8.03896 10.9409C7.86315 10.4538 7.39952 10.1517 7.43729 10.8679C7.47896 11.6741 7.55059 12.6964 7.47506 12.7615C7.39952 12.8228 6.3212 11.8199 5.88231 11.5218C5.44082 11.2157 4.91729 11.3303 5.4317 11.9346C5.88361 12.462 7.26147 13.4739 7.08696 13.7995C6.97626 14.0039 5.98911 13.1979 5.4799 13.0246C4.96678 12.8501 4.8079 13.1158 5.24157 13.4739C5.94482 14.0508 6.40976 14.4272 7.56231 14.8166C8.71617 15.2021 9.29181 16.8039 8.92846 19.0791C8.91282 19.1794 8.71617 19.1663 8.60287 19.1286C8.54817 18.2626 8.39841 17.2167 8.19003 16.7583C7.91264 16.1554 7.37478 16.145 7.57534 16.9589C7.73292 17.6075 7.82538 18.3003 7.71208 19.1663C6.76008 19.0036 6.39543 18.7509 5.99561 18.5112C5.95655 18.075 6.18315 17.3458 6.22092 16.6972C6.25869 16.0578 5.88231 15.6554 5.67003 16.4575C5.46557 17.2259 5.33273 17.5983 5.20511 18.1506C4.93031 18.062 4.6425 17.937 4.50837 17.7872C4.44585 17.7182 4.50315 16.8456 4.44194 16.2205C4.37031 15.5094 4.10203 15.5316 3.88846 16.1554C3.79208 16.4459 3.71264 16.8222 3.6892 17.2859C3.35059 17.0853 3.12529 16.6972 3.08882 16.3859C3.13701 15.6436 3.26203 14.8583 3.35059 14.366C3.41311 14.0143 3.17478 13.2955 2.89999 14.1654C2.69943 14.7867 2.64864 15.305 2.52231 15.7413C2.28138 15.7256 1.9597 14.3165 1.79692 13.414C1.72269 13.0012 1.38148 12.5363 1.32026 13.4492C1.25125 14.4519 1.45701 15.4678 1.70837 15.9183C1.21999 15.8715 0.755058 14.9938 0.417755 14.478C0.116918 14.0196 -0.0250354 14.4963 0.0036157 14.6786C0.292732 16.4706 1.72269 17.11 2.37255 17.2363C3.37534 18.6792 5.29237 19.2914 6.91115 19.9933C4.80399 19.9699 4.25311 20.819 3.28808 20.2682C3.33237 21.0599 3.72437 21.4311 4.10464 21.6095C4.37682 21.7423 4.6425 21.7749 4.76622 21.7997C4.94203 22.7634 5.85757 22.7126 6.63505 22.7634C6.4345 24.6427 6.65981 27.1262 8.31376 28.9794C8.26557 29.934 8.20306 31.1868 8.21478 32.0164C6.86166 33.2667 5.6557 35.8999 5.18166 37.3559C4.82352 38.4421 4.28957 39.2886 3.4639 39.6884C4.13981 40.4007 5.1439 40.0518 5.71822 39.648C5.75729 40.2862 5.90705 40.7355 6.00864 41.1158C5.62055 41.6927 5.35617 42.0912 5.39394 42.7932C4.95505 42.9221 4.65422 43.1826 4.4159 43.4872C4.26743 43.6748 4.44194 44.537 4.60343 44.9016C5.1465 46.1088 4.72455 48.8359 4.62948 49.6382C4.85608 49.6525 5.26761 49.6682 5.35617 49.3256C5.4877 49.4507 5.81981 49.689 5.97087 50.2164C5.93181 50.4404 5.80678 51.2779 6.23394 51.382C6.58426 51.4732 8.10278 51.4198 8.30073 51.1554C8.15096 50.9847 7.8892 50.5798 7.72511 50.1773C7.72511 49.7645 7.68864 49.2619 7.57534 49.0483C7.39952 48.75 6.96064 48.0468 6.68585 47.7733C6.62203 47.2706 6.57255 45.054 6.80957 44.1983C7.19896 43.9248 9.87003 41.9414 10.4196 40.0518C10.9093 40.2133 10.7582 41.5404 10.7582 43.2477C10.7582 43.71 11.3208 43.947 11.6542 43.99C12.3757 44.0773 13.4032 44.7662 14.5572 46.467C14.7824 46.2312 15.0702 46.0047 15.0702 46.0047C15.2225 46.2053 15.3972 46.6936 15.4974 47.0075C15.6237 47.2419 16.5496 47.3838 17.2646 47.1663C17.5004 47.0883 17.641 47.0466 17.7934 46.7965C16.887 45.2128 16.3452 44.1645 15.1836 43.2958C14.6456 42.8908 13.9294 42.6942 13.3277 42.3087C13.7288 41.5533 14.8319 38.0214 14.1677 36.7269C13.9437 36.3023 13.1024 35.8752 12.08 36.064C12.9332 35.0391 14.6704 33.0048 14.897 32.3798C15.0963 32.6168 16.1238 32.454 16.8831 32.7509C17.1631 32.859 17.9406 33.8684 17.9796 34.2199C18.0447 34.8424 18.0799 35.5835 17.6462 37.2908C17.9471 37.2453 17.904 37.2309 18.2036 37.1046C18.2557 37.5683 18.1176 37.9186 17.7166 38.6048C17.8168 39.2222 18.0929 40.1755 18.3794 40.35C18.7688 39.2 20.1975 37.5683 20.1597 36.6032C20.1102 35.3139 19.506 34.2056 19.5711 33.6444Z" fill="currentColor"/>
<path fill-rule="evenodd" clip-rule="evenodd" d="M9.68151 22.012C10.0448 21.9755 10.2207 21.7853 10.5463 21.9104C10.5072 21.8024 10.3223 21.8024 10.2832 21.7098C10.2793 21.6773 10.2754 21.6434 10.2715 21.6096C10.2285 21.2683 10.1191 20.9897 9.5682 20.9076C9.43146 21.1968 8.94178 21.4077 8.66699 21.5719C8.74774 21.577 8.81416 21.5939 8.87276 21.6096C9.22308 21.7307 9.1762 22.0615 9.68151 22.012Z" fill="currentColor"/>
<path fill-rule="evenodd" clip-rule="evenodd" d="M37.7223 25.1037H18.4141V32.2247C18.5469 32.3016 18.6745 32.4032 18.7956 32.5542C19.1069 32.9372 18.7956 34.0063 19.172 34.9622C19.1889 35.0053 19.1993 35.0495 19.215 35.0951H27.9614V49.0365C26.9508 48.6276 24.8372 47.6261 22.9188 45.7663C20.5486 43.4742 19.2944 40.6703 19.1537 37.4458C19.0873 37.6034 19.0261 37.7557 19.0079 37.8964C18.8933 37.8964 18.7956 37.8573 18.7318 37.718C18.9545 36.9144 19.0196 36.4886 18.9701 36.3245C18.7813 36.3923 18.6446 36.3831 18.5573 36.3388C18.776 35.0339 18.6341 34.2238 18.4948 33.7186C18.4766 33.6534 18.4492 33.5844 18.4141 33.5115V36.8389C18.4141 40.5284 19.7632 43.7035 22.4252 46.2756C24.759 48.539 27.378 49.5926 28.1268 49.8608L28.2453 49.9013L28.3664 49.8608C29.114 49.5926 31.7329 48.539 34.068 46.2756C36.73 43.7035 38.0791 40.5284 38.0791 36.8389V36.2437C37.8512 36.6071 37.6142 36.8572 37.3655 36.8949C37.3525 40.3552 36.0788 43.3453 33.5744 45.7663C31.6574 47.6261 29.5412 48.6276 28.5305 49.0365V35.0951H37.368V36.3831C38.2705 35.2332 37.8591 32.2365 37.368 31.8887V34.5234H19.1252V25.8134H37.368V31.8211C37.6168 31.6466 37.872 31.8237 38.0791 32.2143V25.1037H37.7223Z" fill="currentColor"/>
</g>
<defs>
<clipPath id="clip0_724_341">
<rect width="170.688" height="56" fill="white"/>
</clipPath>
</defs>
</svg>
