<svg width="167" height="32" viewBox="0 0 167 32" fill="none" xmlns="http://www.w3.org/2000/svg">
<g clip-path="url(#clip0_724_412)">
<path fill-rule="evenodd" clip-rule="evenodd" d="M21.3519 3.2069C20.5188 2.73484 18.1029 3.02641 15.2289 3.92889C12.3438 5.72262 9.94847 8.20369 8.2572 11.1501C6.56597 14.0964 5.6316 17.4162 5.53773 20.8121C5.53773 21.0065 4.98237 20.8121 4.88517 20.7288C4.12393 19.2914 3.66587 17.713 3.5393 16.0914C3.4127 14.4699 3.62033 12.8395 4.1493 11.3014C4.35757 10.9404 3.66337 10.51 3.5384 10.635C2.7956 11.4201 2.14356 12.2864 1.59462 13.2174C-0.0274997 16.1262 -0.431277 19.5591 0.471646 22.7649C1.37457 25.9707 3.51067 28.6882 6.41247 30.3228C7.84107 31.1253 9.41493 31.636 11.0426 31.8251C12.6702 32.0143 14.3192 31.8782 15.8938 31.4248C17.4685 30.9715 18.9373 30.2097 20.2151 29.184C21.4929 28.1582 22.5542 26.8888 23.3373 25.4494C27.1971 18.5073 23.615 4.48426 21.3519 3.23468V3.2069Z" fill="currentColor"/>
<path d="M42.8306 6.56609C35.722 6.56609 30.5293 11.9254 30.5293 19.2979C30.447 20.9664 30.713 22.6337 31.3102 24.1939C31.9074 25.754 32.8228 27.1727 33.998 28.3598C35.1737 29.5469 36.583 30.4763 38.137 31.089C39.6913 31.7017 41.3557 31.9843 43.025 31.9186C44.6987 31.9861 46.3677 31.6994 47.9226 31.0773C49.478 30.4552 50.8843 29.5118 52.0496 28.3087C52.5236 27.83 52.8013 27.191 52.8273 26.5177C52.833 26.2421 52.7826 25.9681 52.679 25.7127C52.5753 25.4572 52.4206 25.2256 52.2243 25.0319C52.0283 24.8383 51.7946 24.6867 51.5376 24.5865C51.281 24.4863 51.0063 24.4395 50.7306 24.449C50.405 24.4572 50.0847 24.5317 49.7887 24.6677C49.4927 24.8038 49.2273 24.9986 49.009 25.2404C48.235 26.0441 47.305 26.6816 46.276 27.1137C45.2473 27.5458 44.141 27.7635 43.025 27.7534C41.1207 27.779 39.2787 27.0735 37.879 25.7821C36.479 24.4906 35.6277 22.7116 35.4997 20.8113H51.6333C53.3827 20.8113 54.2297 19.9782 54.2297 18.2844C54.2443 17.7365 54.2116 17.1884 54.1323 16.646C53.2716 10.3287 49.0507 6.55215 42.8447 6.55215L42.8306 6.56609ZM42.8306 10.5092C46.6903 10.5092 49.162 12.9945 49.3146 17.007H35.5553C35.7357 15.2103 36.583 13.5465 37.9297 12.3436C39.2763 11.1408 41.025 10.4863 42.8306 10.5092Z" fill="currentColor"/>
<path fill-rule="evenodd" clip-rule="evenodd" d="M69.5709 6.56598C68.0026 6.56005 66.4616 6.97735 65.1099 7.77398C63.7589 8.57058 62.6476 9.71695 61.8933 11.0922V9.44008C61.8933 6.94091 59.9773 6.81595 59.5886 6.81595C59.2536 6.80661 58.9206 6.87048 58.6126 7.00305C58.3049 7.13561 58.0296 7.33375 57.8063 7.58355C57.5829 7.83335 57.4169 8.12888 57.3193 8.44951C57.2219 8.77015 57.1956 9.10821 57.2419 9.44008V28.8779C57.2166 29.2153 57.2609 29.5542 57.3729 29.8735C57.4843 30.1929 57.6609 30.4857 57.8909 30.7337C58.1209 30.9818 58.3996 31.1796 58.7096 31.3149C59.0196 31.4502 59.3543 31.5201 59.6926 31.5201C60.0309 31.5201 60.3656 31.4502 60.6756 31.3149C60.9856 31.1796 61.2643 30.9818 61.4943 30.7337C61.7246 30.4857 61.9009 30.1929 62.0123 29.8735C62.1239 29.5542 62.1686 29.2153 62.1433 28.8779V18.4925C62.1433 13.9524 64.6839 10.7729 68.3353 10.7729C71.9873 10.7729 73.5696 13.1054 73.5696 17.9372V28.9473C73.5446 29.2847 73.5889 29.6236 73.7006 29.9429C73.8123 30.2623 73.9886 30.5551 74.2183 30.8031C74.4489 31.0512 74.7273 31.249 75.0376 31.3843C75.3473 31.5196 75.6819 31.5895 76.0206 31.5895C76.3589 31.5895 76.6936 31.5196 77.0033 31.3843C77.3136 31.249 77.5919 31.0512 77.8226 30.8031C78.0523 30.5551 78.2286 30.2623 78.3403 29.9429C78.4523 29.6236 78.4963 29.2847 78.4713 28.9473V16.4515C78.4713 11.7031 76.1246 6.63541 69.5709 6.63541V6.56598Z" fill="currentColor"/>
<path fill-rule="evenodd" clip-rule="evenodd" d="M100.631 6.81581C100.062 6.82865 99.5117 7.03078 99.0693 7.39021C98.6273 7.74968 98.317 8.24608 98.1874 8.80128L91.4953 25.8371L84.845 8.80128C84.7073 8.24271 84.3893 7.74525 83.9397 7.38618C83.49 7.02718 82.9347 6.82661 82.3597 6.81581C81.7213 6.80835 81.1057 7.05388 80.6477 7.49878C80.19 7.94368 79.927 8.55171 79.916 9.19001C79.92 9.66901 80.024 10.1419 80.2213 10.5784L87.927 28.9611C88.1407 29.7346 88.602 30.4166 89.2397 30.9028C89.8783 31.3889 90.6587 31.6521 91.4607 31.6521C92.2627 31.6521 93.043 31.3889 93.6817 30.9028C94.3197 30.4166 94.7807 29.7346 94.9947 28.9611L102.728 10.4951C102.919 10.0567 103.023 9.58498 103.034 9.10668C103.035 8.79448 102.974 8.48511 102.853 8.19738C102.732 7.90958 102.554 7.64935 102.329 7.43255C102.104 7.21571 101.838 7.04678 101.546 6.93601C101.254 6.82521 100.943 6.77481 100.631 6.78805V6.81581Z" fill="currentColor"/>
<path d="M114.875 6.56583C111.942 6.5049 109.064 7.37496 106.656 9.05113C106.31 9.248 106.021 9.53243 105.819 9.87596C105.616 10.2195 105.508 10.6101 105.504 11.0088C105.497 11.2639 105.54 11.5179 105.632 11.7559C105.724 11.9939 105.863 12.211 106.04 12.3947C106.218 12.5783 106.43 12.7248 106.664 12.8253C106.898 12.9259 107.151 12.9786 107.406 12.9804C107.91 12.9435 108.393 12.7601 108.794 12.4527C110.409 11.2762 112.35 10.6353 114.348 10.62C117.972 10.62 120.041 12.4805 120.041 15.7294V16.2709C111.918 16.2709 103.644 17.2705 103.644 24.4209C103.727 29.5581 108.073 31.9184 112.446 31.9184C113.998 31.9866 115.541 31.656 116.929 30.9585C118.317 30.261 119.502 29.2196 120.374 27.9336V29.1416C120.336 29.4637 120.368 29.7902 120.467 30.099C120.566 30.4078 120.731 30.6916 120.949 30.9312C121.168 31.1708 121.435 31.3607 121.734 31.4879C122.032 31.6151 122.354 31.6767 122.679 31.6685C122.991 31.6598 123.297 31.5853 123.579 31.4499C123.861 31.3145 124.11 31.1213 124.312 30.8829C124.514 30.6444 124.663 30.3661 124.75 30.066C124.837 29.7659 124.86 29.451 124.817 29.1416V16.021C124.817 10.0924 121.096 6.56583 114.862 6.56583H114.875ZM119.041 19.9086H120.068V21.0471C120.143 21.9531 120.023 22.8647 119.716 23.7203C119.409 24.5758 118.921 25.3556 118.287 26.0069C117.653 26.6583 116.886 27.1661 116.039 27.496C115.192 27.826 114.284 27.9705 113.376 27.9198C112.28 27.9198 108.67 27.656 108.67 24.3099C108.67 20.3668 114.584 19.9086 119.041 19.9086Z" fill="currentColor"/>
<path fill-rule="evenodd" clip-rule="evenodd" d="M137.576 11.3147C137.861 11.3531 138.152 11.3289 138.427 11.2437C138.702 11.1587 138.956 11.0147 139.17 10.8218C139.384 10.6289 139.553 10.3918 139.666 10.1269C139.78 9.86193 139.833 9.57553 139.825 9.28753C139.835 8.99743 139.782 8.70863 139.67 8.44087C139.558 8.1731 139.389 7.93277 139.176 7.7362C138.962 7.53973 138.709 7.39177 138.432 7.30243C138.156 7.21317 137.864 7.1846 137.576 7.21883H133.16V2.76198C133.206 2.41715 133.177 2.06663 133.076 1.73384C132.975 1.40105 132.804 1.09365 132.575 0.832203C132.345 0.57075 132.063 0.361267 131.746 0.217752C131.429 0.0742383 131.086 0 130.738 0C130.39 0 130.046 0.0742383 129.729 0.217752C129.412 0.361267 129.13 0.57075 128.901 0.832203C128.671 1.09365 128.501 1.40105 128.4 1.73384C128.298 2.06663 128.269 2.41715 128.315 2.76198V24.1159C128.315 29.0587 130.731 31.6689 135.257 31.6689C136.313 31.6923 137.362 31.4986 138.34 31.0997C138.734 30.9405 139.075 30.6715 139.321 30.3245C139.567 29.9775 139.708 29.567 139.728 29.142C139.738 28.8817 139.693 28.6222 139.599 28.3795C139.504 28.1369 139.36 27.9163 139.177 27.7315C138.993 27.5466 138.774 27.4015 138.532 27.3049C138.29 27.2084 138.031 27.1626 137.77 27.1704C137.473 27.1828 137.179 27.2341 136.895 27.3232C136.566 27.4185 136.225 27.4698 135.882 27.4759C134.022 27.4759 133.105 26.2541 133.105 23.6161V11.3147H137.576Z" fill="currentColor"/>
<path d="M153.765 6.56612C152.083 6.49889 150.405 6.77816 148.834 7.38656C147.264 7.99506 145.836 8.91972 144.638 10.1032C143.44 11.2866 142.499 12.7036 141.871 14.2663C141.244 15.8289 140.945 17.5038 140.992 19.1869C140.963 20.8771 141.273 22.5559 141.903 24.1247C142.532 25.6935 143.469 27.1208 144.658 28.3227C147.099 30.6772 150.373 31.9699 153.765 31.9187C155.454 31.9641 157.135 31.6665 158.705 31.044C160.276 30.4214 161.704 29.4869 162.903 28.2968C164.103 27.1068 165.048 25.6859 165.682 24.12C166.317 22.5543 166.627 20.876 166.594 19.1869C166.638 17.4999 166.334 15.8221 165.702 14.2575C165.07 12.6928 164.123 11.2748 162.92 10.0914C161.717 8.90789 160.283 7.98432 158.709 7.37789C157.134 6.77149 155.451 6.49519 153.765 6.56612ZM153.765 27.7118C148.684 27.7118 146.032 23.4216 146.032 19.1869C146.032 13.3694 150.045 10.7175 153.765 10.7175C157.486 10.7175 161.499 13.3694 161.499 19.1869C161.499 25.0044 157.486 27.7534 153.765 27.7534V27.7118Z" fill="currentColor"/>
</g>
<defs>
<clipPath id="clip0_724_412">
<rect width="166.667" height="32" fill="white"/>
</clipPath>
</defs>
</svg>
