<svg width="168" height="56" viewBox="0 0 168 56" fill="none" xmlns="http://www.w3.org/2000/svg">
<g clip-path="url(#clip0_724_226)">
<path d="M53.1956 27.9023C53.1936 27.6288 53.2463 27.3576 53.3502 27.1046C53.4538 26.8516 53.6071 26.6217 53.8002 26.4282C53.9937 26.2348 54.2238 26.0818 54.4766 25.978C54.7298 25.8741 55.0007 25.8217 55.2743 25.8236C55.2502 24.7348 55.0956 23.6528 54.8139 22.6009C54.2952 22.6917 53.761 22.6029 53.2993 22.3494C52.8378 22.0957 52.4764 21.6923 52.2748 21.2057C52.1866 20.6872 52.2765 20.154 52.5297 19.6929C52.7832 19.2319 53.1849 18.8702 53.6701 18.6666C53.2097 17.5086 52.9723 16.5879 52.5119 15.6672C52.0411 15.9071 51.4992 15.9686 50.9865 15.8405C50.4738 15.7123 50.0244 15.4029 49.7216 14.9696C49.4849 14.498 49.4249 13.957 49.553 13.445C49.6807 12.9329 49.9882 12.4839 50.4195 12.1793C49.784 11.2875 49.0895 10.4392 48.3407 9.64021C47.9571 9.98339 47.4602 10.1731 46.9454 10.1731C46.4307 10.1731 45.9341 9.98339 45.5505 9.64021C45.2101 9.25516 45.0223 8.759 45.0223 8.24511C45.0223 7.73122 45.2101 7.23507 45.5505 6.85001C44.6297 6.15245 43.9322 5.4549 43.0114 4.7713C42.8853 5.01193 42.7099 5.22319 42.4963 5.39119C42.283 5.55919 42.0362 5.68008 41.7726 5.74597C41.5091 5.81186 41.2348 5.82122 40.9672 5.77347C40.6999 5.72571 40.4454 5.6219 40.2211 5.46885C39.9803 5.34284 39.7691 5.16732 39.6011 4.95382C39.4331 4.74035 39.3123 4.49375 39.2463 4.23021C39.1806 3.96668 39.1712 3.69218 39.2188 3.42475C39.2667 3.15734 39.3707 2.90305 39.5236 2.67862C38.5652 2.19274 37.5602 1.80479 36.5241 1.52067C36.4573 1.78407 36.337 2.03091 36.1706 2.24585C36.0046 2.46079 35.7957 2.63924 35.5577 2.77009C35.3196 2.90093 35.057 2.98139 34.7864 3.00646C34.5158 3.03152 34.2432 3.00066 33.985 2.91579C33.7227 2.8472 33.477 2.72586 33.2632 2.55918C33.0494 2.3925 32.8717 2.18399 32.7411 1.94636C32.6106 1.70873 32.5298 1.44699 32.5038 1.1771C32.4778 0.907227 32.5071 0.634872 32.5898 0.376679C31.5682 0.146526 30.5258 0.0203226 29.4787 0C29.4787 0.55501 29.2583 1.08729 28.8658 1.47974C28.4734 1.87219 27.9411 2.09267 27.3861 2.09267C26.831 2.09267 26.2988 1.87219 25.9064 1.47974C25.5139 1.08729 25.2934 0.55501 25.2934 0C24.2046 0.0236284 23.1226 0.178202 22.0707 0.460387C22.2106 0.981851 22.1435 1.53721 21.8835 2.01039C21.6236 2.48358 21.1907 2.83797 20.6756 2.99949C20.4327 3.08191 20.1747 3.11019 19.9197 3.08232C19.6648 3.05445 19.419 2.97113 19.1996 2.83819C18.9803 2.70524 18.7926 2.52591 18.65 2.31277C18.5072 2.09963 18.4129 1.85784 18.3736 1.60438C17.2157 2.06477 16.2949 2.30194 15.3741 2.76233C15.6112 3.23389 15.6711 3.77484 15.5432 4.28688C15.4151 4.7989 15.1076 5.248 14.6766 5.55255C14.2056 5.79251 13.6638 5.85411 13.1509 5.72588C12.6381 5.59769 12.189 5.28838 11.8864 4.855C11.0267 5.50728 10.2111 6.21566 9.44489 6.97555C9.78525 7.36061 9.9731 7.85677 9.9731 8.37066C9.9731 8.88455 9.78525 9.38077 9.44489 9.76576C9.06124 10.1089 8.56451 10.2987 8.04978 10.2987C7.53505 10.2987 7.03836 10.1089 6.65468 9.76576C5.95713 10.6866 5.25957 11.3842 4.57597 12.3049C4.81664 12.4309 5.02789 12.6064 5.19586 12.8199C5.36386 13.0334 5.48478 13.28 5.55064 13.5435C5.61653 13.8071 5.62589 14.0816 5.57814 14.3489C5.53039 14.6164 5.42657 14.8707 5.27352 15.0951C5.14751 15.3358 4.972 15.547 4.75852 15.715C4.54505 15.883 4.29842 16.0039 4.03488 16.0698C3.77135 16.1357 3.49685 16.1451 3.22944 16.0973C2.96202 16.0496 2.70773 15.9457 2.4833 15.7927C2.02853 16.718 1.66412 17.6852 1.39511 18.6806C1.65743 18.7492 1.90301 18.8705 2.11686 19.0371C2.33071 19.2038 2.50833 19.4123 2.6389 19.65C2.76946 19.8876 2.85022 20.1494 2.87624 20.4192C2.90226 20.6891 2.87299 20.9615 2.79023 21.2196C2.73849 21.4667 2.63653 21.7005 2.49065 21.9065C2.34478 22.1125 2.15811 22.2863 1.94224 22.4171C1.72637 22.548 1.48591 22.6331 1.2358 22.667C0.98568 22.701 0.731249 22.6832 0.48829 22.6147C0.214379 23.6645 0.0507306 24.7399 0 25.8236C0.55501 25.8236 1.08729 26.044 1.47974 26.4365C1.87219 26.8289 2.09267 27.3612 2.09267 27.9162C2.09267 28.4712 1.87219 29.0035 1.47974 29.3959C1.08729 29.7884 0.55501 30.0089 0 30.0089C0.0263807 31.0883 0.180926 32.1607 0.460387 33.2037C0.950518 33.0856 1.46744 33.166 1.89859 33.4273C2.32973 33.6885 2.64018 34.1097 2.76233 34.5989C2.90223 35.1204 2.83518 35.6757 2.57519 36.1488C2.3152 36.622 1.88238 36.9764 1.36721 37.1381H1.39511C1.8555 38.296 2.09267 39.2168 2.55306 40.1372C3.02403 39.8975 3.56589 39.8358 4.07871 39.9642C4.5915 40.0923 5.04064 40.4015 5.34327 40.8351C5.58032 41.3065 5.64027 41.8474 5.51228 42.3595C5.38425 42.8715 5.07679 43.3205 4.64572 43.625C5.2811 44.517 5.97557 45.3654 6.72443 46.1645C7.10814 45.8211 7.60477 45.6313 8.11956 45.6313C8.63429 45.6313 9.13102 45.8211 9.5147 46.1645C9.85499 46.5494 10.0428 47.0454 10.0428 47.5594C10.0428 48.0731 9.85499 48.5694 9.5147 48.9544C10.4354 49.6522 11.133 50.3497 12.0537 51.0331C12.1798 50.7927 12.3553 50.5814 12.5688 50.4134C12.7823 50.2454 13.0289 50.1244 13.2924 50.0586C13.556 49.9926 13.8305 49.9832 14.0979 50.0311C14.3653 50.0788 14.6196 50.1827 14.844 50.3356C15.2871 50.63 15.6042 51.0794 15.7332 51.5958C15.8623 52.1119 15.7939 52.6574 15.5415 53.1259C16.4999 53.6118 17.5048 53.9998 18.5411 54.2838C18.5927 54.0366 18.6947 53.8029 18.8406 53.597C18.9865 53.3911 19.1732 53.2171 19.389 53.0863C19.6049 52.9555 19.8454 52.8704 20.0955 52.8365C20.3456 52.8026 20.6001 52.8204 20.843 52.8888C21.1053 52.9572 21.3509 53.0786 21.5648 53.2453C21.7786 53.4119 21.9562 53.6205 22.0867 53.8582C22.2173 54.0957 22.2981 54.3576 22.3241 54.6275C22.3501 54.8974 22.3209 55.1697 22.2381 55.4279C23.2932 55.6938 24.3734 55.8481 25.4608 55.8883C25.4608 55.333 25.6813 54.8009 26.0737 54.4085C26.4662 54.0162 26.9985 53.7955 27.5534 53.7955C28.1085 53.7955 28.6407 54.0162 29.0332 54.4085C29.4257 54.8009 29.6461 55.333 29.6461 55.8883C30.7336 55.8481 31.8137 55.6938 32.8689 55.4279C32.7806 54.9092 32.8705 54.376 33.1238 53.9153C33.3771 53.4542 33.7791 53.0924 34.264 52.8888C34.7854 52.749 35.3407 52.8157 35.8138 53.0759C36.2873 53.3358 36.6414 53.7687 36.8031 54.2838C37.961 53.8234 38.8818 53.5863 39.8026 53.1259C39.6661 52.8985 39.5756 52.647 39.5367 52.3848C39.4974 52.1226 39.5102 51.8553 39.5742 51.5981C39.6383 51.3409 39.7526 51.0992 39.9102 50.8859C40.0678 50.673 40.266 50.4932 40.493 50.3567C40.7204 50.2203 40.9722 50.1297 41.2341 50.0905C41.4963 50.0513 41.7636 50.0643 42.0208 50.1284C42.278 50.1924 42.5201 50.3064 42.733 50.4644C42.946 50.622 43.126 50.8202 43.2625 51.0472C44.0868 50.3598 44.8651 49.6187 45.5924 48.829C45.2222 48.4588 45.0143 47.9571 45.0143 47.4337C45.0143 46.9106 45.2222 46.4089 45.5924 46.0387C45.9623 45.6688 46.4642 45.4609 46.9874 45.4609C47.5108 45.4609 48.0125 45.6688 48.3827 46.0387C49.0801 45.1179 49.7776 44.4204 50.461 43.4996C50.0412 43.2062 49.7478 42.7642 49.6408 42.2629C49.5342 41.7616 49.6214 41.2385 49.8853 40.7992C50.1492 40.3599 50.57 40.0373 51.0629 39.8961C51.5555 39.7553 52.0837 39.8066 52.5401 40.0397C53.0256 39.0813 53.4133 38.0763 53.698 37.0401C53.1782 36.8866 52.7406 36.5328 52.4814 36.0566C52.2225 35.5805 52.1632 35.0211 52.3167 34.501C52.4703 33.9813 52.8241 33.5437 53.3003 33.2847C53.7764 33.0257 54.3361 32.9664 54.8559 33.12C55.0929 31.962 55.0929 31.0412 55.3163 29.8973C54.771 29.9123 54.2419 29.711 53.8445 29.3371C53.4471 28.9633 53.2137 28.4475 53.1956 27.9023ZM25.7956 22.3218H21.415V17.0204C21.3885 16.8451 21.3052 16.6833 21.1778 16.56C21.1778 16.3229 20.9406 16.3229 20.7174 16.0996C20.6264 16.0103 20.5164 15.9427 20.3956 15.9016C20.2749 15.8606 20.1465 15.8472 20.0199 15.8624C19.8933 15.8472 19.7649 15.8606 19.6441 15.9016C19.5234 15.9427 19.4134 16.0103 19.3223 16.0996L18.8619 16.56C18.8354 16.7353 18.7521 16.897 18.6248 17.0204V38.7423C18.5935 39.0675 18.6775 39.3935 18.8619 39.6631C19.006 39.8244 19.1857 39.9498 19.3866 40.0296C19.5876 40.1097 19.8044 40.1416 20.0199 40.1235C20.4207 40.158 20.8229 40.0755 21.1778 39.8864C21.3181 39.7764 21.4321 39.6369 21.5118 39.4776C21.5914 39.3184 21.6346 39.1437 21.6382 38.9656V32.9665H19.8106V29.0602H25.7956V38.7423C25.8598 39.4981 25.7691 40.259 25.5293 40.9786C25.2894 41.6982 24.9053 42.3615 24.4005 42.9275C23.8343 43.4325 23.1712 43.8165 22.4515 44.0562C21.732 44.2963 20.971 44.3869 20.2152 44.3228C19.4286 44.3976 18.6352 44.3124 17.8823 44.0727C17.1295 43.8329 16.4329 43.4436 15.8345 42.9275C15.3194 42.3286 14.9303 41.6321 14.6906 40.8793C14.4508 40.1268 14.3654 39.3335 14.4394 38.5471V17.6203C14.3876 16.8175 14.5049 16.0128 14.7836 15.2582C15.0624 14.5036 15.4965 13.8159 16.0577 13.2396C16.6208 12.66 17.3065 12.2138 18.0646 11.9337C18.8226 11.6537 19.6337 11.5469 20.4384 11.6213C21.2431 11.5469 22.0542 11.6537 22.8123 11.9337C23.5702 12.2138 24.256 12.66 24.8191 13.2396C25.864 14.4267 26.4612 15.9418 26.5071 17.5226V22.3218H25.7956ZM36.1612 44.0019L35.2267 36.2729H32.4364L31.5156 44.1136H26.9117L31.3203 11.7608H36.6217L41.0024 44.0438L36.1612 44.0019ZM33.8595 32.2411C34.2237 32.2411 34.5795 32.1331 34.8826 31.9307C35.1854 31.7284 35.4215 31.4407 35.5607 31.1042C35.7002 30.7677 35.7367 30.3975 35.6656 30.0403C35.5945 29.683 35.4192 29.3549 35.1616 29.0974C34.9041 28.8398 34.5758 28.6644 34.2187 28.5933C33.8616 28.5223 33.4912 28.5588 33.1547 28.6981C32.8182 28.8376 32.5306 29.0736 32.3282 29.3764C32.1259 29.6792 32.0179 30.0353 32.0179 30.3995C32.0123 30.6437 32.0553 30.8865 32.1445 31.1139C32.2337 31.3412 32.3672 31.5486 32.5373 31.7238C32.7074 31.8991 32.9106 32.0388 33.1352 32.1348C33.3598 32.2308 33.6013 32.2811 33.8455 32.2829L33.8595 32.2411Z" fill="currentColor"/>
<path fill-rule="evenodd" clip-rule="evenodd" d="M69.5463 3.22241C70.4111 3.24212 71.2682 3.39748 72.085 3.68282C72.7815 3.92737 73.4153 4.32279 73.9404 4.84074C74.4716 5.31476 74.8005 5.97352 74.8612 6.6823C75.0658 7.43153 75.1456 8.20913 75.0986 8.98424L70.9134 9.68179C70.901 9.11187 70.7424 8.55468 70.453 8.06349C70.3453 7.84992 70.1794 7.67116 69.9745 7.54775C69.7699 7.42432 69.5342 7.36131 69.2951 7.36594C69.1683 7.35061 69.0399 7.36403 68.9192 7.40511C68.7985 7.44612 68.6885 7.51382 68.5976 7.60308L68.1372 8.06349C68.1107 8.23877 68.0272 8.4005 67.8998 8.52386V20.2846C67.8689 20.6099 67.9528 20.9357 68.1372 21.2054C68.2469 21.3457 68.3864 21.4597 68.5456 21.5394C68.7049 21.619 68.88 21.6622 69.058 21.6658C69.5184 21.6658 69.7555 21.6658 69.9788 21.4286C70.119 21.3189 70.233 21.1794 70.3125 21.0201C70.3923 20.8609 70.4356 20.6859 70.4392 20.5078V17.0619H69.0439V13.3789H74.8059V20.3544C74.8696 21.1103 74.7794 21.8711 74.5393 22.5908C74.2996 23.3104 73.9153 23.9735 73.4109 24.5397C72.8442 25.0446 72.1813 25.4286 71.462 25.6685C70.7424 25.9083 69.9808 25.999 69.2253 25.9349C68.4387 26.0097 67.6453 25.9246 66.8925 25.6849C66.1396 25.4451 65.4432 25.0556 64.8446 24.5397C64.3399 23.9735 63.956 23.3104 63.7159 22.5908C63.4761 21.8711 63.3856 21.1103 63.4496 20.3544V9.22142C63.3856 8.46558 63.4761 7.70462 63.7159 6.985C63.956 6.26539 64.3399 5.60224 64.8446 5.03607C65.4465 4.40622 66.1799 3.91708 66.9927 3.60354C67.8056 3.29003 68.6774 3.15989 69.5463 3.22241Z" fill="currentColor"/>
<path fill-rule="evenodd" clip-rule="evenodd" d="M77.1494 25.6007V3.4603H87.2777V7.61774H81.5164V12.2216H86.5805V16.3791H81.5164V21.4433H87.2777V25.6007H77.1494Z" fill="currentColor"/>
<path fill-rule="evenodd" clip-rule="evenodd" d="M96.9465 13.8399V3.4603H101.328V25.6007H97.6446L95.1052 19.1414L93.501 14.984H93.2636V25.6007H88.8828V3.4603H92.8032L95.3426 9.91971L96.9465 13.8399Z" fill="currentColor"/>
<path fill-rule="evenodd" clip-rule="evenodd" d="M103.393 25.6007V3.4603H113.535V7.61774H107.774V12.2216H112.838V16.3791H107.774V21.4433H113.535V25.6007H103.393Z" fill="currentColor"/>
<path d="M120.665 3.45917C121.518 3.41192 122.374 3.49183 123.204 3.69631C123.944 3.99204 124.642 4.38119 125.283 4.85427C125.853 5.47017 126.323 6.17158 126.678 6.93298C126.961 7.90859 127.115 8.91692 127.138 9.9325C127.197 11.1979 126.958 12.4594 126.44 13.6156C126.027 14.5238 125.388 15.3114 124.585 15.9036L127.807 25.5857H123.427L120.888 17.0476H119.981V25.5857H115.601V3.45917H120.665ZM119.744 7.64451V12.9459H121.376C121.614 12.9459 121.836 12.7088 122.074 12.4855C122.214 12.3758 122.328 12.2363 122.408 12.0771C122.488 11.9178 122.531 11.7428 122.534 11.5648C122.726 11.1261 122.807 10.6471 122.771 10.1697C122.791 9.83475 122.735 9.49972 122.611 9.18854C122.485 8.87739 122.292 8.59789 122.046 8.36993C121.843 8.14301 121.593 7.96298 121.314 7.84256C121.034 7.72204 120.732 7.664 120.427 7.67238L119.744 7.64451Z" fill="currentColor"/>
<path d="M136.093 21.2201H132.647L131.949 25.6007H127.346L131.531 3.4603H136.721L141.102 25.6007H136.497L136.093 21.2201ZM133.791 13.6027L133.331 17.0626H135.41L134.949 13.6027L134.489 9.22216H134.251L133.791 13.6027Z" fill="currentColor"/>
<path fill-rule="evenodd" clip-rule="evenodd" d="M142.316 25.6007V3.4603H146.683V21.4433H152.445V25.6007H142.316Z" fill="currentColor"/>
<path d="M70.927 47.7264H67.7045L66.9651 52.1209H62.3613L66.5466 29.9805H71.8478L76.2289 52.1209H71.6251L70.927 47.7264ZM68.8486 40.1232L68.36 43.5828H70.4387L69.9783 40.1232L69.5183 35.7424H69.2809L68.8486 40.1232Z" fill="currentColor"/>
<path fill-rule="evenodd" clip-rule="evenodd" d="M88.4229 45.6615C88.4598 46.5977 88.3803 47.5353 88.1855 48.4518C88.0681 49.214 87.7502 49.9312 87.2646 50.5305C86.8056 51.1706 86.1638 51.6568 85.423 51.9254C84.5247 52.2323 83.5824 52.3878 82.6327 52.3858C81.7673 52.3661 80.9108 52.2108 80.0933 51.9254C79.4025 51.679 78.7738 51.2839 78.252 50.7675C77.8124 50.1981 77.5113 49.5342 77.3731 48.8283C77.1692 48.0792 77.0887 47.3016 77.1364 46.5263L81.5164 45.6058C81.5345 46.2413 81.6918 46.865 81.9768 47.4334C82.0587 47.6661 82.2193 47.8632 82.4302 47.9903C82.6418 48.1178 82.8913 48.1674 83.1351 48.1308C83.2615 48.1459 83.3902 48.1325 83.511 48.0916C83.632 48.0507 83.7417 47.983 83.8322 47.8938L84.2926 47.4334C84.2926 47.1959 84.5304 46.9729 84.5304 46.5125V44.5036C84.5304 44.2665 84.2926 44.0432 84.2926 43.8058C84.0559 43.5687 83.8322 43.3457 83.5955 43.3457C83.3581 43.1083 82.8976 43.1083 82.6747 42.8853C81.7525 42.5738 80.8927 42.1013 80.1352 41.49C79.4863 41.0728 78.9344 40.5209 78.5172 39.8717C78.0954 39.4351 77.8483 38.8597 77.8194 38.2534C77.8194 37.5559 77.5827 37.0955 77.5827 36.1747C77.5357 35.3213 77.6155 34.4655 77.8194 33.6356C78.0283 32.9033 78.3385 32.2037 78.7402 31.5568C79.311 31.0372 79.9273 30.5702 80.5819 30.1617C82.389 29.5345 84.355 29.5345 86.1621 30.1617C86.8602 30.6222 87.5574 30.8593 87.7807 31.5568C88.2183 32.1222 88.5194 32.7811 88.6596 33.4821C88.8387 34.0789 88.9181 34.7009 88.8967 35.3236L84.5163 36.2723V35.3514C84.5317 35.225 84.5183 35.0966 84.477 34.9759C84.4358 34.8552 84.3681 34.7452 84.2789 34.654C84.2698 34.5352 84.2178 34.4236 84.1333 34.3391C84.0488 34.2549 83.9378 34.2033 83.8185 34.1935C83.6186 34.04 83.3735 33.9565 83.1213 33.9565C82.8691 33.9565 82.6237 34.04 82.4232 34.1935L81.9627 34.654C81.9627 34.891 81.726 35.1144 81.726 35.3514V36.7467C81.726 36.9838 81.9627 37.2072 81.9627 37.4442L82.6609 38.1417C83.0717 38.4693 83.5472 38.7071 84.0559 38.8392C84.9284 39.255 85.7758 39.7211 86.5947 40.2345C87.1718 40.5725 87.6523 41.0527 87.9896 41.6295C88.2602 42.2284 88.4933 42.8434 88.6878 43.4711C88.4859 44.183 88.3964 44.9221 88.4229 45.6615Z" fill="currentColor"/>
<path fill-rule="evenodd" clip-rule="evenodd" d="M101.328 45.6622C101.366 46.5984 101.286 47.536 101.091 48.4524C100.974 49.2146 100.656 49.9319 100.171 50.5311C99.7108 51.1713 99.069 51.6575 98.3289 51.9261C97.4306 52.2329 96.4876 52.3885 95.539 52.3865C94.6732 52.3671 93.8167 52.2115 92.9995 51.9261C92.3084 51.68 91.6797 51.2846 91.1579 50.7682C90.7136 50.2002 90.4075 49.5362 90.2649 48.829C90.0611 48.0799 89.9809 47.3022 90.0275 46.5273L94.4086 45.6065C94.4267 46.2419 94.584 46.8656 94.869 47.434C94.9505 47.6667 95.1104 47.8639 95.3224 47.9913C95.534 48.1184 95.7828 48.1681 96.0272 48.1315C96.1537 48.1469 96.2821 48.1335 96.4025 48.0923C96.5232 48.0514 96.6335 47.9836 96.7244 47.8944L97.1848 47.434C97.1848 47.197 97.4222 46.9736 97.4222 46.5132V44.5043C97.4222 44.2672 97.1848 44.0438 97.1848 43.8068C96.948 43.5694 96.7244 43.3464 96.4876 43.3464C96.2499 43.1093 95.7895 43.1093 95.5662 42.886C94.6447 42.5744 93.7846 42.102 93.0274 41.491C92.3785 41.0735 91.8266 40.5215 91.4087 39.8724C90.9876 39.4358 90.7394 38.8603 90.7116 38.2541C90.7116 37.5566 90.4738 37.0962 90.4738 36.1753C90.4215 35.3327 90.4913 34.4866 90.6834 33.6641C90.8923 32.9319 91.2025 32.2323 91.6042 31.5855C92.175 31.0658 92.7913 30.5989 93.4459 30.1904C95.253 29.5632 97.219 29.5632 99.0264 30.1904C99.7242 30.6508 100.421 30.888 100.645 31.5855C101.089 32.1401 101.399 32.7892 101.552 33.4829C101.745 34.0631 101.844 34.6707 101.845 35.2827L97.4085 36.2729V35.3524C97.4229 35.2257 97.4098 35.0973 97.3686 34.9765C97.328 34.8558 97.2602 34.7458 97.1707 34.6546C97.161 34.5359 97.11 34.4243 97.0255 34.3398C96.941 34.2556 96.829 34.2039 96.7103 34.1946C96.5104 34.0406 96.2653 33.9571 96.0132 33.9571C95.7603 33.9571 95.5152 34.0406 95.3153 34.1946L94.8549 34.6546C94.8549 34.892 94.6182 35.115 94.6182 35.3524V36.7474C94.6182 36.9845 94.8549 37.2078 94.8549 37.4449L95.5527 38.1424C95.9635 38.4703 96.4387 38.7078 96.948 38.8402C97.8199 39.256 98.668 39.7218 99.4865 40.2352C100.064 40.5732 100.544 41.0537 100.882 41.6305C101.152 42.229 101.385 42.8444 101.58 43.4718C101.383 44.1844 101.297 44.9234 101.328 45.6622Z" fill="currentColor"/>
<path fill-rule="evenodd" clip-rule="evenodd" d="M103.17 52.1072V29.9805H113.298V34.1241H107.536V38.7419H112.614V42.8853H107.536V47.9635H113.298V52.1072H103.17Z" fill="currentColor"/>
<path fill-rule="evenodd" clip-rule="evenodd" d="M121.123 47.7405L120.202 44.964L119.281 41.7415H119.059V52.1072H114.678V29.9805H118.821L121.123 35.9795L122.742 40.3602H122.965L124.583 35.9795L126.648 30.2038H130.792V52.3442H126.425V41.9645H126.188L125.044 45.4244L124.123 47.9635H121.123V47.7405Z" fill="currentColor"/>
<path d="M141.396 40.5829C141.811 40.7623 142.2 40.997 142.554 41.2807C142.916 41.5721 143.162 41.9822 143.251 42.4386C143.508 42.8628 143.665 43.3396 143.711 43.8336C143.711 44.294 143.949 44.7544 143.949 45.2289C144.109 47.1342 143.518 49.0268 142.302 50.5023C141.694 51.0834 140.969 51.528 140.174 51.807C139.381 52.086 138.537 52.193 137.698 52.1206H132.871V29.9802H137.935C138.739 29.8838 139.553 29.9789 140.312 30.2578C141.071 30.5367 141.753 30.9913 142.302 31.5846C143.325 32.924 143.821 34.5916 143.698 36.2722C143.734 36.7497 143.652 37.2286 143.46 37.6672C143.454 38.0964 143.289 38.5085 143 38.8251C142.826 39.1722 142.589 39.4844 142.302 39.7459C142.121 40.157 141.792 40.4856 141.381 40.6667L141.396 40.5829ZM139.512 36.2722C139.527 35.6281 139.368 34.9916 139.052 34.4306C138.576 34.1073 138.008 33.9461 137.434 33.9702H136.974V38.3509H137.434C138.819 38.537 139.512 37.8439 139.512 36.2722ZM139.75 45.0334C139.8 44.3859 139.638 43.7393 139.289 43.1918C139.052 42.7317 138.591 42.7317 137.894 42.7317H137.196V48.0329H137.894C138.354 48.0329 138.591 48.0329 138.815 47.7958L139.512 47.0983C139.696 46.8284 139.78 46.5028 139.75 46.1775V45.0334Z" fill="currentColor"/>
<path fill-rule="evenodd" clip-rule="evenodd" d="M146.222 52.1072V29.9805H150.602V47.9635H156.364V52.1072H146.222Z" fill="currentColor"/>
<path fill-rule="evenodd" clip-rule="evenodd" d="M161.192 38.0445L161.889 34.3612L162.81 29.9805H167.413L163.033 43.1227V52.1072H158.666V43.1227L154.286 29.9805H158.89L160.047 34.3612L161.192 38.0445Z" fill="currentColor"/>
</g>
<defs>
<clipPath id="clip0_724_226">
<rect width="167.665" height="56" fill="white"/>
</clipPath>
</defs>
</svg>
