<svg width="64" height="64" viewBox="0 0 64 64" fill="none" xmlns="http://www.w3.org/2000/svg">
<g clip-path="url(#clip0_2184_1841)">
<path fill-rule="evenodd" clip-rule="evenodd" d="M17.7773 40.3098C17.7773 36.5815 20.5965 33.5801 24.0983 33.5801C27.6002 33.5801 30.4193 36.5815 30.4193 40.3098V56.875C30.4193 60.6032 27.6002 63.6048 24.0983 63.6048C20.5965 63.6048 17.7773 60.6032 17.7773 56.875V40.3098Z" fill="#E01E5A" stroke="#E01E5A" stroke-width="0.790123" stroke-linecap="round" stroke-linejoin="round"/>
<path fill-rule="evenodd" clip-rule="evenodd" d="M40.3097 46.2221C36.5815 46.2221 33.5801 43.4029 33.5801 39.9011C33.5801 36.3992 36.5815 33.5801 40.3097 33.5801H56.8751C60.6033 33.5801 63.6048 36.3992 63.6048 39.9011C63.6048 43.4029 60.6033 46.2221 56.8751 46.2221H40.3097Z" fill="#ECB22D" stroke="#ECB22D" stroke-width="0.790123" stroke-linecap="round" stroke-linejoin="round"/>
<path fill-rule="evenodd" clip-rule="evenodd" d="M33.5801 7.12515C33.5801 3.39695 36.3992 0.395508 39.9011 0.395508C43.4029 0.395508 46.222 3.39695 46.222 7.12515V23.6905C46.222 27.4188 43.4029 30.4202 39.9011 30.4202C36.3992 30.4202 33.5801 27.4188 33.5801 23.6905V7.12515Z" fill="#2FB67C" stroke="#2FB67C" stroke-width="0.790123" stroke-linecap="round" stroke-linejoin="round"/>
<path fill-rule="evenodd" clip-rule="evenodd" d="M7.12417 30.4193C3.39597 30.4193 0.394531 27.6002 0.394531 24.0983C0.394531 20.5965 3.39597 17.7773 7.12417 17.7773H23.6895C27.4178 17.7773 30.4192 20.5965 30.4192 24.0983C30.4192 27.6002 27.4178 30.4193 23.6895 30.4193H7.12417Z" fill="#36C5F1" stroke="#36C5F1" stroke-width="0.790123" stroke-linecap="round" stroke-linejoin="round"/>
<path fill-rule="evenodd" clip-rule="evenodd" d="M33.5801 57.2849C33.5783 58.1154 33.7406 58.9382 34.0576 59.7059C34.3747 60.4736 34.8402 61.1711 35.4275 61.7584C36.0148 62.3457 36.7124 62.8113 37.48 63.1283C38.2477 63.4453 39.0705 63.6076 39.9011 63.6059C43.4029 63.6059 46.2221 60.7867 46.2221 57.2849C46.2238 56.4543 46.0615 55.6315 45.7445 54.8638C45.4275 54.0961 44.9619 53.3986 44.3746 52.8113C43.7873 52.224 43.0898 51.7585 42.3221 51.4414C41.5544 51.1244 40.7317 50.9621 39.9011 50.9639H33.5801V57.2849Z" fill="#ECB22D" stroke="#ECB22D" stroke-width="0.790123" stroke-linecap="round"/>
<path fill-rule="evenodd" clip-rule="evenodd" d="M57.2839 30.4203H50.9629V24.0993C50.9629 20.5975 53.7821 17.7783 57.2839 17.7783C60.7857 17.7783 63.6049 20.5975 63.6049 24.0993C63.6049 27.6011 60.7857 30.4203 57.2839 30.4203Z" fill="#2FB67C" stroke="#2FB67C" stroke-width="0.790123" stroke-linecap="round"/>
<path fill-rule="evenodd" clip-rule="evenodd" d="M6.71553 33.5811H13.0365V39.902C13.0365 43.4039 10.2174 46.223 6.71553 46.223C5.88495 46.2248 5.0622 46.0625 4.2945 45.7455C3.52681 45.4284 2.82928 44.9629 2.24197 44.3756C1.65466 43.7883 1.18913 43.0908 0.872096 42.3231C0.555064 41.5554 0.392775 40.7326 0.394546 39.902C0.394546 36.4002 3.21371 33.5811 6.71553 33.5811Z" fill="#E01E5A" stroke="#E01E5A" stroke-width="0.790123" stroke-linecap="round"/>
<path fill-rule="evenodd" clip-rule="evenodd" d="M30.4193 6.71651V13.0375H24.0983C23.2678 13.0393 22.445 12.877 21.6773 12.5599C20.9096 12.2429 20.2121 11.7774 19.6248 11.1901C19.0375 10.6028 18.5719 9.90523 18.2549 9.13754C17.9379 8.36984 17.7756 7.54709 17.7774 6.71651C17.7774 3.21468 20.5965 0.395522 24.0983 0.395522C24.9289 0.393752 25.7517 0.55604 26.5194 0.873072C27.2871 1.1901 27.9846 1.65564 28.5719 2.24295C29.1592 2.83026 29.6247 3.52778 29.9418 4.29548C30.2588 5.06317 30.4211 5.88593 30.4193 6.71651Z" fill="#36C5F1" stroke="#36C5F1" stroke-width="0.790123" stroke-linecap="round"/>
</g>
<defs>
<clipPath id="clip0_2184_1841">
<rect width="64" height="64" fill="white"/>
</clipPath>
</defs>
</svg>
