<svg width="30" height="30" viewBox="0 0 30 30" fill="none" xmlns="http://www.w3.org/2000/svg">
<g clip-path="url(#clip0_2184_1798)">
<mask id="mask0_2184_1798" style="mask-type:luminance" maskUnits="userSpaceOnUse" x="0" y="0" width="30" height="30">
<path d="M0 0H30V30H0V0Z" fill="white"/>
</mask>
<g mask="url(#mask0_2184_1798)">
<path fill-rule="evenodd" clip-rule="evenodd" d="M16.6513 4.744L23.5583 8.512L17.2103 0C16.1643 1.395 15.9553 3.21 16.6523 4.744H16.6513Z" fill="url(#paint0_linear_2184_1798)"/>
<path fill-rule="evenodd" clip-rule="evenodd" d="M13.5113 18.6279C14.3483 18.6279 15.0452 19.3259 15.0452 20.2329C15.0452 21.0699 14.3483 21.7669 13.4413 21.7669C13.0354 21.7635 12.6471 21.6009 12.3599 21.3139C12.0728 21.027 11.9099 20.6388 11.9062 20.2329C11.9763 19.3949 12.6733 18.6279 13.5113 18.6279Z" fill="url(#paint1_linear_2184_1798)"/>
<path fill-rule="evenodd" clip-rule="evenodd" d="M8.7667 1.25591L28.0227 11.7199C28.5117 11.9299 28.6507 12.4869 28.4417 12.9759C28.4114 13.0746 28.3574 13.1643 28.2843 13.2372C28.2113 13.3101 28.1214 13.3639 28.0227 13.3939C26.5577 14.3009 24.9527 14.9289 23.2787 15.2079L19.2327 23.4409C19.2327 23.4409 17.9767 26.3009 14.4877 25.1849C15.9537 23.7199 17.6977 22.3949 17.6977 20.1619C17.7014 19.602 17.5939 19.0469 17.3813 18.5288C17.1687 18.0108 16.8554 17.5401 16.4594 17.1442C16.0635 16.7482 15.5928 16.4349 15.0748 16.2223C14.5568 16.0097 14.0016 15.9022 13.4417 15.9059C12.8818 15.9022 12.3267 16.0097 11.8086 16.2223C11.2906 16.4349 10.8199 16.7482 10.424 17.1442C10.028 17.5401 9.71466 18.0108 9.50209 18.5288C9.28953 19.0469 9.18198 19.602 9.1857 20.1619C9.1857 23.0919 12.1157 24.3479 13.7207 26.3719C14.4187 27.4179 14.3487 28.8129 13.5107 29.7199C11.5577 27.7659 7.7207 24.4179 6.1157 22.2549C5.27749 21.1442 4.79156 19.8076 4.7207 18.4179C4.8607 15.3479 6.9527 12.6969 9.8837 11.7899C10.7907 11.5099 11.6977 11.4399 12.6037 11.4399C13.8607 11.5099 15.1157 11.9299 16.2327 12.5569C17.9767 13.5339 18.7437 13.3249 19.9297 12.2779C20.6277 11.7199 21.3947 9.83591 20.2097 9.41791C19.8225 9.29163 19.4255 9.19797 19.0227 9.13791C16.8597 8.71991 13.0227 8.30091 11.6277 7.53391C9.3947 6.27791 7.8597 3.69691 8.7677 1.25391L8.7667 1.25591Z" fill="url(#paint2_linear_2184_1798)"/>
<path fill-rule="evenodd" clip-rule="evenodd" d="M17.6977 20.2334C18.6047 15.5584 13.8597 11.0934 10.1627 11.7214L10.4417 11.6514C10.2317 11.7214 10.0227 11.7214 9.8837 11.7914C6.9537 12.6984 4.8597 15.3494 4.7207 18.4194C4.7207 19.8144 5.2087 21.2094 6.1157 22.2564C7.7207 24.4194 11.5577 27.7674 13.5807 29.7914C14.4187 28.8844 14.5577 27.4884 13.7907 26.4414C12.1157 24.4194 9.2557 23.1634 9.2557 20.2334C9.25198 19.6734 9.35953 19.1183 9.57209 18.6003C9.78466 18.0822 10.098 17.6116 10.494 17.2156C10.8899 16.8197 11.3606 16.5063 11.8786 16.2938C12.3967 16.0812 12.9518 15.9736 13.5117 15.9774C15.8837 15.9774 17.7667 17.8604 17.6977 20.2334Z" fill="url(#paint3_linear_2184_1798)"/>
<path fill-rule="evenodd" clip-rule="evenodd" d="M8.76695 1.25588L23.4199 9.20888L23.8379 9.41888C24.1869 9.69788 24.5359 10.2559 24.1179 11.2329C23.4199 12.6979 20.6279 14.1629 17.4199 13.0459C18.3959 13.3259 19.0939 12.9759 20.0009 12.2789C20.6989 11.7209 21.4659 9.83688 20.2809 9.41888C19.8938 9.2926 19.4967 9.19894 19.0939 9.13888C16.9309 8.72088 13.0939 8.30188 11.6989 7.53488C9.39595 6.27888 7.86095 3.69788 8.76895 1.25488L8.76695 1.25588Z" fill="url(#paint4_linear_2184_1798)"/>
<path fill-rule="evenodd" clip-rule="evenodd" d="M8.76663 1.25586C10.3016 6.83686 19.5116 7.32586 24.1166 9.62786L8.76562 1.25586H8.76663Z" fill="url(#paint5_linear_2184_1798)"/>
<path fill-rule="evenodd" clip-rule="evenodd" d="M13.7898 26.4419C12.1858 24.4189 9.25581 23.1619 9.25581 20.2319C9.25581 18.0699 10.8598 16.3259 12.9528 16.0469C9.60481 16.0469 6.88281 18.7669 6.88281 22.1859C6.88281 22.6049 6.95281 23.0229 7.02281 23.4419C8.34881 24.9769 10.3028 26.7209 11.9068 28.2559C12.5348 28.8139 13.1628 29.4419 13.5808 29.8599C13.9998 29.3719 14.2088 28.8139 14.2788 28.1859C14.3488 27.5579 14.1388 26.9299 13.7908 26.4419H13.7898Z" fill="url(#paint6_linear_2184_1798)"/>
<path fill-rule="evenodd" clip-rule="evenodd" d="M17.6971 20.7196V20.2326C18.6041 15.5576 13.7901 11.0926 10.1621 11.7206C10.9291 11.5106 11.7661 11.4406 12.5341 11.5106C17.3481 11.6506 18.7441 16.8136 17.6971 20.7206V20.7196Z" fill="url(#paint7_linear_2184_1798)"/>
<path fill-rule="evenodd" clip-rule="evenodd" d="M3.605 10.3262C4.442 10.3262 5.209 11.0232 5.209 11.9302V13.5352H3.605C2.767 13.5352 2 12.8372 2 11.9302C2 11.0932 2.698 10.3262 3.605 10.3262Z" fill="url(#paint8_linear_2184_1798)"/>
</g>
</g>
<defs>
<linearGradient id="paint0_linear_2184_1798" x1="13.7563" y1="4.259" x2="27.4583" y2="4.259" gradientUnits="userSpaceOnUse">
<stop stop-color="#FBAA19"/>
<stop offset="1" stop-color="#EF3E23"/>
</linearGradient>
<linearGradient id="paint1_linear_2184_1798" x1="13.0023" y1="21.6839" x2="14.0772" y2="18.7469" gradientUnits="userSpaceOnUse">
<stop stop-color="#F78D1E"/>
<stop offset="1" stop-color="#F37121"/>
</linearGradient>
<linearGradient id="paint2_linear_2184_1798" x1="4.4837" y1="22.6959" x2="21.1787" y2="4.79991" gradientUnits="userSpaceOnUse">
<stop stop-color="#FEBE2D"/>
<stop offset="1" stop-color="#F04E23"/>
</linearGradient>
<linearGradient id="paint3_linear_2184_1798" x1="16.3037" y1="12.2524" x2="7.0667" y2="26.4714" gradientUnits="userSpaceOnUse">
<stop stop-color="#EA4425"/>
<stop offset="1" stop-color="#FDBB27"/>
</linearGradient>
<linearGradient id="paint4_linear_2184_1798" x1="2.16695" y1="7.37588" x2="31.3299" y2="7.37588" gradientUnits="userSpaceOnUse">
<stop stop-color="#F47920"/>
<stop offset="1" stop-color="#E93825"/>
</linearGradient>
<linearGradient id="paint5_linear_2184_1798" x1="-13.2374" y1="5.43486" x2="46.0996" y2="5.43486" gradientUnits="userSpaceOnUse">
<stop stop-color="#FDCA0B"/>
<stop offset="1" stop-color="#F5841F"/>
</linearGradient>
<linearGradient id="paint6_linear_2184_1798" x1="7.96081" y1="12.6059" x2="14.1358" y2="34.1429" gradientUnits="userSpaceOnUse">
<stop stop-color="#E73C25"/>
<stop offset="1" stop-color="#FAA21B"/>
</linearGradient>
<linearGradient id="paint7_linear_2184_1798" x1="-33.8409" y1="16.1016" x2="54.2411" y2="16.1016" gradientUnits="userSpaceOnUse">
<stop stop-color="#FDBA12"/>
<stop offset="1" stop-color="#F7921E"/>
</linearGradient>
<linearGradient id="paint8_linear_2184_1798" x1="2.056" y1="11.6642" x2="5.356" y2="12.2502" gradientUnits="userSpaceOnUse">
<stop stop-color="#FEBE2D"/>
<stop offset="1" stop-color="#F04E23"/>
</linearGradient>
<clipPath id="clip0_2184_1798">
<rect width="30" height="30" fill="white"/>
</clipPath>
</defs>
</svg>
