<svg width="256" height="254" viewBox="0 0 256 254" fill="none" xmlns="http://www.w3.org/2000/svg">
<g clip-path="url(#clip0_2184_1781)">
<mask id="mask0_2184_1781" style="mask-type:luminance" maskUnits="userSpaceOnUse" x="-1" y="0" width="256" height="254">
<path d="M180.829 252.6C182.858 253.392 185.028 253.758 187.204 253.676C189.381 253.593 191.517 253.064 193.479 252.12L245.979 226.86C248.683 225.557 250.964 223.517 252.56 220.975C254.156 218.433 255.001 215.492 254.999 212.49V41.2C254.999 35.08 251.499 29.5 245.979 26.84L193.479 1.57999C190.512 0.152541 187.173 -0.316876 183.927 0.236738C180.681 0.790351 177.687 2.3396 175.359 4.66999L74.8595 96.35L31.0795 63.12C29.1053 61.6198 26.6681 60.8584 24.191 60.968C21.7139 61.0776 19.3534 62.0513 17.5195 63.72L3.47948 76.5C2.38408 77.4948 1.50844 78.7074 0.908612 80.0601C0.308786 81.4128 -0.00201504 82.8758 -0.00389765 84.3556C-0.00578025 85.8353 0.301297 87.2991 0.897679 88.6534C1.49406 90.0076 2.36661 91.2224 3.45948 92.22L41.4295 126.85L3.45948 161.49C2.36661 162.488 1.49406 163.702 0.897679 165.057C0.301297 166.411 -0.00578025 167.875 -0.00389765 169.354C-0.00201504 170.834 0.308786 172.297 0.908612 173.65C1.50844 175.003 2.38408 176.215 3.47948 177.21L17.5195 189.98C19.3534 191.649 21.7139 192.622 24.191 192.732C26.6681 192.842 29.1053 192.08 31.0795 190.58L74.8595 157.35L175.359 249.05C176.915 250.607 178.778 251.823 180.829 252.62V252.6ZM191.289 68.96L115.029 126.84L191.289 184.74V68.95V68.96Z" fill="white"/>
</mask>
<g mask="url(#mask0_2184_1781)">
<path d="M246.129 26.8701L193.599 1.57009C190.631 0.144119 187.293 -0.324487 184.047 0.229067C180.801 0.782622 177.807 2.33099 175.479 4.66009L3.47923 161.48C2.3851 162.476 1.511 163.69 0.912901 165.043C0.314798 166.397 0.00585937 167.86 0.00585938 169.34C0.00585937 170.82 0.314798 172.283 0.912901 173.637C1.511 174.99 2.3851 176.204 3.47923 177.2L17.5392 189.97C21.3292 193.41 27.0292 193.67 31.1092 190.57L238.229 33.4401C239.794 32.2522 241.659 31.5246 243.614 31.3394C245.57 31.1541 247.539 31.5186 249.298 32.3917C251.058 33.2648 252.539 34.6118 253.574 36.2811C254.61 37.9504 255.159 39.8757 255.159 41.8401V41.2401C255.159 35.1101 251.659 29.5301 246.129 26.8701Z" fill="#0065A9"/>
</g>
<mask id="mask1_2184_1781" style="mask-type:luminance" maskUnits="userSpaceOnUse" x="-1" y="0" width="256" height="254">
<path d="M180.829 252.6C182.858 253.392 185.028 253.758 187.204 253.676C189.381 253.593 191.517 253.064 193.479 252.12L245.979 226.86C248.683 225.557 250.964 223.517 252.56 220.975C254.156 218.433 255.001 215.492 254.999 212.49V41.2C254.999 35.08 251.499 29.5 245.979 26.84L193.479 1.57999C190.512 0.152541 187.173 -0.316876 183.927 0.236738C180.681 0.790351 177.687 2.3396 175.359 4.66999L74.8595 96.35L31.0795 63.12C29.1053 61.6198 26.6681 60.8584 24.191 60.968C21.7139 61.0776 19.3534 62.0513 17.5195 63.72L3.47948 76.5C2.38408 77.4948 1.50844 78.7074 0.908612 80.0601C0.308786 81.4128 -0.00201504 82.8758 -0.00389765 84.3556C-0.00578025 85.8353 0.301297 87.2991 0.897679 88.6534C1.49406 90.0076 2.36661 91.2224 3.45948 92.22L41.4295 126.85L3.45948 161.49C2.36661 162.488 1.49406 163.702 0.897679 165.057C0.301297 166.411 -0.00578025 167.875 -0.00389765 169.354C-0.00201504 170.834 0.308786 172.297 0.908612 173.65C1.50844 175.003 2.38408 176.215 3.47948 177.21L17.5195 189.98C19.3534 191.649 21.7139 192.622 24.191 192.732C26.6681 192.842 29.1053 192.08 31.0795 190.58L74.8595 157.35L175.359 249.05C176.915 250.607 178.778 251.823 180.829 252.62V252.6ZM191.289 68.96L115.029 126.84L191.289 184.74V68.95V68.96Z" fill="white"/>
</mask>
<g mask="url(#mask1_2184_1781)">
<path d="M246.129 226.82L193.589 252.12C190.621 253.546 187.283 254.015 184.037 253.461C180.791 252.908 177.797 251.359 175.469 249.03L3.46947 92.2101C2.37533 91.2139 1.50124 90.0002 0.903135 88.6467C0.305032 87.2933 -0.00390625 85.8299 -0.00390625 84.3501C-0.00390625 82.8704 0.305032 81.407 0.903135 80.0535C1.50124 78.7 2.37533 77.4863 3.46947 76.4901L17.5295 63.7201C21.3195 60.2801 27.0195 60.0201 31.0995 63.1201L238.229 220.25C239.794 221.438 241.659 222.166 243.615 222.351C245.57 222.536 247.539 222.172 249.299 221.299C251.058 220.425 252.539 219.078 253.575 217.409C254.61 215.74 255.159 213.815 255.159 211.85V212.45C255.159 218.58 251.659 224.15 246.129 226.82Z" fill="#007ACC"/>
</g>
<mask id="mask2_2184_1781" style="mask-type:luminance" maskUnits="userSpaceOnUse" x="-1" y="0" width="256" height="254">
<path d="M180.829 252.6C182.858 253.392 185.028 253.758 187.204 253.676C189.381 253.593 191.517 253.064 193.479 252.12L245.979 226.86C248.683 225.557 250.964 223.517 252.56 220.975C254.156 218.433 255.001 215.492 254.999 212.49V41.2C254.999 35.08 251.499 29.5 245.979 26.84L193.479 1.57999C190.512 0.152541 187.173 -0.316876 183.927 0.236738C180.681 0.790351 177.687 2.3396 175.359 4.66999L74.8595 96.35L31.0795 63.12C29.1053 61.6198 26.6681 60.8584 24.191 60.968C21.7139 61.0776 19.3534 62.0513 17.5195 63.72L3.47948 76.5C2.38408 77.4948 1.50844 78.7074 0.908612 80.0601C0.308786 81.4128 -0.00201504 82.8758 -0.00389765 84.3556C-0.00578025 85.8353 0.301297 87.2991 0.897679 88.6534C1.49406 90.0076 2.36661 91.2224 3.45948 92.22L41.4295 126.85L3.45948 161.49C2.36661 162.488 1.49406 163.702 0.897679 165.057C0.301297 166.411 -0.00578025 167.875 -0.00389765 169.354C-0.00201504 170.834 0.308786 172.297 0.908612 173.65C1.50844 175.003 2.38408 176.215 3.47948 177.21L17.5195 189.98C19.3534 191.649 21.7139 192.622 24.191 192.732C26.6681 192.842 29.1053 192.08 31.0795 190.58L74.8595 157.35L175.359 249.05C176.915 250.607 178.778 251.823 180.829 252.62V252.6ZM191.289 68.96L115.029 126.84L191.289 184.74V68.95V68.96Z" fill="white"/>
</mask>
<g mask="url(#mask2_2184_1781)">
<path d="M193.429 252.13C190.46 253.558 187.121 254.029 183.873 253.477C180.626 252.925 177.629 251.378 175.299 249.05C181.179 254.93 191.239 250.77 191.239 242.45V11.2701C191.239 2.96013 181.179 -1.20987 175.299 4.67013C177.629 2.34183 180.626 0.794907 183.873 0.243161C187.121 -0.308585 190.46 0.162087 193.429 1.59013L245.959 26.8501C248.665 28.1496 250.949 30.1868 252.548 32.7273C254.148 35.2677 254.997 38.2082 254.999 41.2101V212.51C254.999 218.63 251.499 224.21 245.969 226.87L193.439 252.13H193.429Z" fill="#1F9CF0"/>
</g>
<mask id="mask3_2184_1781" style="mask-type:luminance" maskUnits="userSpaceOnUse" x="-1" y="0" width="256" height="254">
<path d="M180.829 252.6C182.858 253.392 185.028 253.758 187.204 253.676C189.381 253.593 191.517 253.064 193.479 252.12L245.979 226.86C248.683 225.557 250.964 223.517 252.56 220.975C254.156 218.433 255.001 215.492 254.999 212.49V41.2C254.999 35.08 251.499 29.5 245.979 26.84L193.479 1.57999C190.512 0.152541 187.173 -0.316876 183.927 0.236738C180.681 0.790351 177.687 2.3396 175.359 4.66999L74.8595 96.35L31.0795 63.12C29.1053 61.6198 26.6681 60.8584 24.191 60.968C21.7139 61.0776 19.3534 62.0513 17.5195 63.72L3.47948 76.5C2.38408 77.4948 1.50844 78.7074 0.908612 80.0601C0.308786 81.4128 -0.00201504 82.8758 -0.00389765 84.3556C-0.00578025 85.8353 0.301297 87.2991 0.897679 88.6534C1.49406 90.0076 2.36661 91.2224 3.45948 92.22L41.4295 126.85L3.45948 161.49C2.36661 162.488 1.49406 163.702 0.897679 165.057C0.301297 166.411 -0.00578025 167.875 -0.00389765 169.354C-0.00201504 170.834 0.308786 172.297 0.908612 173.65C1.50844 175.003 2.38408 176.215 3.47948 177.21L17.5195 189.98C19.3534 191.649 21.7139 192.622 24.191 192.732C26.6681 192.842 29.1053 192.08 31.0795 190.58L74.8595 157.35L175.359 249.05C176.915 250.607 178.778 251.823 180.829 252.62V252.6ZM191.289 68.96L115.029 126.84L191.289 184.74V68.95V68.96Z" fill="white"/>
</mask>
<g mask="url(#mask3_2184_1781)">
<path d="M180.829 252.6C182.858 253.392 185.028 253.758 187.204 253.676C189.381 253.593 191.517 253.064 193.479 252.12L245.979 226.86C248.683 225.557 250.964 223.517 252.56 220.975C254.156 218.433 255.001 215.492 254.999 212.49V41.2C254.999 35.08 251.499 29.5 245.979 26.84L193.479 1.57999C190.512 0.152541 187.173 -0.316876 183.927 0.236738C180.681 0.790351 177.687 2.3396 175.359 4.66999L74.8595 96.35L31.0795 63.12C29.1053 61.6198 26.6681 60.8584 24.191 60.968C21.7139 61.0776 19.3534 62.0513 17.5195 63.72L3.47948 76.5C2.38408 77.4948 1.50844 78.7074 0.908612 80.0601C0.308786 81.4128 -0.00201504 82.8758 -0.00389765 84.3556C-0.00578025 85.8353 0.301297 87.2991 0.897679 88.6534C1.49406 90.0076 2.36661 91.2224 3.45948 92.22L41.4295 126.85L3.45948 161.49C2.36661 162.488 1.49406 163.702 0.897679 165.057C0.301297 166.411 -0.00578025 167.875 -0.00389765 169.354C-0.00201504 170.834 0.308786 172.297 0.908612 173.65C1.50844 175.003 2.38408 176.215 3.47948 177.21L17.5195 189.98C19.3534 191.649 21.7139 192.622 24.191 192.732C26.6681 192.842 29.1053 192.08 31.0795 190.58L74.8595 157.35L175.359 249.05C176.915 250.607 178.778 251.822 180.829 252.62V252.6ZM191.289 68.96L115.029 126.84L191.289 184.74V68.95V68.96Z" fill="url(#paint0_linear_2184_1781)" fill-opacity="0.25"/>
</g>
</g>
<defs>
<linearGradient id="paint0_linear_2184_1781" x1="12750.2" y1="0.0107422" x2="12750.2" y2="25367.7" gradientUnits="userSpaceOnUse">
<stop stop-color="white"/>
<stop offset="1" stop-color="white" stop-opacity="0"/>
</linearGradient>
<clipPath id="clip0_2184_1781">
<rect width="256" height="254" fill="white"/>
</clipPath>
</defs>
</svg>
