<svg width="31" height="33" viewBox="0 0 31 33" fill="none" xmlns="http://www.w3.org/2000/svg">
<g clip-path="url(#clip0_2184_1819)">
<path fill-rule="evenodd" clip-rule="evenodd" d="M26.166 5.45439L26.272 5.55939L26.275 5.55639C28.315 7.60439 27.73 11.7194 24.772 16.3844L30.59 22.2044L30.34 22.6914C29.3618 24.5988 28.0377 26.3078 26.435 27.7314C24.3239 29.6165 21.7755 30.9446 19.021 31.5954L18.921 31.6194L18.778 31.6534L18.675 31.6764L18.448 31.7264L18.26 31.7634L18.119 31.7904C17.969 31.8204 17.812 31.8484 17.659 31.8744L17.531 31.8934L17.434 31.9054C17.296 31.9241 17.1587 31.9414 17.022 31.9574C14.7288 32.2153 12.4069 31.9576 10.2261 31.2031C8.04523 30.4486 6.06052 29.2163 4.417 27.5964L4.321 27.5034C2.277 25.4554 2.856 21.3374 5.818 16.6694L0 10.8494L0.25 10.3624C1.2255 8.45361 2.5512 6.74527 4.158 5.32639C5.79989 3.86658 7.70625 2.73485 9.774 1.99239C10.254 1.81939 10.756 1.66839 11.249 1.54039C11.6553 1.4315 12.066 1.33975 12.48 1.26539C12.62 1.23739 12.778 1.20839 12.931 1.18239C15.3174 0.810404 17.7579 1.0031 20.0564 1.74501C22.3548 2.48692 24.4474 3.75737 26.166 5.45439ZM24.199 5.70439H24.193L24.199 5.70739C22.222 5.09539 19.085 6.08439 15.769 8.26939C18.292 7.56639 20.732 7.93039 22.309 9.50839C23.803 11.0054 24.212 13.2774 23.646 15.6644C23.6193 15.7917 23.586 15.9207 23.546 16.0514C26.253 11.9564 27.119 8.12539 25.405 6.41439C25.3768 6.38353 25.3468 6.35448 25.315 6.32739L25.302 6.31539L25.283 6.29839L25.226 6.25439C25.2013 6.23439 25.1757 6.21505 25.149 6.19639L25.107 6.16639C24.8329 5.96174 24.5258 5.80549 24.199 5.70439ZM22.842 14.9094C22.493 16.9914 21.342 19.0954 19.597 20.8384C17.857 22.5824 15.749 23.7344 13.664 24.0864C11.713 24.4164 10.03 23.9864 8.927 22.8864C7.827 21.7854 7.397 20.1084 7.727 18.1474C8.076 16.0674 9.224 13.9624 10.961 12.2214C10.961 12.2214 10.964 12.2214 10.971 12.2114L10.977 12.2014C12.72 10.4694 14.82 9.32039 16.9 8.97239C18.851 8.64239 20.53 9.07039 21.637 10.1724C22.737 11.2724 23.167 12.9524 22.837 14.9104L22.842 14.9094ZM5.162 6.44939C3.83363 7.62412 2.71527 9.01674 1.855 10.5674L1.845 10.5704L6.893 15.6064C7.30433 15.0271 7.74433 14.4544 8.213 13.8884C8.377 13.6924 8.54567 13.4931 8.719 13.2904L8.785 13.2154L9.025 12.9474C9.032 12.9414 9.039 12.9284 9.039 12.9284L9.083 12.8784L9.106 12.8514L9.141 12.8134L9.231 12.7134C9.29367 12.6414 9.35867 12.5704 9.426 12.5004C9.426 12.4934 9.436 12.4834 9.436 12.4834L9.544 12.3654L9.621 12.2854C9.62433 12.2801 9.627 12.2794 9.627 12.2794C9.633 12.2741 9.634 12.2694 9.634 12.2694L9.648 12.2514L9.662 12.2344C9.67419 12.225 9.68527 12.2143 9.695 12.2024L9.714 12.1824C9.755 12.1414 9.804 12.0934 9.848 12.0454C9.87133 12.0167 9.898 11.9881 9.928 11.9594L9.969 11.9174C9.976 11.9074 9.995 11.8884 9.995 11.8884L10.072 11.8124L10.222 11.6644L10.272 11.6114L10.328 11.5524C11.4089 10.4677 12.5641 9.45963 13.785 8.53539L13.945 8.41839H13.946V8.41739L13.948 8.41639L14.108 8.29839C14.2867 8.16439 14.4667 8.03339 14.648 7.90539C14.8413 7.77339 15.0347 7.64339 15.228 7.51539C17.85 5.76739 20.418 4.71839 22.514 4.51039C19.7099 2.81856 16.4 2.1672 13.164 2.67039C13.024 2.69239 12.89 2.71539 12.746 2.74439C12.655 2.76039 12.576 2.77639 12.496 2.79239L12.448 2.80239C11.713 2.9537 10.9895 3.15653 10.283 3.40939C8.39698 4.08458 6.65765 5.11671 5.162 6.44939ZM5.441 26.8574C5.721 27.0707 6.04 27.2327 6.398 27.3434H6.39C8.38 27.9514 11.505 26.9594 14.809 24.7804C12.289 25.4804 9.854 25.1164 8.277 23.5384C6.79 22.0484 6.381 19.7694 6.944 17.3824C6.972 17.2551 7.005 17.1261 7.043 16.9954C4.337 21.0914 3.473 24.9214 5.185 26.6334C5.22367 26.6714 5.265 26.7097 5.309 26.7484C5.35033 26.7857 5.395 26.8221 5.441 26.8574ZM28.732 22.4874V22.4894C27.8704 24.0377 26.753 25.429 25.427 26.6044C23.4426 28.3665 21.0439 29.5968 18.455 30.1804L18.423 30.1884L18.337 30.2084C18.2398 30.2347 18.1413 30.256 18.042 30.2724C17.9773 30.2864 17.9113 30.2987 17.844 30.3094C17.7046 30.3364 17.5646 30.3598 17.424 30.3794L17.307 30.3994L17.174 30.4164C17.0673 30.4311 16.958 30.4444 16.846 30.4564C13.7928 30.8001 10.7115 30.1278 8.079 28.5434C10.097 28.3444 12.554 27.3594 15.074 25.7304L15.218 25.6364L15.362 25.5414L15.558 25.4094H15.559L15.938 25.1514C16.1213 25.0234 16.3013 24.8924 16.478 24.7584C16.5887 24.6791 16.6973 24.6001 16.804 24.5214C18.0233 23.5944 19.1786 22.5861 20.262 21.5034C20.288 21.4767 20.3123 21.4507 20.335 21.4254L20.365 21.3914C20.4183 21.3414 20.4683 21.2924 20.515 21.2444L20.591 21.1684C20.591 21.1684 20.611 21.1484 20.614 21.1384C20.624 21.1297 20.6337 21.1204 20.643 21.1104L20.655 21.0974L20.742 21.0114L20.809 20.9414C20.8317 20.9201 20.854 20.8974 20.876 20.8734L20.894 20.8534C20.9038 20.8418 20.9149 20.8314 20.927 20.8224L20.942 20.8044L20.956 20.7874C20.956 20.7874 20.966 20.7774 20.972 20.7744L20.999 20.7454L21.026 20.7164L21.052 20.6914C21.024 20.7207 20.9973 20.7514 20.972 20.7834L21.034 20.7184L21.035 20.7164C21.0783 20.6697 21.1213 20.6251 21.164 20.5824C21.164 20.5824 21.164 20.5724 21.174 20.5724C21.2327 20.5097 21.2897 20.4464 21.345 20.3824L21.458 20.2564C21.4729 20.2467 21.485 20.2333 21.493 20.2174L21.557 20.1404L21.573 20.1214C21.651 20.0381 21.7273 19.9537 21.802 19.8684L21.88 19.7784C22.0053 19.6324 22.13 19.4854 22.254 19.3374L22.404 19.1584L22.451 19.1004C22.511 19.0251 22.5703 18.9517 22.629 18.8804C22.679 18.8204 22.728 18.7591 22.776 18.6964C22.806 18.6564 22.837 18.6174 22.869 18.5794C23.159 18.2054 23.438 17.8374 23.707 17.4594L28.732 22.4874ZM28.732 22.4874C28.732 22.4841 28.734 22.4814 28.738 22.4794V22.4954L28.732 22.4894H28.734L28.732 22.4874Z" fill="black"/>
</g>
<defs>
<clipPath id="clip0_2184_1819">
<rect width="31" height="33" fill="white"/>
</clipPath>
</defs>
</svg>
