<svg width="31" height="25" viewBox="0 0 31 25" fill="none" xmlns="http://www.w3.org/2000/svg">
<g clip-path="url(#clip0_2184_1815)">
<path d="M30.556 5.479V0.715L24.826 3.723V3.545C24.826 1.646 23.465 0.5 21.494 0.5H3.331C1.255 0.5 0 1.646 0 3.545V8.345L8.023 12.5L0 16.691V21.491C0 23.354 1.255 24.5 3.331 24.5H21.493C23.463 24.5 24.823 23.354 24.823 21.491V21.241L30.554 24.285V19.45L17.23 12.5L30.556 5.479ZM12.61 14.863L22.462 20.023H2.72L12.608 14.863H12.61ZM22.39 4.978L12.609 10.1L2.722 4.978H22.388H22.39Z" fill="black"/>
</g>
<defs>
<clipPath id="clip0_2184_1815">
<rect width="31" height="25" fill="white"/>
</clipPath>
</defs>
</svg>
